<svg xmlns="http://www.w3.org/2000/svg" viewBox="0 0 169.68 45.45"><defs><style>.cls-1{fill:#fff;}</style></defs><title>SIPA Logo - hz1-mc_main-</title><g id="Capa_2" data-name="Capa 2"><g id="Capa_1-2" data-name="Capa 1"><polygon class="cls-1" points="19.28 37.4 36.96 27.13 36.94 33.09 19.27 43.36 19.28 37.4"/><polygon class="cls-1" points="19.28 37.4 19.27 43.36 0 32.24 0.02 26.28 19.28 37.4"/><polygon class="cls-1" points="19.28 29.41 36.96 19.14 36.94 25.1 19.27 35.37 19.28 29.41"/><polygon class="cls-1" points="19.28 29.41 19.27 35.37 0 24.25 0.02 18.29 19.28 29.41"/><polygon class="cls-1" points="19.28 21.4 36.96 11.13 36.94 17.09 19.27 27.36 19.28 21.4"/><polygon class="cls-1" points="0.02 10.28 17.69 0.01 36.96 11.13 19.28 21.4 0.02 10.28"/><polygon class="cls-1" points="19.28 21.4 19.27 27.36 0 16.24 0.02 10.28 19.28 21.4"/><path class="cls-1" d="M115.46,1.14h5.44a30.67,30.67,0,0,1,6.31.41A7,7,0,0,1,131,3.91a6.84,6.84,0,0,1,1.49,4.5,6.85,6.85,0,0,1-1.45,4.5,7.11,7.11,0,0,1-4,2.39,36,36,0,0,1-6.94.44h-2V29.51h-2.73Zm2.73,2.67v9.26l4.62.06a12,12,0,0,0,4.1-.51A4.16,4.16,0,0,0,129,11a4.54,4.54,0,0,0,.75-2.55A4.48,4.48,0,0,0,129,5.91,4,4,0,0,0,127,4.29a11.82,11.82,0,0,0-4-.48Z"/><path class="cls-1" d="M119.33,30.64h-5V0h6.57a32.42,32.42,0,0,1,6.59.44,8.16,8.16,0,0,1,4.42,2.75,7.91,7.91,0,0,1,1.74,5.22,8,8,0,0,1-1.7,5.22,8.24,8.24,0,0,1-4.6,2.77,35.79,35.79,0,0,1-7.21.48h-.81Zm-2.73-2.27h.45V14.61h3.09a34.22,34.22,0,0,0,6.68-.42,5.94,5.94,0,0,0,3.37-2,5.72,5.72,0,0,0,1.19-3.78,5.66,5.66,0,0,0-1.22-3.77,5.87,5.87,0,0,0-3.22-2,29,29,0,0,0-6-.38h-4.3Zm6.21-14.11-5.76-.07V2.67h6a12.89,12.89,0,0,1,4.4.56,5.26,5.26,0,0,1,2.49,2.06,5.85,5.85,0,0,1,0,6.3,5.3,5.3,0,0,1-2.58,2.08A12.88,12.88,0,0,1,122.81,14.26ZM119.33,12l3.5,0a10.9,10.9,0,0,0,3.67-.43,3.1,3.1,0,0,0,1.5-1.21,3.41,3.41,0,0,0,.56-1.93A3.35,3.35,0,0,0,128,6.53a2.91,2.91,0,0,0-1.42-1.18A10.28,10.28,0,0,0,123,5h-3.69Z"/><path class="cls-1" d="M93,1.18h2.73V29.47H93Z"/><path class="cls-1" d="M96.84,30.65h-5V0h5Zm-2.72-2.36h.45V2.36h-.45Z"/><path class="cls-1" d="M154.52,1.14l13.27,28.37h-2.95l-4.82-10H148.25l-4.78,10.05h-3.05L153.85,1.14Zm-.34,5.8-4.68,9.88h9.34Z"/><path class="cls-1" d="M169.58,30.65h-5.45l-4.83-10H149l-4.78,10h-5.56L153.13,0h2.12Zm-4-2.28H166L154.18,3.1l-12,25.27h.53l4.78-10h13.2ZM160.63,18H147.7l6.48-13.68Zm-9.33-2.27H157L154.18,9.6Z"/><path class="cls-1" d="M55.88,23.88l2.9-1.39Q61.84,27,65.85,27a8.13,8.13,0,0,0,3.23-.64,5.25,5.25,0,0,0,2.29-1.71,3.78,3.78,0,0,0,.79-2.28A4.1,4.1,0,0,0,71,19.66a26.09,26.09,0,0,0-5.84-4.37,28.06,28.06,0,0,1-5.31-3.74A6,6,0,0,1,58,7.38a5.41,5.41,0,0,1,1.07-3.25,7.08,7.08,0,0,1,3-2.31A10.45,10.45,0,0,1,66.32,1a10.89,10.89,0,0,1,4.51,1,14.46,14.46,0,0,1,4.44,3.52L72.48,7.14A12.18,12.18,0,0,0,69.2,4.45a6.64,6.64,0,0,0-3-.65,5.41,5.41,0,0,0-3.38,1,3,3,0,0,0-1.31,2.47A3.48,3.48,0,0,0,62,9a6.54,6.54,0,0,0,1.69,1.82q.68.53,4.41,2.73A23.38,23.38,0,0,1,74.2,18.2a6.52,6.52,0,0,1,1.65,4.1A6.41,6.41,0,0,1,73,27.46a10.82,10.82,0,0,1-6.85,2.19,11.91,11.91,0,0,1-5.64-1.33A13.38,13.38,0,0,1,55.88,23.88Z"/><path class="cls-1" d="M66.18,30.63a13,13,0,0,1-6.09-1.44,14.37,14.37,0,0,1-5-4.76l-.65-.94,4.69-2.25.47.7C61.45,24.68,63.5,26,65.85,26a7.06,7.06,0,0,0,2.84-.57,4.37,4.37,0,0,0,1.89-1.39,2.84,2.84,0,0,0,.6-1.7,3.1,3.1,0,0,0-.92-2.05,25.42,25.42,0,0,0-5.61-4.19,28.72,28.72,0,0,1-5.53-3.91,7,7,0,0,1-2.06-4.83,6.38,6.38,0,0,1,1.25-3.82A8.15,8.15,0,0,1,61.72.92,12.09,12.09,0,0,1,71.23,1,15.59,15.59,0,0,1,76,4.79l.8.88L72.32,8.39l-.55-.58a11.46,11.46,0,0,0-3-2.48,5.78,5.78,0,0,0-2.53-.55,4.4,4.4,0,0,0-2.78.8,2,2,0,0,0-.93,1.69,2.5,2.5,0,0,0,.34,1.25,5.72,5.72,0,0,0,1.45,1.53c.27.21,1.25.85,4.29,2.65A23.79,23.79,0,0,1,75,17.58a7.51,7.51,0,0,1,1.87,4.72,7.37,7.37,0,0,1-3.2,5.93A11.81,11.81,0,0,1,66.18,30.63Zm-8.81-6.38A11.41,11.41,0,0,0,61,27.46a11.08,11.08,0,0,0,5.18,1.21,9.82,9.82,0,0,0,6.25-2,5.46,5.46,0,0,0,2.44-4.39,5.62,5.62,0,0,0-1.43-3.49,22.75,22.75,0,0,0-5.81-4.43c-3.39-2-4.2-2.55-4.51-2.79a7.56,7.56,0,0,1-1.95-2.12,4.47,4.47,0,0,1-.58-2.2A4,4,0,0,1,62.28,4a6.36,6.36,0,0,1,4-1.2,7.84,7.84,0,0,1,3.38.74,11.74,11.74,0,0,1,3,2.34l1.07-.65a12.06,12.06,0,0,0-3.29-2.43,10.09,10.09,0,0,0-7.92-.1,6.19,6.19,0,0,0-2.6,2A4.41,4.41,0,0,0,59,7.38a5,5,0,0,0,1.54,3.5,26.59,26.59,0,0,0,5.1,3.57A26.91,26.91,0,0,1,71.74,19a5,5,0,0,1,1.4,3.34,4.78,4.78,0,0,1-1,2.86,6.47,6.47,0,0,1-2.7,2,9.3,9.3,0,0,1-3.61.71c-2.78,0-5.27-1.43-7.39-4.25Z"/><path class="cls-1" d="M54.83,42.14a3.08,3.08,0,0,0,1.56.44c.89,0,1.41-.47,1.41-1.15s-.36-1-1.27-1.35c-1.1-.39-1.78-1-1.78-1.91a1.94,1.94,0,0,1,2.18-1.83,3.14,3.14,0,0,1,1.5.33l-.25.71a2.68,2.68,0,0,0-1.28-.32c-.92,0-1.27.55-1.27,1,0,.63.41.94,1.34,1.3,1.14.44,1.73,1,1.73,2s-.78,1.94-2.37,1.94a3.48,3.48,0,0,1-1.72-.43Z"/><path class="cls-1" d="M56.33,43.45A3.64,3.64,0,0,1,54.52,43l-.09-.06.31-1,.16.1a3,3,0,0,0,1.49.42c.78,0,1.26-.38,1.26-1s-.3-.87-1.17-1.21c-1.28-.45-1.88-1.1-1.88-2a2.08,2.08,0,0,1,2.33-2,3.18,3.18,0,0,1,1.57.35l.11.06-.34,1-.16-.08a2.5,2.5,0,0,0-1.21-.3c-.77,0-1.12.43-1.12.86s.3.8,1.25,1.16c1.27.5,1.81,1.13,1.81,2.13S58.19,43.45,56.33,43.45Zm-1.55-.65a3.48,3.48,0,0,0,1.55.35c1.35,0,2.22-.7,2.22-1.79,0-.87-.48-1.4-1.63-1.85-.94-.36-1.44-.7-1.44-1.44,0-.56.44-1.16,1.42-1.16a2.93,2.93,0,0,1,1.2.26l.14-.43a3.06,3.06,0,0,0-1.31-.26,1.8,1.8,0,0,0-2,1.69c0,.8.53,1.37,1.68,1.77.82.32,1.37.69,1.37,1.49s-.61,1.3-1.56,1.3a3.21,3.21,0,0,1-1.48-.37Z"/><path class="cls-1" d="M60.41,40.94a1.55,1.55,0,0,0,1.66,1.68,3.18,3.18,0,0,0,1.34-.25l.15.63a3.92,3.92,0,0,1-1.61.3,2.25,2.25,0,0,1-2.39-2.44,2.36,2.36,0,0,1,2.28-2.62,2.05,2.05,0,0,1,2,2.28,3.35,3.35,0,0,1,0,.42ZM63,40.3a1.25,1.25,0,0,0-1.22-1.43,1.48,1.48,0,0,0-1.36,1.43Z"/><path class="cls-1" d="M62,43.45a2.41,2.41,0,0,1-2.54-2.59,2.5,2.5,0,0,1,2.43-2.77A2.18,2.18,0,0,1,64,40.53a2.06,2.06,0,0,1,0,.39v.17H60.56a1.39,1.39,0,0,0,1.51,1.38,2.91,2.91,0,0,0,1.28-.24l.17-.07.22.93-.12,0A4.07,4.07,0,0,1,62,43.45Zm-.11-5.06a2.22,2.22,0,0,0-2.13,2.47A2.1,2.1,0,0,0,62,43.15a3.88,3.88,0,0,0,1.44-.24l-.08-.34a3.38,3.38,0,0,1-1.24.2,1.71,1.71,0,0,1-1.81-1.83v-.15h3.43a2.09,2.09,0,0,0,0-.26C63.69,40.31,63.64,38.39,61.84,38.39Zm1.3,2.06H60.25l0-.16a1.6,1.6,0,0,1,1.5-1.57,1.3,1.3,0,0,1,.95.37,1.77,1.77,0,0,1,.42,1.22Zm-2.55-.29h2.25a1.37,1.37,0,0,0-.34-.86,1,1,0,0,0-.73-.28A1.26,1.26,0,0,0,60.59,40.16Z"/><path class="cls-1" d="M64.93,39.86c0-.57,0-1.06,0-1.51h.77l0,.95h0a1.45,1.45,0,0,1,1.35-1.06,1,1,0,0,1,.25,0v.83a1.32,1.32,0,0,0-.3,0,1.24,1.24,0,0,0-1.19,1.13,2.5,2.5,0,0,0,0,.42V43.2h-.87Z"/><path class="cls-1" d="M66,43.35H64.78V39.86c0-.62,0-1.08,0-1.5V38.2h1.08l0,.58a1.44,1.44,0,0,1,1.53-.65l.12,0v1.14l-.19,0a1,1,0,0,0-.26,0,1.09,1.09,0,0,0-1,1,2.34,2.34,0,0,0,0,.39Zm-.87-.3h.57V40.62a2.67,2.67,0,0,1,0-.44A1.39,1.39,0,0,1,67,38.92h.15v-.54h-.1a1.32,1.32,0,0,0-1.21,1l0,.1h-.29l0-1h-.47c0,.38,0,.81,0,1.36Z"/><path class="cls-1" d="M68.8,38.35l1,2.73a12.45,12.45,0,0,1,.39,1.24h0c.11-.4.25-.8.41-1.24l.94-2.73h.93L70.54,43.2H69.7l-1.84-4.85Z"/><path class="cls-1" d="M70.64,43.35h-1l-2-5.15H68.9l1,2.83c.11.3.2.56.27.8.09-.27.19-.54.28-.8l1-2.83h1.24Zm-.84-.3h.64l1.79-4.55h-.6l-.91,2.62c-.14.4-.29.83-.41,1.24l0,.11h-.23l0-.11c-.1-.37-.22-.75-.39-1.23l-.92-2.63h-.62Z"/><path class="cls-1" d="M74.26,37a.55.55,0,0,1-1.1,0,.54.54,0,0,1,.55-.55A.52.52,0,0,1,74.26,37Zm-1,6.21V38.35h.89V43.2Z"/><path class="cls-1" d="M74.3,43.35H73.12V38.2H74.3Zm-.88-.3H74V38.5h-.59Zm.27-5.37A.68.68,0,0,1,73,37a.69.69,0,0,1,.7-.7.67.67,0,0,1,.69.7.62.62,0,0,1-.18.48A.75.75,0,0,1,73.69,37.68Zm0-1.1a.39.39,0,0,0-.4.41.38.38,0,0,0,.38.39.42.42,0,0,0,.32-.12.36.36,0,0,0,.1-.27h0A.39.39,0,0,0,73.71,36.58Z"/><path class="cls-1" d="M79.07,43a3.24,3.24,0,0,1-1.39.28,2.3,2.3,0,0,1-2.41-2.47,2.46,2.46,0,0,1,2.6-2.58,2.94,2.94,0,0,1,1.22.25l-.2.68a2,2,0,0,0-1-.23,1.68,1.68,0,0,0-1.71,1.84,1.66,1.66,0,0,0,1.68,1.81,2.5,2.5,0,0,0,1.08-.24Z"/><path class="cls-1" d="M77.68,43.45a2.45,2.45,0,0,1-2.56-2.62,2.62,2.62,0,0,1,2.75-2.73,3,3,0,0,1,1.29.27l.11.05-.29,1-.16-.09a2,2,0,0,0-.95-.21,1.68,1.68,0,0,0,0,3.35,2.33,2.33,0,0,0,1-.23l.17-.07.22,1-.11,0A3.33,3.33,0,0,1,77.68,43.45Zm.19-5.05a2.31,2.31,0,0,0-2.46,2.43,2.15,2.15,0,0,0,2.27,2.32,3.48,3.48,0,0,0,1.22-.21l-.08-.38a2.44,2.44,0,0,1-1,.19,2,2,0,0,1,0-4,2.33,2.33,0,0,1,.93.17l.11-.39A3,3,0,0,0,77.87,38.4Z"/><path class="cls-1" d="M81.09,37A.55.55,0,0,1,80,37a.54.54,0,0,1,.55-.55A.52.52,0,0,1,81.09,37Zm-1,6.21V38.35H81V43.2Z"/><path class="cls-1" d="M81.13,43.35H80V38.2h1.18Zm-.88-.3h.59V38.5h-.59Zm.27-5.37a.68.68,0,0,1-.68-.69.69.69,0,0,1,.7-.7.67.67,0,0,1,.69.7.62.62,0,0,1-.18.48A.75.75,0,0,1,80.52,37.68Zm0-1.1a.39.39,0,0,0-.4.41.38.38,0,0,0,.38.39.42.42,0,0,0,.32-.12.36.36,0,0,0,.1-.27h0A.39.39,0,0,0,80.54,36.58Z"/><path class="cls-1" d="M86.84,40.74a2.37,2.37,0,0,1-2.42,2.57,2.3,2.3,0,0,1-2.32-2.49,2.37,2.37,0,0,1,2.4-2.58A2.3,2.3,0,0,1,86.84,40.74Zm-3.85,0c0,1.06.61,1.86,1.47,1.86s1.48-.79,1.48-1.88c0-.83-.42-1.87-1.46-1.87S83,39.86,83,40.79Z"/><path class="cls-1" d="M84.42,43.46A2.45,2.45,0,0,1,82,40.82a2.53,2.53,0,0,1,2.55-2.73A2.47,2.47,0,0,1,87,40.74,2.53,2.53,0,0,1,84.42,43.46Zm.08-5.07a2.22,2.22,0,0,0-2.26,2.43,2.17,2.17,0,0,0,2.18,2.34,2.22,2.22,0,0,0,2.27-2.42A2.15,2.15,0,0,0,84.5,38.39Zm0,4.41c-.94,0-1.62-.85-1.62-2s.51-2,1.64-2,1.6,1,1.6,2A1.81,1.81,0,0,1,84.46,42.8Zm0-3.75c-.93,0-1.34.87-1.34,1.74s.55,1.71,1.32,1.71,1.33-.73,1.33-1.73C85.79,40.17,85.51,39.05,84.48,39.05Z"/><path class="cls-1" d="M87.82,42.3a2.38,2.38,0,0,0,1.17.35c.64,0,.94-.32.94-.72s-.25-.65-.9-.89c-.87-.31-1.29-.8-1.29-1.38a1.5,1.5,0,0,1,1.68-1.42,2.42,2.42,0,0,1,1.19.3l-.22.64a1.88,1.88,0,0,0-1-.28c-.52,0-.81.3-.81.66s.29.58.92.82c.84.33,1.27.75,1.27,1.47S90.12,43.3,89,43.3A2.83,2.83,0,0,1,87.6,43Z"/><path class="cls-1" d="M89,43.45a3,3,0,0,1-1.44-.35l-.1-.06.31-1,.17.1A2.06,2.06,0,0,0,89,42.5c.49,0,.79-.21.79-.57s-.13-.5-.8-.75c-1.14-.41-1.38-1-1.38-1.52a1.65,1.65,0,0,1,1.82-1.57,2.63,2.63,0,0,1,1.27.32l.1.06-.32.94-.16-.1a1.67,1.67,0,0,0-.91-.26c-.4,0-.66.2-.66.51s.17.44.82.69c1,.36,1.37.85,1.37,1.6C90.93,42.82,90.16,43.45,89,43.45Zm-1.19-.55a2.78,2.78,0,0,0,1.19.25c1,0,1.66-.5,1.66-1.3,0-.62-.34-1-1.17-1.33-.58-.22-1-.43-1-1a.86.86,0,0,1,1-.81,2,2,0,0,1,.91.22l.12-.36a2.37,2.37,0,0,0-1-.22,1.36,1.36,0,0,0-1.53,1.27c0,.54.4,1,1.19,1.24.62.22,1,.48,1,1s-.29.87-1.09.87a2.45,2.45,0,0,1-1.08-.28Z"/><path class="cls-1" d="M94.94,36.45V43.2h-.88V36.45Z"/><path class="cls-1" d="M95.09,43.35H93.91V36.3h1.18Zm-.88-.3h.58V36.59h-.58Z"/><path class="cls-1" d="M96.53,39.66c0-.5,0-.91,0-1.31h.78l0,.8h0a1.78,1.78,0,0,1,1.6-.91c.67,0,1.72.4,1.72,2.06v2.9h-.89V40.4c0-.78-.29-1.43-1.12-1.43a1.25,1.25,0,0,0-1.18.9,1.27,1.27,0,0,0-.06.41V43.2h-.88Z"/><path class="cls-1" d="M100.81,43.35H99.63V40.41c0-.59-.17-1.29-1-1.29a1.1,1.1,0,0,0-1,.8,1.2,1.2,0,0,0,0,.36v3.07H96.38V39.66c0-.53,0-.93,0-1.3V38.2h1.08l0,.54a2,2,0,0,1,1.5-.65c.86,0,1.87.58,1.87,2.21Zm-.89-.3h.59V40.3c0-1.82-1.31-1.91-1.57-1.91a1.63,1.63,0,0,0-1.47.83l0,.08H97.2l0-.14,0-.66h-.48c0,.33,0,.7,0,1.16v3.39h.58V40.28a1.53,1.53,0,0,1,.07-.46,1.39,1.39,0,0,1,1.32-1c.81,0,1.27.58,1.27,1.59Z"/><path class="cls-1" d="M103.11,37v1.39h1.26V39h-1.26v2.62c0,.6.17.94.66.94a2,2,0,0,0,.51-.06l0,.66a2.15,2.15,0,0,1-.78.12,1.22,1.22,0,0,1-1-.37,1.79,1.79,0,0,1-.34-1.26V39h-.76v-.67h.76V37.19Z"/><path class="cls-1" d="M103.54,43.45a1.38,1.38,0,0,1-1.07-.42,1.94,1.94,0,0,1-.37-1.36v-2.5h-.75v-1h.75V37.07l1.16-.31V38.2h1.26v1h-1.26v2.47c0,.66.2.79.51.79a2.13,2.13,0,0,0,.47,0l.18-.05.06,1-.1,0A2.47,2.47,0,0,1,103.54,43.45Zm-1.9-4.58h.76v2.8a1.67,1.67,0,0,0,.29,1.16,1.1,1.1,0,0,0,.85.32,2.21,2.21,0,0,0,.62-.07l0-.38a1.9,1.9,0,0,1-.37,0c-.81,0-.81-.82-.81-1.09V38.87h1.26V38.5H103V37.15l-.56.15v1.2h-.76Z"/><path class="cls-1" d="M105.79,40.94a1.55,1.55,0,0,0,1.67,1.68,3.18,3.18,0,0,0,1.34-.25L109,43a3.92,3.92,0,0,1-1.61.3A2.25,2.25,0,0,1,105,40.86a2.35,2.35,0,0,1,2.28-2.62,2.05,2.05,0,0,1,2,2.28,3.35,3.35,0,0,1,0,.42Zm2.59-.64a1.25,1.25,0,0,0-1.23-1.43,1.46,1.46,0,0,0-1.35,1.43Z"/><path class="cls-1" d="M107.34,43.45a2.41,2.41,0,0,1-2.54-2.59,2.5,2.5,0,0,1,2.42-2.77,2.19,2.19,0,0,1,2.16,2.44,3.46,3.46,0,0,1,0,.39l0,.17H106a1.39,1.39,0,0,0,1.51,1.38,2.91,2.91,0,0,0,1.28-.24l.16-.07.22.93-.11,0A4.11,4.11,0,0,1,107.34,43.45Zm-.12-5.06a2.21,2.21,0,0,0-2.12,2.47,2.1,2.1,0,0,0,2.24,2.29,3.86,3.86,0,0,0,1.43-.24l-.08-.34a3.28,3.28,0,0,1-1.23.2,1.71,1.71,0,0,1-1.82-1.83v-.15h3.43c0-.08,0-.16,0-.26S109,38.39,107.22,38.39Zm1.3,2.06h-2.89l0-.16a1.6,1.6,0,0,1,1.5-1.57,1.28,1.28,0,0,1,.95.37,1.74,1.74,0,0,1,.43,1.22ZM106,40.16h2.24a1.36,1.36,0,0,0-.33-.86,1,1,0,0,0-.74-.28A1.26,1.26,0,0,0,106,40.16Z"/><path class="cls-1" d="M114.5,38.35c0,.35,0,.74,0,1.33V42.5a2.78,2.78,0,0,1-.69,2.21,2.55,2.55,0,0,1-1.77.59,3.12,3.12,0,0,1-1.61-.4l.22-.68a2.73,2.73,0,0,0,1.42.38c.9,0,1.57-.47,1.57-1.69v-.54h0a1.76,1.76,0,0,1-1.55.81A2.16,2.16,0,0,1,110,40.82a2.33,2.33,0,0,1,2.18-2.58,1.63,1.63,0,0,1,1.52.84h0l0-.73Zm-.91,1.91a1.25,1.25,0,0,0,0-.4,1.28,1.28,0,0,0-1.24-.93c-.84,0-1.44.71-1.44,1.84,0,.95.48,1.74,1.43,1.74a1.31,1.31,0,0,0,1.23-.9,1.53,1.53,0,0,0,.07-.47Z"/><path class="cls-1" d="M112,45.45a3.25,3.25,0,0,1-1.69-.43l-.1-.06.32-1,.16.1a2.6,2.6,0,0,0,1.34.36c.94,0,1.42-.52,1.42-1.55v-.13a2,2,0,0,1-1.42.55,2.32,2.32,0,0,1-2.21-2.51,2.49,2.49,0,0,1,2.33-2.73,1.81,1.81,0,0,1,1.41.58l0-.47h1.07v.16c0,.37,0,.74,0,1.32V42.5a2.93,2.93,0,0,1-.74,2.33A2.75,2.75,0,0,1,112,45.45Zm-1.43-.62a3.18,3.18,0,0,0,1.43.32,2.45,2.45,0,0,0,1.66-.54,2.65,2.65,0,0,0,.65-2.11V39.68c0-.5,0-.86,0-1.18h-.47l0,.73h-.24l-.06-.08a1.45,1.45,0,0,0-1.38-.76,2.17,2.17,0,0,0-2,2.43A2,2,0,0,0,112,43a1.59,1.59,0,0,0,1.42-.74l0-.07h.23l0,.15v.54c0,1.19-.6,1.84-1.71,1.84a3,3,0,0,1-1.34-.31Zm1.72-2.17c-.94,0-1.58-.76-1.58-1.89s.64-2,1.59-2a1.42,1.42,0,0,1,1.38,1,1.38,1.38,0,0,1,0,.44v.88a1.77,1.77,0,0,1-.07.52A1.44,1.44,0,0,1,112.29,42.66Zm0-3.58c-.77,0-1.29.68-1.29,1.69,0,.73.33,1.59,1.28,1.59a1.13,1.13,0,0,0,1.08-.8,1.37,1.37,0,0,0,.07-.42v-.88a1.08,1.08,0,0,0,0-.35A1.12,1.12,0,0,0,112.3,39.08Z"/><path class="cls-1" d="M115.86,39.86c0-.57,0-1.06,0-1.51h.77l0,.95h0A1.45,1.45,0,0,1,118,38.24a1,1,0,0,1,.25,0v.83a1.32,1.32,0,0,0-.3,0,1.23,1.23,0,0,0-1.18,1.13,2.5,2.5,0,0,0,0,.42V43.2h-.87Z"/><path class="cls-1" d="M116.88,43.35h-1.17V39.86c0-.62,0-1.08,0-1.5V38.2h1.07l0,.58a1.46,1.46,0,0,1,1.54-.65l.11,0v1.14l-.18,0a1.18,1.18,0,0,0-.27,0,1.09,1.09,0,0,0-1,1c0,.12,0,.25,0,.39Zm-.88-.3h.58V40.62a2.76,2.76,0,0,1,0-.44A1.39,1.39,0,0,1,118,38.92h.15v-.54H118a1.32,1.32,0,0,0-1.2,1l0,.1h-.29l0-1H116c0,.38,0,.81,0,1.36Z"/><path class="cls-1" d="M121.77,43.2l-.07-.61h0a1.81,1.81,0,0,1-1.49.72,1.38,1.38,0,0,1-1.48-1.39c0-1.17,1-1.82,2.92-1.81V40a1,1,0,0,0-1.11-1.12,2.41,2.41,0,0,0-1.26.36l-.2-.58a3,3,0,0,1,1.59-.43c1.49,0,1.85,1,1.85,2V42a6.81,6.81,0,0,0,.08,1.16Zm-.13-2.47c-1,0-2.06.15-2.06,1.09a.78.78,0,0,0,.83.84,1.21,1.21,0,0,0,1.18-.81.92.92,0,0,0,0-.28Z"/><path class="cls-1" d="M120.18,43.46a1.54,1.54,0,0,1-1.63-1.54,1.61,1.61,0,0,1,.48-1.2,3.42,3.42,0,0,1,2.44-.75.84.84,0,0,0-1-.93,2.29,2.29,0,0,0-1.18.34l-.16.1-.3-.87.1-.06a3.11,3.11,0,0,1,1.67-.46,1.87,1.87,0,0,1,2,2.13V42a5.7,5.7,0,0,0,.08,1.13l0,.18h-1.12l0-.44A2,2,0,0,1,120.18,43.46Zm1.4-3.2a3.3,3.3,0,0,0-2.34.67,1.34,1.34,0,0,0-.39,1,1.23,1.23,0,0,0,1.33,1.24,1.66,1.66,0,0,0,1.37-.66l0-.06h.21l0,.13.06.48h.49a9.29,9.29,0,0,1,0-1V40.22c0-1.21-.57-1.83-1.7-1.83a2.92,2.92,0,0,0-1.41.35l.1.29a2.67,2.67,0,0,1,1.18-.29A1.14,1.14,0,0,1,121.77,40v.25h-.19Zm-1.17,2.55a.93.93,0,0,1-1-1,1,1,0,0,1,.31-.76,2.67,2.67,0,0,1,1.9-.48h.15v1a1.22,1.22,0,0,1-.06.32A1.37,1.37,0,0,1,120.41,42.81Zm1.08-1.94a2.24,2.24,0,0,0-1.54.4.71.71,0,0,0-.22.55.63.63,0,0,0,.68.69,1.07,1.07,0,0,0,1-.71,1,1,0,0,0,0-.23Z"/><path class="cls-1" d="M123.91,36.08h.88V43.2h-.88Z"/><path class="cls-1" d="M124.94,43.35h-1.18V35.94h1.18Zm-.88-.3h.58V36.23h-.58Z"/><path class="cls-1" d="M126.76,40.94a1.55,1.55,0,0,0,1.67,1.68,3.18,3.18,0,0,0,1.34-.25l.15.63a3.92,3.92,0,0,1-1.61.3,2.25,2.25,0,0,1-2.39-2.44,2.35,2.35,0,0,1,2.28-2.62,2.05,2.05,0,0,1,2,2.28,3.35,3.35,0,0,1,0,.42Zm2.59-.64a1.25,1.25,0,0,0-1.22-1.43,1.46,1.46,0,0,0-1.36,1.43Z"/><path class="cls-1" d="M128.31,43.45a2.41,2.41,0,0,1-2.54-2.59,2.5,2.5,0,0,1,2.43-2.77,2.18,2.18,0,0,1,2.15,2.44,3.46,3.46,0,0,1,0,.39l0,.17h-3.38a1.39,1.39,0,0,0,1.51,1.38,2.91,2.91,0,0,0,1.28-.24l.16-.07.22.93-.11,0A4.11,4.11,0,0,1,128.31,43.45Zm-.11-5.06a2.21,2.21,0,0,0-2.13,2.47,2.1,2.1,0,0,0,2.24,2.29,4,4,0,0,0,1.44-.24l-.09-.34a3.28,3.28,0,0,1-1.23.2,1.71,1.71,0,0,1-1.82-1.83v-.15H130c0-.08,0-.16,0-.26S130,38.39,128.2,38.39Zm1.29,2.06H126.6l0-.16a1.6,1.6,0,0,1,1.51-1.57,1.27,1.27,0,0,1,.94.37,1.74,1.74,0,0,1,.43,1.22ZM127,40.16h2.25a1.43,1.43,0,0,0-.34-.86,1,1,0,0,0-.73-.28A1.26,1.26,0,0,0,127,40.16Z"/><path class="cls-1" d="M131.17,42.3a2.31,2.31,0,0,0,1.16.35c.64,0,.94-.32.94-.72s-.25-.65-.9-.89c-.87-.31-1.28-.8-1.28-1.38a1.49,1.49,0,0,1,1.67-1.42,2.49,2.49,0,0,1,1.2.3l-.23.64a1.88,1.88,0,0,0-1-.28c-.52,0-.81.3-.81.66s.29.58.92.82c.84.33,1.28.75,1.28,1.47s-.67,1.45-1.82,1.45A2.76,2.76,0,0,1,131,43Z"/><path class="cls-1" d="M132.31,43.45a3,3,0,0,1-1.44-.35l-.1-.06.32-1,.16.1a2.09,2.09,0,0,0,1.08.33c.5,0,.79-.21.79-.57s-.12-.5-.8-.75c-1.14-.41-1.38-1-1.38-1.52a1.65,1.65,0,0,1,1.82-1.57,2.6,2.6,0,0,1,1.27.32l.1.06-.32.94-.16-.1a1.67,1.67,0,0,0-.91-.26c-.4,0-.66.2-.66.51s.18.44.83.69c.94.36,1.36.85,1.36,1.6C134.27,42.82,133.5,43.45,132.31,43.45Zm-1.18-.55a2.73,2.73,0,0,0,1.18.25c1,0,1.67-.5,1.67-1.3,0-.62-.34-1-1.18-1.33-.58-.22-1-.43-1-1a.86.86,0,0,1,1-.81,2,2,0,0,1,.91.22l.12-.36a2.34,2.34,0,0,0-1-.22,1.35,1.35,0,0,0-1.52,1.27c0,.54.4,1,1.18,1.24.62.22,1,.48,1,1s-.28.87-1.09.87a2.53,2.53,0,0,1-1.08-.28Z"/><path class="cls-1" d="M137.41,36.53a10.08,10.08,0,0,1,1.67-.13A2.82,2.82,0,0,1,141,37a1.81,1.81,0,0,1,.59,1.41,2,2,0,0,1-.52,1.44,2.82,2.82,0,0,1-2.07.75,3.65,3.65,0,0,1-.7-.06v2.7h-.87Zm.87,3.25a2.92,2.92,0,0,0,.72.07c1.05,0,1.7-.51,1.7-1.44s-.64-1.32-1.6-1.32a3.65,3.65,0,0,0-.82.07Z"/><path class="cls-1" d="M138.43,43.35h-1.17v-7l.12,0a10.2,10.2,0,0,1,1.7-.13,2.89,2.89,0,0,1,2,.6,1.93,1.93,0,0,1,.65,1.52,2.13,2.13,0,0,1-.57,1.55,2.93,2.93,0,0,1-2.17.78,3.44,3.44,0,0,1-.55,0Zm-.87-.3h.57V40.31l.19,0a2.8,2.8,0,0,0,.66.06,2.64,2.64,0,0,0,2-.7,1.85,1.85,0,0,0,.48-1.34,1.67,1.67,0,0,0-.54-1.3,2.63,2.63,0,0,0-1.8-.53,10.34,10.34,0,0,0-1.52.11ZM139,40a3.16,3.16,0,0,1-.76-.07l-.11,0V37l.11,0a4.38,4.38,0,0,1,.86-.07c1.11,0,1.74.53,1.74,1.47S140.15,40,139,40Zm-.57-.34a3,3,0,0,0,.57,0c1,0,1.55-.45,1.55-1.29,0-1-.91-1.17-1.45-1.17a4.94,4.94,0,0,0-.67,0Z"/><path class="cls-1" d="M145.13,43.2l-.07-.61h0a1.8,1.8,0,0,1-1.48.72,1.39,1.39,0,0,1-1.49-1.39c0-1.17,1.05-1.82,2.92-1.81V40a1,1,0,0,0-1.1-1.12,2.41,2.41,0,0,0-1.26.36l-.21-.58a3.07,3.07,0,0,1,1.6-.43c1.48,0,1.84,1,1.84,2V42a6.81,6.81,0,0,0,.08,1.16ZM145,40.73c-1,0-2.05.15-2.05,1.09a.78.78,0,0,0,.83.84,1.2,1.2,0,0,0,1.17-.81.92.92,0,0,0,.05-.28Z"/><path class="cls-1" d="M143.55,43.46a1.54,1.54,0,0,1-1.63-1.54,1.64,1.64,0,0,1,.47-1.2,3.42,3.42,0,0,1,2.44-.75.84.84,0,0,0-1-.93,2.23,2.23,0,0,0-1.18.34l-.16.1-.3-.87.09-.06a3.17,3.17,0,0,1,1.68-.46,1.86,1.86,0,0,1,2,2.13V42a6.58,6.58,0,0,0,.08,1.13l0,.18H145l-.05-.44A2,2,0,0,1,143.55,43.46Zm1.39-3.2a3.32,3.32,0,0,0-2.34.67,1.34,1.34,0,0,0-.39,1,1.23,1.23,0,0,0,1.34,1.24,1.63,1.63,0,0,0,1.36-.66l0-.06h.21l.05.13,0,.48h.5a7.11,7.11,0,0,1-.06-1V40.22c0-1.21-.57-1.83-1.69-1.83a3,3,0,0,0-1.42.35l.11.29a2.64,2.64,0,0,1,1.18-.29A1.13,1.13,0,0,1,145.13,40v.25h-.19Zm-1.16,2.55a.92.92,0,0,1-1-1,1,1,0,0,1,.3-.76,2.7,2.7,0,0,1,1.9-.48h.15v1a.91.91,0,0,1-.06.32A1.34,1.34,0,0,1,143.78,42.81Zm1.07-1.94a2.26,2.26,0,0,0-1.54.4.75.75,0,0,0-.22.55.64.64,0,0,0,.69.69,1.06,1.06,0,0,0,1-.71.66.66,0,0,0,0-.23Z"/><path class="cls-1" d="M147.27,39.66c0-.5,0-.91,0-1.31H148l.05.8h0a1.81,1.81,0,0,1,1.61-.91c.67,0,1.71.4,1.71,2.06v2.9h-.88V40.4c0-.78-.29-1.43-1.12-1.43a1.29,1.29,0,0,0-1.25,1.31V43.2h-.88Z"/><path class="cls-1" d="M151.55,43.35h-1.18V40.41c0-.59-.17-1.29-1-1.29a1.1,1.1,0,0,0-1,.8.93.93,0,0,0-.06.36v3.07h-1.18V39.66c0-.53,0-.93,0-1.3V38.2h1.08l0,.54a2,2,0,0,1,1.5-.65c.86,0,1.86.58,1.86,2.21Zm-.88-.3h.58V40.3c0-1.82-1.3-1.91-1.56-1.91a1.62,1.62,0,0,0-1.47.83l-.05.08h-.23l0-.14,0-.66h-.48c0,.33,0,.7,0,1.16v3.39H148V40.28a1.56,1.56,0,0,1,.06-.46,1.41,1.41,0,0,1,1.33-1c.81,0,1.27.58,1.27,1.59Z"/><path class="cls-1" d="M155.52,43.2l-.07-.61h0a1.82,1.82,0,0,1-1.49.72,1.38,1.38,0,0,1-1.48-1.39c0-1.17,1-1.82,2.92-1.81V40a1,1,0,0,0-1.11-1.12,2.41,2.41,0,0,0-1.26.36l-.2-.58a3,3,0,0,1,1.59-.43c1.49,0,1.85,1,1.85,2V42a6.81,6.81,0,0,0,.08,1.16Zm-.13-2.47c-1,0-2.06.15-2.06,1.09a.78.78,0,0,0,.83.84,1.21,1.21,0,0,0,1.18-.81.92.92,0,0,0,0-.28Z"/><path class="cls-1" d="M153.93,43.46a1.54,1.54,0,0,1-1.63-1.54,1.61,1.61,0,0,1,.48-1.2,3.42,3.42,0,0,1,2.44-.75.84.84,0,0,0-1-.93,2.29,2.29,0,0,0-1.18.34l-.16.1-.3-.87.1-.06a3.11,3.11,0,0,1,1.67-.46,1.87,1.87,0,0,1,2,2.13V42a5.7,5.7,0,0,0,.08,1.13l0,.18h-1.12l0-.44A2,2,0,0,1,153.93,43.46Zm1.39-3.2a3.29,3.29,0,0,0-2.33.67,1.34,1.34,0,0,0-.39,1,1.23,1.23,0,0,0,1.33,1.24,1.66,1.66,0,0,0,1.37-.66l0-.06h.21l0,.13.06.48h.49a9.29,9.29,0,0,1,0-1V40.22c0-1.21-.57-1.83-1.7-1.83a2.92,2.92,0,0,0-1.41.35l.1.29a2.67,2.67,0,0,1,1.18-.29A1.14,1.14,0,0,1,155.52,40v.25h-.2Zm-1.16,2.55a.93.93,0,0,1-1-1,1,1,0,0,1,.31-.76,2.68,2.68,0,0,1,1.9-.48h.15v1a1.22,1.22,0,0,1-.06.32A1.37,1.37,0,0,1,154.16,42.81Zm1.08-1.94a2.23,2.23,0,0,0-1.54.4.71.71,0,0,0-.22.55.63.63,0,0,0,.68.69,1.07,1.07,0,0,0,1-.71,1,1,0,0,0,0-.23Z"/><path class="cls-1" d="M157.66,39.66c0-.5,0-.91,0-1.31h.77l0,.78h0a1.67,1.67,0,0,1,1.52-.89,1.44,1.44,0,0,1,1.38,1h0a2,2,0,0,1,.54-.63,1.65,1.65,0,0,1,1.07-.34c.64,0,1.59.42,1.59,2.1V43.2h-.86V40.45c0-.93-.34-1.49-1.05-1.49a1.14,1.14,0,0,0-1,.8,1.45,1.45,0,0,0-.07.44v3h-.87V40.29c0-.77-.34-1.33-1-1.33a1.31,1.31,0,0,0-1.16,1.31V43.2h-.86Z"/><path class="cls-1" d="M164.73,43.35h-1.16v-2.9c0-.89-.3-1.34-.9-1.34a1,1,0,0,0-.9.7,1.27,1.27,0,0,0-.06.39v3.15h-1.16V40.29c0-.27-.07-1.18-.87-1.18a1.06,1.06,0,0,0-1,.78,1.12,1.12,0,0,0-.06.38v3.08h-1.16V39.66c0-.53,0-.93,0-1.3V38.2h1.07l0,.53a1.8,1.8,0,0,1,1.42-.64,1.59,1.59,0,0,1,1.41.83,1.75,1.75,0,0,1,.44-.46,1.81,1.81,0,0,1,1.16-.37c.29,0,1.74.11,1.74,2.26Zm-.86-.3h.56v-2.7c0-1.45-.74-2-1.44-2a1.48,1.48,0,0,0-1,.31,1.88,1.88,0,0,0-.5.58l0,.08h-.19l-.05-.1a1.3,1.3,0,0,0-1.24-.87,1.51,1.51,0,0,0-1.39.82l-.05.07h-.22l0-.14,0-.64h-.47c0,.33,0,.7,0,1.16v3.39h.56V40.27a1.42,1.42,0,0,1,.08-.48,1.35,1.35,0,0,1,1.23-1c.72,0,1.16.57,1.16,1.48v2.76h.57V40.2a1.85,1.85,0,0,1,.07-.48,1.31,1.31,0,0,1,1.19-.91c.45,0,1.2.22,1.2,1.64Z"/><path class="cls-1" d="M168.7,43.2l-.07-.61h0a1.82,1.82,0,0,1-1.49.72,1.38,1.38,0,0,1-1.48-1.39c0-1.17,1-1.82,2.92-1.81V40a1,1,0,0,0-1.11-1.12,2.41,2.41,0,0,0-1.26.36l-.2-.58a3,3,0,0,1,1.59-.43c1.49,0,1.85,1,1.85,2V42a6.81,6.81,0,0,0,.08,1.16Zm-.13-2.47c-1,0-2.06.15-2.06,1.09a.78.78,0,0,0,.83.84,1.22,1.22,0,0,0,1.18-.81.92.92,0,0,0,0-.28Zm.44-4.47-1.23,1.43h-.63l.88-1.43Z"/><path class="cls-1" d="M167.11,43.46a1.54,1.54,0,0,1-1.63-1.54,1.61,1.61,0,0,1,.48-1.2A3.42,3.42,0,0,1,168.4,40a.84.84,0,0,0-1-.93,2.29,2.29,0,0,0-1.18.34l-.16.1-.3-.87.1-.06a3.11,3.11,0,0,1,1.67-.46,1.87,1.87,0,0,1,2,2.13V42a6.76,6.76,0,0,0,.07,1.13l0,.18h-1.12l-.05-.44A2,2,0,0,1,167.11,43.46Zm1.39-3.2a3.29,3.29,0,0,0-2.33.67,1.34,1.34,0,0,0-.39,1,1.23,1.23,0,0,0,1.33,1.24,1.63,1.63,0,0,0,1.36-.66l.05-.06h.21l0,.13.06.48h.49a9.29,9.29,0,0,1,0-1V40.22c0-1.21-.57-1.83-1.7-1.83a2.92,2.92,0,0,0-1.41.35l.1.29a2.67,2.67,0,0,1,1.18-.29A1.13,1.13,0,0,1,168.69,40v.25h-.19Zm-1.16,2.55a.93.93,0,0,1-1-1,1,1,0,0,1,.31-.76,2.65,2.65,0,0,1,1.9-.48h.14v1a1.26,1.26,0,0,1-.05.32A1.37,1.37,0,0,1,167.34,42.81Zm1.08-1.94a2.23,2.23,0,0,0-1.54.4.71.71,0,0,0-.22.55.63.63,0,0,0,.68.69,1.06,1.06,0,0,0,1-.71.68.68,0,0,0,0-.23Zm-.57-3h-1L168,36.11h1.38Zm-.43-.3h.3l1-1.14h-.56Z"/></g></g></svg>