<svg xmlns="http://www.w3.org/2000/svg" viewBox="0 0 385.75 42.65"><defs><style>.cls-1{fill:#ff5851;}.cls-2{fill:#1c232a;}</style></defs><title>Recurso 15</title><g id="Capa_2" data-name="Capa 2"><g id="Capa_1-2" data-name="Capa 1"><path class="cls-1" d="M.65,38.61A1.56,1.56,0,0,1,.13,37.5a1.41,1.41,0,0,1,1.39-1.39,1.63,1.63,0,0,1,.93.29,16.61,16.61,0,0,0,9.88,3.37c4,0,7.15-2.21,7.15-5.64V34c0-3.49-3.72-4.77-7.85-5.93C6.81,26.69,1.46,25.24,1.46,20v-.11c0-4.77,4-8.2,9.76-8.2a20.14,20.14,0,0,1,9.59,2.68,1.53,1.53,0,0,1,.76,1.28A1.41,1.41,0,0,1,20.18,17a1.57,1.57,0,0,1-.82-.23,16.41,16.41,0,0,0-8.25-2.44c-4.07,0-6.74,2.21-6.74,5.17v.12c0,3.31,4,4.53,8.25,5.75,4.77,1.33,9.76,3.08,9.76,8.31v.12c0,5.28-4.53,8.65-10.23,8.65A20.41,20.41,0,0,1,.65,38.61Z"/><path class="cls-1" d="M12.15,42.57A20.54,20.54,0,0,1,.58,38.71,1.63,1.63,0,0,1,0,37.5,1.55,1.55,0,0,1,1.52,36a1.68,1.68,0,0,1,1,.32,16.47,16.47,0,0,0,9.81,3.35c4.13,0,7-2.27,7-5.52V34c0-3.35-3.51-4.61-7.75-5.81l-.25-.07c-4.69-1.36-10-2.89-10-8.19v-.11c0-4.9,4.06-8.32,9.88-8.32a20.51,20.51,0,0,1,9.66,2.69,1.67,1.67,0,0,1,.81,1.39,1.53,1.53,0,0,1-1.51,1.51,1.62,1.62,0,0,1-.89-.25,16.3,16.3,0,0,0-8.18-2.42c-3.9,0-6.62,2.08-6.62,5v.12c0,3.28,4.15,4.48,8.16,5.63,5,1.4,9.86,3.2,9.86,8.43v.12C22.51,38.87,18.15,42.57,12.15,42.57ZM1.52,36.24A1.28,1.28,0,0,0,.25,37.5a1.43,1.43,0,0,0,.48,1h0a20.3,20.3,0,0,0,11.42,3.81c6,0,10.11-3.51,10.11-8.53v-.12c0-5.06-4.78-6.82-9.67-8.19-4.11-1.18-8.35-2.4-8.35-5.87v-.12c0-3.12,2.83-5.3,6.87-5.3a16.48,16.48,0,0,1,8.31,2.46,1.46,1.46,0,0,0,.76.21,1.28,1.28,0,0,0,1.26-1.26,1.42,1.42,0,0,0-.7-1.18,20.12,20.12,0,0,0-9.52-2.65c-5.67,0-9.63,3.32-9.63,8.07V20c0,5.11,5,6.55,9.83,8l.25.07C16,29.19,19.6,30.49,19.6,34v.11c0,3.4-3,5.77-7.27,5.77a16.62,16.62,0,0,1-9.95-3.4A1.53,1.53,0,0,0,1.52,36.24Z"/><path class="cls-2" d="M45.94,42.19c-7.64,1.45-15.4-3.4-17.12-12.47l0-.11c-1.59-8.44,3.06-16.29,10.93-17.77C47.88,10.3,54.34,16,55.91,24.36a1.43,1.43,0,0,1-1.12,1.57L32,30.25c1.88,7.14,7.87,10.37,13.57,9.3,4.16-.79,6.27-3,8.17-5.77a1.26,1.26,0,0,1,.84-.57,1.36,1.36,0,0,1,1.61,1,1.34,1.34,0,0,1-.27,1.05C53.6,38.7,51.19,41.2,45.94,42.19Zm6.73-18.45c-1.51-5.8-5.9-10.58-12.57-9.32-5.76,1.09-9.29,6.78-8.58,13.32Z"/><path class="cls-2" d="M62.19,13.53a1.42,1.42,0,1,1,2.84,0v4.29A11.66,11.66,0,0,1,75.7,11.51c7.49,0,11.84,5.21,11.84,12.28V41.14a1.36,1.36,0,0,1-1.39,1.45,1.4,1.4,0,0,1-1.45-1.45V24.32c0-6.1-3.43-10.19-9.4-10.19C69.5,14.13,65,18.63,65,24.78V41.14a1.36,1.36,0,0,1-1.39,1.45,1.4,1.4,0,0,1-1.45-1.45Z"/><path class="cls-2" d="M93.52,27.22V27.1c0-8.3,6.51-15.59,15-15.59a15.51,15.51,0,0,1,11.14,4.7,1.56,1.56,0,0,1,.41,1,1.48,1.48,0,0,1-2.44,1.1c-2.38-2.26-5.16-4.17-9.16-4.17-6.73,0-11.85,5.73-11.85,12.8v.12c0,7.14,5.39,12.82,12.18,12.82a13.08,13.08,0,0,0,9.28-4.23,1.3,1.3,0,0,1,.93-.47,1.49,1.49,0,0,1,1.39,1.39,1.28,1.28,0,0,1-.34.87c-3,3-6.39,5.11-11.43,5.11A15.23,15.23,0,0,1,93.52,27.22Z"/><path class="cls-2" d="M126,1.74a1.74,1.74,0,0,1,.5-1.24,1.76,1.76,0,0,1,1.24-.5A1.82,1.82,0,0,1,129,.5a1.69,1.69,0,0,1,.53,1.24v1A1.71,1.71,0,0,1,129,4a1.82,1.82,0,0,1-1.27.5,1.76,1.76,0,0,1-1.24-.5,1.76,1.76,0,0,1-.5-1.24v-1ZM126.37,13a1.54,1.54,0,0,1,.39-1,1.37,1.37,0,0,1,1-.42A1.4,1.4,0,0,1,129.21,13V41.14a1.44,1.44,0,0,1-.39,1,1.32,1.32,0,0,1-1,.4,1.4,1.4,0,0,1-1.45-1.45V13Z"/><path class="cls-2" d="M135.2,1.44A1.38,1.38,0,0,1,136.58,0,1.43,1.43,0,0,1,138,1.44V41.15a1.35,1.35,0,0,1-1.39,1.44,1.39,1.39,0,0,1-1.44-1.44Z"/><path class="cls-2" d="M144,1.44A1.38,1.38,0,0,1,145.4,0a1.42,1.42,0,0,1,1.44,1.44V41.15a1.35,1.35,0,0,1-1.39,1.44A1.4,1.4,0,0,1,144,41.15Z"/><path class="cls-2" d="M152.82,27.22V27.1a15.2,15.2,0,1,1,30.4-.12v.12A15.29,15.29,0,0,1,168,42.59,15.13,15.13,0,0,1,152.82,27.22Zm27.33,0V27.1c0-7.14-5.42-12.9-12.26-12.9-7,0-12,5.82-12,12.78v.12c0,7.14,5.33,12.82,12.18,12.82C175.1,39.92,180.15,34.18,180.15,27.22Z"/><path class="cls-2" d="M216,39.07a2.66,2.66,0,0,1-1.31-2.41,2.77,2.77,0,0,1,2.8-2.81,3,3,0,0,1,1.49.41,16,16,0,0,0,8.71,2.92c3,0,4.69-1.26,4.69-3.27V33.8c0-2.35-3.2-3.15-6.75-4.24-4.47-1.26-9.46-3.1-9.46-8.88v-.12c0-5.72,4.55-9,10.56-9A20.86,20.86,0,0,1,236.19,14a3,3,0,0,1,1.67,2.64,2.46,2.46,0,0,1-2.66,2.6,2.68,2.68,0,0,1-1.37-.35,16.87,16.87,0,0,0-7.32-1.85c-2.69,0-4,1.05-4,2.77v.11c0,2.24,3.27,3.15,6.82,4.3,4.41,1.38,9.39,3.38,9.39,8.82v.12c0,6.36-5,9.4-11.33,9.4A20.27,20.27,0,0,1,216,39.07Z"/><path class="cls-2" d="M248.8,33.74V17.47h-1.14a3,3,0,1,1,0-6h1.14V6.7a3.47,3.47,0,0,1,6.94,0v4.81h5.44a3,3,0,1,1,0,6h-5.44V32.65c0,2.69,1.37,3.78,3.72,3.78a16.7,16.7,0,0,0,1.72-.17,2.93,2.93,0,0,1,2.92,2.87,3,3,0,0,1-1.83,2.69,14.29,14.29,0,0,1-4.81.74C252.36,42.56,248.8,40.38,248.8,33.74Z"/><path class="cls-2" d="M297.41,39a3.5,3.5,0,1,1-7,0V37.41A10.79,10.79,0,0,1,281,42.59c-6.82,0-10.77-4.44-10.77-11.49V15a3.47,3.47,0,1,1,6.93,0V29c0,4.7,2.35,7.34,6.47,7.34s6.82-2.75,6.82-7.45V15a3.5,3.5,0,1,1,7,0Z"/><path class="cls-2" d="M334.61,39A3.66,3.66,0,0,1,331,42.54,3.43,3.43,0,0,1,327.68,39V37.06a12,12,0,0,1-10.32,5.52c-7.1,0-14-5.52-14-15.54v-.12c0-10,6.82-15.41,14-15.41a12.2,12.2,0,0,1,10.32,5V3.44a3.47,3.47,0,0,1,6.93,0Zm-24.29-12V27c0,5.84,4,9.68,8.71,9.68s8.76-3.9,8.76-9.68v-.12c0-5.84-4.12-9.68-8.76-9.68S310.32,20.91,310.32,26.92Z"/><path class="cls-2" d="M340.07,3.38C340.07,1.32,341.79,0,344,0s4,1.32,4,3.38v.34c0,2.07-1.72,3.44-4,3.44s-3.95-1.37-3.95-3.44ZM340.58,15a3.43,3.43,0,0,1,3.44-3.5,3.48,3.48,0,0,1,3.5,3.5V39.15a3.47,3.47,0,0,1-6.94,0Z"/><path class="cls-2" d="M353.5,27.15V27c0-8.65,6.88-15.53,16.16-15.53s16.09,6.76,16.09,15.41V27c0,8.59-7,15.61-16.35,15.61S353.5,35.75,353.5,27.15Zm25.32,0V27c0-5.33-3.84-9.74-9.28-9.74s-9.11,4.35-9.11,9.62V27c0,5.27,3.69,9.53,9.08,9.53A9.07,9.07,0,0,0,378.82,27.15Z"/><circle class="cls-1" cx="198.93" cy="25.62" r="3.74"/></g></g></svg>