<svg xmlns="http://www.w3.org/2000/svg" width="52.944" height="39.708" viewBox="0 0 52.944 39.708">
  <path id="envelope" d="M0,8.618A6.618,6.618,0,0,1,6.618,2H46.326a6.618,6.618,0,0,1,6.618,6.618V35.09a6.618,6.618,0,0,1-6.618,6.618H6.618A6.618,6.618,0,0,1,0,35.09ZM6.618,5.309A3.309,3.309,0,0,0,3.309,8.618v.718l23.163,13.9,23.163-13.9V8.618a3.309,3.309,0,0,0-3.309-3.309Zm43.017,7.885L33.891,22.641l15.744,9.517V13.2Zm-.112,22.759L30.678,24.567l-4.206,2.525-4.209-2.525L3.421,35.95a3.309,3.309,0,0,0,3.2,2.449H46.326A3.309,3.309,0,0,0,49.522,35.953Zm-46.213-3.8,15.744-9.517L3.309,13.194v18.96Z" transform="translate(0 -2)" fill="#f9af1f"/>
</svg>
