<svg xmlns="http://www.w3.org/2000/svg" width="53.115" height="53.115" viewBox="0 0 53.115 53.115">
  <path id="telephone" d="M12.131,4.409A2.251,2.251,0,0,0,8.761,4.2L5.329,7.636a5.7,5.7,0,0,0-1.494,5.876A58.319,58.319,0,0,0,17.671,35.447,58.322,58.322,0,0,0,39.607,49.283a5.7,5.7,0,0,0,5.876-1.494l3.432-3.432a2.251,2.251,0,0,0-.209-3.369l-7.658-5.955a2.251,2.251,0,0,0-1.925-.4l-7.27,1.816a5.793,5.793,0,0,1-5.5-1.524L18.2,26.763a5.793,5.793,0,0,1-1.527-5.5l1.819-7.27a2.251,2.251,0,0,0-.4-1.925ZM6.255,1.7a5.793,5.793,0,0,1,8.671.541l5.955,7.655a5.791,5.791,0,0,1,1.046,4.959l-1.816,7.27a2.251,2.251,0,0,0,.591,2.135l8.156,8.156A2.251,2.251,0,0,0,31,33l7.267-1.816a5.793,5.793,0,0,1,4.959,1.046l7.655,5.955a5.791,5.791,0,0,1,.541,8.667l-3.432,3.432a9.218,9.218,0,0,1-9.55,2.33,61.857,61.857,0,0,1-23.27-14.673A61.857,61.857,0,0,1,.492,14.68a9.228,9.228,0,0,1,2.334-9.55L6.259,1.7Z" transform="translate(0 0)" fill="#f9af1f"/>
</svg>
