<?xml version="1.0" encoding="utf-8"?>
<!-- Generator: Adobe Illustrator 22.0.0, SVG Export Plug-In . SVG Version: 6.00 Build 0)  -->
<svg version="1.1" id="Capa_1" xmlns="http://www.w3.org/2000/svg" xmlns:xlink="http://www.w3.org/1999/xlink" x="0px" y="0px"
	 viewBox="0 0 185.7 61.2" style="enable-background:new 0 0 185.7 61.2;" xml:space="preserve">
<style type="text/css">
	.st0{fill:#2D2D2D;}
	.st1{fill:#383838;}
	.st2{fill:#1E1E1E;}
	.st3{fill:#F9AF1F;}
	.st4{fill:#E5951E;}
</style>
<title>Recurso 12</title>
<polygon class="st0" points="27.2,52.8 52.2,38.3 52.1,46.7 27.2,61.2 "/>
<polygon class="st1" points="0,37.1 25,22.6 52.2,38.3 27.2,52.8 "/>
<polygon class="st2" points="27.2,52.8 27.2,61.2 0,45.5 0,37.1 "/>
<polygon class="st3" points="25,11.3 0,25.8 27.2,41.5 27.2,49.9 52.1,35.4 52.2,27 "/>
<polygon class="st4" points="27.2,41.5 27.2,49.9 0,34.2 0,25.8 "/>
<polygon class="st0" points="27.2,30.2 52.2,15.7 52.1,24.1 27.2,38.6 "/>
<polygon class="st1" points="0,14.5 25,0 52.2,15.7 27.2,30.2 "/>
<polygon class="st2" points="27.2,30.2 27.2,38.6 0,22.9 0,14.5 "/>
<path class="st2" d="M131.2,16.7h5.5c2.1-0.1,4.3,0.1,6.4,0.4c1.5,0.4,2.9,1.2,3.9,2.4c1,1.3,1.6,2.9,1.5,4.5
	c0.1,1.6-0.5,3.2-1.5,4.5c-1,1.2-2.4,2.1-4,2.4c-2.3,0.4-4.7,0.5-7,0.5h-2v13.8h-2.8L131.2,16.7z M133.9,19.4v9.3l4.6,0
	c1.4,0.1,2.8-0.1,4.1-0.5c0.8-0.3,1.6-0.9,2.1-1.7c1-1.5,1-3.5,0-5.1c-0.5-0.7-1.2-1.3-2-1.6c-1.3-0.4-2.6-0.5-4-0.5H133.9z"/>
<path class="st2" d="M135.1,46.4h-5V15.5h6.6c2.2-0.1,4.4,0.1,6.6,0.4c1.7,0.4,3.3,1.4,4.4,2.8c1.2,1.5,1.8,3.3,1.7,5.2
	c0.1,1.9-0.5,3.8-1.7,5.3c-1.2,1.4-2.8,2.4-4.6,2.8c-2.4,0.4-4.8,0.6-7.3,0.5h-0.8L135.1,46.4z M132.3,44.1h0.5V30.2h3.1
	c2.2,0.1,4.5-0.1,6.7-0.4c1.3-0.3,2.5-1,3.4-2c0.8-1.1,1.3-2.4,1.2-3.8c0.1-1.4-0.4-2.7-1.2-3.8c-0.8-1-2-1.7-3.2-2
	c-2-0.3-4-0.5-6.1-0.4h-4.3V44.1z M138.6,29.9l-5.8-0.1V18.2h6c1.5-0.1,3,0.1,4.4,0.6c1,0.4,1.9,1.1,2.5,2.1c0.6,0.9,0.9,2,0.9,3.1
	c0,1.1-0.3,2.2-0.9,3.2c-0.6,1-1.5,1.7-2.6,2.1C141.7,29.8,140.1,30,138.6,29.9z M135.1,27.6h3.5c1.2,0.1,2.5-0.1,3.7-0.4
	c0.6-0.2,1.1-0.6,1.5-1.1c0.4-0.6,0.6-1.3,0.6-1.9c0-0.7-0.2-1.3-0.6-1.9c-0.3-0.5-0.8-1-1.4-1.2c-1.2-0.3-2.4-0.5-3.6-0.4h-3.7
	V27.6z"/>
<path class="st2" d="M108.6,16.7h2.7v28.5h-2.7V16.7z"/>
<path class="st2" d="M112.4,46.4h-5V15.6h5V46.4z M109.7,44h0.5V17.9h-0.5V44z"/>
<path class="st2" d="M170.5,16.7l13.4,28.6h-3L176,35.1h-11.8l-4.8,10.1h-3.1l13.5-28.6H170.5z M170.2,22.5l-4.7,10h9.4L170.2,22.5z
	"/>
<path class="st2" d="M185.7,46.4h-5.5l-4.9-10.1h-10.4l-4.8,10.1h-5.6l14.6-30.9h2.1L185.7,46.4z M181.7,44.1h0.4l-11.9-25.4
	l-12,25.4h0.5l4.7-10.1h13.3L181.7,44.1z M176.7,33.6h-13l6.5-13.8L176.7,33.6z M167.3,31.3h5.7l-2.9-6.1L167.3,31.3z"/>
<path class="st2" d="M71.2,39.6l2.9-1.4c2,3,4.4,4.5,7.1,4.5c1.1,0,2.2-0.2,3.2-0.6c0.9-0.4,1.7-1,2.3-1.7c0.5-0.7,0.8-1.5,0.8-2.3
	c0-1-0.4-2-1.2-2.7c-1.7-1.7-3.7-3.2-5.9-4.4c-1.9-1-3.7-2.3-5.3-3.8c-1.1-1.1-1.8-2.6-1.8-4.2c0-1.2,0.4-2.3,1.1-3.3
	c0.8-1,1.8-1.8,3-2.3c1.3-0.6,2.8-0.9,4.2-0.9c1.6,0,3.1,0.3,4.5,1c1.7,0.8,3.2,2,4.5,3.4l-2.8,1.7c-0.9-1.1-2.1-2-3.3-2.7
	c-0.9-0.4-2-0.7-3-0.6c-1.2-0.1-2.4,0.3-3.4,1c-0.8,0.6-1.3,1.5-1.3,2.5c0,0.6,0.2,1.2,0.5,1.7c0.4,0.7,1,1.3,1.7,1.8
	c0.4,0.3,1.9,1.3,4.4,2.7c2.3,1.2,4.4,2.8,6.1,4.7c1,1.2,1.6,2.6,1.7,4.2c-0.1,2.1-1.1,4-2.8,5.2c-2,1.5-4.4,2.3-6.9,2.2
	c-2,0-3.9-0.4-5.7-1.3C74,43,72.4,41.4,71.2,39.6z"/>
<path class="st2" d="M81.6,46.4c-2.1,0-4.2-0.5-6.1-1.5c-2-1.2-3.7-2.8-5-4.8l-0.7-1l4.7-2.3l0.5,0.7c1.9,2.8,3.9,4.1,6.3,4.1
	c1,0,2-0.2,2.9-0.6c0.7-0.3,1.4-0.8,1.9-1.4c0.4-0.5,0.6-1.1,0.6-1.7c-0.1-0.8-0.4-1.5-0.9-2c-1.7-1.7-3.6-3.1-5.7-4.2
	c-2-1.1-3.9-2.4-5.6-3.9c-1.3-1.3-2.1-3-2.1-4.9c0-1.4,0.4-2.7,1.3-3.9c0.9-1.2,2.1-2.1,3.4-2.6c3.1-1.3,6.5-1.2,9.6,0.1
	c1.8,0.9,3.5,2.2,4.8,3.8l0.8,0.9L87.8,24l-0.5-0.6c-0.9-1-1.9-1.8-3-2.5c-0.8-0.4-1.7-0.6-2.6-0.6c-1,0-2,0.2-2.8,0.8
	c-0.6,0.4-0.9,1-0.9,1.7c0,0.4,0.1,0.9,0.3,1.3c0.4,0.6,0.9,1.1,1.5,1.5c0.3,0.2,1.3,0.9,4.3,2.7c2.4,1.3,4.5,2.9,6.4,4.9
	c1.1,1.3,1.8,3,1.9,4.7c0,2.4-1.2,4.6-3.2,6C86.9,45.6,84.3,46.5,81.6,46.4z M72.7,40c1,1.3,2.2,2.4,3.7,3.2
	c1.6,0.8,3.4,1.2,5.2,1.2c2.3,0.1,4.5-0.6,6.3-2c1.5-1,2.4-2.7,2.4-4.5c-0.1-1.3-0.6-2.5-1.4-3.5c-1.7-1.8-3.7-3.3-5.9-4.5
	c-3.4-2-4.2-2.6-4.5-2.8c-0.8-0.6-1.5-1.3-2-2.1c-0.3-0.7-0.5-1.4-0.5-2.2c0-1.3,0.6-2.5,1.7-3.3c1.2-0.8,2.6-1.3,4-1.2
	c1.2,0,2.3,0.2,3.4,0.8c1.1,0.6,2.1,1.4,3,2.4l1.1-0.7c-1-1-2.1-1.8-3.3-2.4c-2.5-1.1-5.4-1.2-8-0.1c-1,0.4-1.9,1.1-2.6,2
	c-0.6,0.8-0.9,1.7-0.9,2.7c0,1.3,0.6,2.6,1.6,3.5c1.6,1.4,3.3,2.6,5.1,3.6c2.2,1.2,4.3,2.8,6.1,4.6c0.9,0.9,1.4,2.1,1.4,3.3
	c0,1-0.4,2.1-1,2.9c-0.7,0.9-1.6,1.6-2.7,2c-1.1,0.5-2.4,0.7-3.6,0.7c-2.8,0-5.3-1.4-7.4-4.3L72.7,40z"/>
</svg>
