<svg xmlns="http://www.w3.org/2000/svg" viewBox="0 0 78.87 95.98"><defs><style>.cls-1{fill:#2d2d2d;}.cls-2{fill:#383838;}.cls-3{fill:#1e1e1e;}.cls-4{fill:#f9af1f;}.cls-5{fill:#e5951e;}.cls-6{fill:#1d1d1b;}</style></defs><title>SIPA Logo - rg</title><g id="Capa_2" data-name="Capa 2"><g id="Capa_1-2" data-name="Capa 1"><polygon class="cls-1" points="40.38 45.64 61.95 33.1 61.93 40.38 40.36 52.91 40.38 45.64"/><polygon class="cls-2" points="16.87 32.06 38.44 19.53 61.95 33.1 40.38 45.64 16.87 32.06"/><polygon class="cls-3" points="40.38 45.64 40.36 52.91 16.85 39.34 16.87 32.06 40.38 45.64"/><polygon class="cls-4" points="40.38 35.88 61.95 23.35 61.93 30.62 40.36 43.16 40.38 35.88"/><polygon class="cls-4" points="16.87 22.31 38.44 9.77 61.95 23.35 40.38 35.88 16.87 22.31"/><polygon class="cls-5" points="40.38 35.88 40.36 43.16 16.85 29.58 16.87 22.31 40.38 35.88"/><polygon class="cls-1" points="40.38 26.11 61.95 13.58 61.93 20.85 40.36 33.39 40.38 26.11"/><polygon class="cls-2" points="16.87 12.54 38.44 0 61.95 13.58 40.38 26.11 16.87 12.54"/><polygon class="cls-3" points="40.38 26.11 40.36 33.39 16.85 19.81 16.87 12.54 40.38 26.11"/><path class="cls-6" d="M41.77,65.66h3.72a22.24,22.24,0,0,1,4.32.27,4.86,4.86,0,0,1,2.61,1.62,5.22,5.22,0,0,1,0,6.16,4.88,4.88,0,0,1-2.73,1.64,24.54,24.54,0,0,1-4.75.3H43.63v9.42H41.77Zm1.86,1.82v6.34l3.17,0a8.3,8.3,0,0,0,2.8-.35A2.85,2.85,0,0,0,51,72.38a3.11,3.11,0,0,0,.51-1.74A3.07,3.07,0,0,0,51,68.92a2.83,2.83,0,0,0-1.34-1.11,8,8,0,0,0-2.72-.33Z"/><path class="cls-6" d="M44.41,85.85H41v-21h4.5a22.12,22.12,0,0,1,4.51.3,5.52,5.52,0,0,1,3,1.88,5.44,5.44,0,0,1,1.2,3.57,5.52,5.52,0,0,1-1.17,3.58A5.73,5.73,0,0,1,49.9,76.1a24.37,24.37,0,0,1-4.93.33h-.56Zm-1.86-1.56h.31V74.87H45a23.78,23.78,0,0,0,4.57-.28,4.13,4.13,0,0,0,2.31-1.37,4,4,0,0,0,.81-2.59,3.83,3.83,0,0,0-.84-2.58,4,4,0,0,0-2.2-1.36,19.49,19.49,0,0,0-4.13-.26H42.55Zm4.25-9.65-3.94,0V66.71h4.08a8.67,8.67,0,0,1,3,.38,3.54,3.54,0,0,1,1.7,1.41,3.84,3.84,0,0,1,.64,2.14,3.94,3.94,0,0,1-.64,2.17,3.76,3.76,0,0,1-1.76,1.43A8.89,8.89,0,0,1,46.8,74.64Zm-2.39-1.59,2.4,0a7.49,7.49,0,0,0,2.51-.29,2.17,2.17,0,0,0,1-.83,2.34,2.34,0,0,0,.38-1.32,2.27,2.27,0,0,0-.38-1.29,2,2,0,0,0-1-.81,6.89,6.89,0,0,0-2.43-.28H44.41Z"/><path class="cls-6" d="M26.38,65.69h1.87V85H26.38Z"/><path class="cls-6" d="M29,85.85H25.6v-21H29Zm-1.87-1.61h.31V66.49h-.31Z"/><path class="cls-6" d="M68.5,65.66l9.08,19.41h-2l-3.3-6.88H64.21l-3.28,6.88H58.85L68,65.66Zm-.24,4-3.2,6.76h6.39Z"/><path class="cls-6" d="M78.8,85.85H75.07L71.77,79H64.7l-3.28,6.88h-3.8l9.93-21H69Zm-2.75-1.56h.31L68.27,67,60.08,84.29h.36l3.27-6.88h9Zm-3.37-7.12H63.83l4.43-9.37Zm-6.39-1.56h3.93l-2-4.16Z"/><path class="cls-6" d="M1,81.22l2-1c1.39,2.06,3,3.09,4.84,3.09a5.61,5.61,0,0,0,2.2-.44,3.63,3.63,0,0,0,1.57-1.17,2.59,2.59,0,0,0,.54-1.56,2.8,2.8,0,0,0-.79-1.85,17.91,17.91,0,0,0-4-3,19,19,0,0,1-3.63-2.56,4.09,4.09,0,0,1-1.24-2.85A3.68,3.68,0,0,1,3.2,67.7a5,5,0,0,1,2.05-1.58,7.26,7.26,0,0,1,2.88-.57,7.32,7.32,0,0,1,3.09.65,10,10,0,0,1,3,2.41l-1.91,1.15a8.4,8.4,0,0,0-2.24-1.84,4.56,4.56,0,0,0-2-.44,3.67,3.67,0,0,0-2.31.68,2.06,2.06,0,0,0-.9,1.69A2.41,2.41,0,0,0,5.2,71a4.6,4.6,0,0,0,1.16,1.25c.3.23,1.31.86,3,1.86a16.05,16.05,0,0,1,4.16,3.19,4.48,4.48,0,0,1,1.13,2.81,4.41,4.41,0,0,1-1.93,3.53A7.42,7.42,0,0,1,8,85.17a8.26,8.26,0,0,1-3.86-.91A9.28,9.28,0,0,1,1,81.22Z"/><path class="cls-6" d="M8,85.84a8.82,8.82,0,0,1-4.17-1A9.87,9.87,0,0,1,.44,81.6L0,81l3.21-1.54.32.48c1.28,1.88,2.68,2.79,4.29,2.79a5,5,0,0,0,1.94-.38,3.06,3.06,0,0,0,1.29-1,1.89,1.89,0,0,0,.41-1.16,2.11,2.11,0,0,0-.62-1.4A17.6,17.6,0,0,0,7,75.91a19.41,19.41,0,0,1-3.78-2.68,4.77,4.77,0,0,1-1.41-3.3,4.35,4.35,0,0,1,.86-2.62A5.54,5.54,0,0,1,5,65.51a8.23,8.23,0,0,1,6.51.08,10.54,10.54,0,0,1,3.25,2.56l.55.61-3.06,1.86-.37-.4a8,8,0,0,0-2-1.7,4,4,0,0,0-1.73-.37,3.06,3.06,0,0,0-1.9.54,1.39,1.39,0,0,0-.64,1.16,1.85,1.85,0,0,0,.23.86,3.89,3.89,0,0,0,1,1c.18.15.85.59,2.93,1.82a16.28,16.28,0,0,1,4.34,3.34,5.13,5.13,0,0,1,1.28,3.23,5.06,5.06,0,0,1-2.19,4.06A8.09,8.09,0,0,1,8,85.84ZM2,81.47a8,8,0,0,0,2.48,2.2A7.61,7.61,0,0,0,8,84.5a6.74,6.74,0,0,0,4.28-1.36,3.73,3.73,0,0,0,1.67-3,3.86,3.86,0,0,0-1-2.39,15.64,15.64,0,0,0-4-3C6.71,73.35,6.16,73,6,72.81a5.26,5.26,0,0,1-1.34-1.45,3.16,3.16,0,0,1-.4-1.51,2.74,2.74,0,0,1,1.16-2.22,4.34,4.34,0,0,1,2.72-.82,5.31,5.31,0,0,1,2.31.51,8,8,0,0,1,2.06,1.59l.74-.44a8.25,8.25,0,0,0-2.26-1.66,6.85,6.85,0,0,0-5.42-.07A4.16,4.16,0,0,0,3.74,68.1a3,3,0,0,0-.6,1.83,3.46,3.46,0,0,0,1.06,2.4,17.74,17.74,0,0,0,3.49,2.43,18.42,18.42,0,0,1,4.15,3.13,3.44,3.44,0,0,1,1,2.29,3.2,3.2,0,0,1-.67,1.95,4.32,4.32,0,0,1-1.85,1.4A6.14,6.14,0,0,1,7.82,84a6.3,6.3,0,0,1-5.06-2.91Z"/><path class="cls-4" d="M.27,93.71A2.08,2.08,0,0,0,1.34,94c.61,0,1-.33,1-.79s-.25-.68-.87-.92S.22,91.65.22,91a1.33,1.33,0,0,1,1.49-1.26,2,2,0,0,1,1,.23l-.16.49a1.76,1.76,0,0,0-.88-.22c-.63,0-.87.37-.87.69s.28.64.92.89,1.18.68,1.18,1.36-.53,1.33-1.62,1.33a2.33,2.33,0,0,1-1.18-.3Z"/><path class="cls-4" d="M1.3,94.61A2.55,2.55,0,0,1,.06,94.3l-.06,0,.21-.7.11.07a2.06,2.06,0,0,0,1,.28c.53,0,.87-.26.87-.68s-.22-.6-.81-.83C.52,92.09.11,91.65.11,91a1.43,1.43,0,0,1,1.6-1.36,2.11,2.11,0,0,1,1.07.24l.08,0-.23.68-.11,0a1.67,1.67,0,0,0-.83-.21c-.53,0-.77.3-.77.59s.21.55.86.8c.87.33,1.24.77,1.24,1.45S2.57,94.61,1.3,94.61ZM.24,94.17a2.4,2.4,0,0,0,1.06.24c.92,0,1.52-.48,1.52-1.23,0-.59-.33-1-1.12-1.26-.64-.25-1-.48-1-1a.85.85,0,0,1,1-.8,2,2,0,0,1,.82.18l.1-.29a2.11,2.11,0,0,0-.9-.17C.89,89.85.32,90.32.32,91s.36.93,1.15,1.21c.57.22.94.47.94,1s-.42.89-1.07.89a2.25,2.25,0,0,1-1-.25Z"/><path class="cls-4" d="M4.09,92.89A1.06,1.06,0,0,0,5.23,94a2.15,2.15,0,0,0,.92-.17l.1.43a2.62,2.62,0,0,1-1.11.21,1.54,1.54,0,0,1-1.63-1.67,1.61,1.61,0,0,1,1.56-1.79,1.4,1.4,0,0,1,1.37,1.56,1.8,1.8,0,0,1,0,.28Zm1.77-.43a.87.87,0,0,0-.84-1,1,1,0,0,0-.92,1Z"/><path class="cls-4" d="M5.14,94.61a1.64,1.64,0,0,1-1.73-1.77,1.71,1.71,0,0,1,1.66-1.9,1.49,1.49,0,0,1,1.47,1.67,1.87,1.87,0,0,1,0,.27V93H4.19a1,1,0,0,0,1,1,2.18,2.18,0,0,0,.88-.16l.11,0,.15.63-.08,0A2.77,2.77,0,0,1,5.14,94.61Zm-.07-3.46a1.52,1.52,0,0,0-1.46,1.69,1.44,1.44,0,0,0,1.53,1.57,2.52,2.52,0,0,0,1-.17L6.07,94a2.33,2.33,0,0,1-.84.14A1.17,1.17,0,0,1,4,92.89v-.1H6.33c0-.05,0-.11,0-.18S6.3,91.15,5.07,91.15ZM6,92.56H4v-.11a1.1,1.1,0,0,1,1-1.07.85.85,0,0,1,.65.25,1.19,1.19,0,0,1,.29.83Zm-1.75-.2H5.75a.91.91,0,0,0-.23-.59.65.65,0,0,0-.5-.19A.88.88,0,0,0,4.21,92.36Z"/><path class="cls-4" d="M7.19,92.16c0-.39,0-.73,0-1h.53l0,.65h0a1,1,0,0,1,.92-.72.52.52,0,0,1,.18,0v.57a.71.71,0,0,0-.21,0,.84.84,0,0,0-.81.77,2.19,2.19,0,0,0,0,.28v1.77H7.19Z"/><path class="cls-4" d="M7.88,94.54h-.8V92.16c0-.43,0-.75,0-1V91h.74v.4a1,1,0,0,1,1-.45l.08,0v.77l-.13,0a.52.52,0,0,0-.18,0,.74.74,0,0,0-.71.69,2.06,2.06,0,0,0,0,.26Zm-.59-.2h.39V92.67a1.39,1.39,0,0,1,0-.3.94.94,0,0,1,.91-.86h.1v-.37H8.65a.9.9,0,0,0-.82.66l0,.07h-.2l0-.66H7.27c0,.27,0,.56,0,.94Z"/><path class="cls-4" d="M9.83,91.12,10.48,93a8.27,8.27,0,0,1,.27.85h0c.08-.28.17-.55.28-.85l.65-1.87h.63L11,94.44h-.57L9.19,91.12Z"/><path class="cls-4" d="M11.09,94.54h-.71L9,91H9.9L10.58,93c.07.21.13.39.18.56.06-.19.13-.38.2-.56L11.62,91h.86Zm-.57-.2H11l1.23-3.12h-.41L11.15,93c-.1.27-.2.56-.28.84l0,.08h-.16l0-.08a7.61,7.61,0,0,0-.26-.84l-.63-1.8H9.33Z"/><path class="cls-4" d="M13.57,90.19a.37.37,0,0,1-.39.37.36.36,0,0,1-.36-.37.37.37,0,0,1,.38-.38A.37.37,0,0,1,13.57,90.19Zm-.68,4.25V91.12h.61v3.32Z"/><path class="cls-4" d="M13.6,94.54h-.81V91h.81Zm-.6-.2h.4V91.22H13Zm.18-3.68a.45.45,0,0,1-.46-.47.47.47,0,0,1,.48-.48.48.48,0,0,1,.34.81A.47.47,0,0,1,13.18,90.66Zm0-.75a.27.27,0,0,0-.28.28.26.26,0,0,0,.26.27.31.31,0,0,0,.22-.08.26.26,0,0,0,.06-.19h0A.25.25,0,0,0,13.2,89.91Z"/><path class="cls-4" d="M16.86,94.32a2.2,2.2,0,0,1-.95.19,1.57,1.57,0,0,1-1.65-1.69A1.69,1.69,0,0,1,16,91.05a2.08,2.08,0,0,1,.84.17l-.14.47a1.41,1.41,0,0,0-.7-.16,1.15,1.15,0,0,0-1.17,1.26A1.13,1.13,0,0,0,16,94a1.81,1.81,0,0,0,.74-.16Z"/><path class="cls-4" d="M15.91,94.61a1.67,1.67,0,0,1-1.75-1.79A1.79,1.79,0,0,1,16,91a2.16,2.16,0,0,1,.88.18l.08,0-.2.67-.11-.06a1.24,1.24,0,0,0-.65-.14,1.15,1.15,0,0,0,0,2.29,1.54,1.54,0,0,0,.7-.16l.11,0,.15.65-.07,0A2.4,2.4,0,0,1,15.91,94.61ZM16,91.16a1.58,1.58,0,0,0-1.68,1.66,1.48,1.48,0,0,0,1.55,1.59,2.2,2.2,0,0,0,.84-.15L16.69,94a1.79,1.79,0,0,1-.67.12,1.35,1.35,0,0,1,0-2.7,1.65,1.65,0,0,1,.64.12l.08-.27A2.19,2.19,0,0,0,16,91.16Z"/><path class="cls-4" d="M18.24,90.19a.35.35,0,0,1-.38.37.36.36,0,0,1-.37-.37.37.37,0,0,1,.38-.38A.36.36,0,0,1,18.24,90.19Zm-.67,4.25V91.12h.6v3.32Z"/><path class="cls-4" d="M18.27,94.54h-.8V91h.8Zm-.6-.2h.4V91.22h-.4Zm.19-3.68a.46.46,0,0,1-.47-.47.47.47,0,0,1,.48-.48.46.46,0,0,1,.47.48.45.45,0,0,1-.12.33A.51.51,0,0,1,17.86,90.66Zm0-.75a.27.27,0,0,0-.27.28.26.26,0,0,0,.26.27.29.29,0,0,0,.21-.08.26.26,0,0,0,.07-.19h0A.26.26,0,0,0,17.87,89.91Z"/><path class="cls-4" d="M22.18,92.75a1.63,1.63,0,0,1-1.66,1.77,1.58,1.58,0,0,1-1.59-1.71,1.62,1.62,0,0,1,1.65-1.76A1.57,1.57,0,0,1,22.18,92.75Zm-2.64,0c0,.73.42,1.27,1,1.27s1-.54,1-1.29c0-.56-.28-1.27-1-1.27S19.54,92.16,19.54,92.79Z"/><path class="cls-4" d="M20.52,94.62a1.68,1.68,0,0,1-1.69-1.81,1.74,1.74,0,0,1,1.75-1.87,1.69,1.69,0,0,1,1.7,1.81A1.73,1.73,0,0,1,20.52,94.62Zm.06-3.47A1.53,1.53,0,0,0,19,92.81a1.49,1.49,0,0,0,1.49,1.61,1.52,1.52,0,0,0,1.55-1.67A1.46,1.46,0,0,0,20.58,91.15Zm0,3c-.64,0-1.11-.58-1.11-1.38s.35-1.39,1.12-1.39,1.1.71,1.1,1.37A1.25,1.25,0,0,1,20.55,94.17Zm0-2.57c-.63,0-.92.6-.92,1.19S20,94,20.55,94s.91-.5.91-1.19C21.46,92.37,21.27,91.6,20.56,91.6Z"/><path class="cls-4" d="M22.85,93.82a1.58,1.58,0,0,0,.8.24c.44,0,.64-.22.64-.49s-.17-.45-.61-.61c-.6-.21-.88-.54-.88-.94a1,1,0,0,1,1.14-1,1.68,1.68,0,0,1,.82.2l-.15.44a1.31,1.31,0,0,0-.68-.19c-.36,0-.56.2-.56.45s.2.4.64.56.87.51.87,1-.46,1-1.25,1a1.88,1.88,0,0,1-.93-.23Z"/><path class="cls-4" d="M23.63,94.61a2,2,0,0,1-1-.24l-.07,0,.22-.66.11.07a1.47,1.47,0,0,0,.74.22c.34,0,.54-.14.54-.39s-.09-.34-.55-.51c-.78-.28-.94-.72-.94-1a1.13,1.13,0,0,1,1.24-1.08,1.87,1.87,0,0,1,.87.22l.07,0-.22.64-.11-.07a1.11,1.11,0,0,0-.62-.18c-.28,0-.45.14-.45.35s.12.3.56.47c.65.25.94.58.94,1.1S24.45,94.61,23.63,94.61Zm-.8-.38a1.71,1.71,0,0,0,.8.18c.71,0,1.14-.34,1.14-.89s-.23-.69-.8-.91c-.4-.15-.7-.29-.7-.66a.59.59,0,0,1,.66-.55,1.38,1.38,0,0,1,.62.14l.08-.24a1.52,1.52,0,0,0-.69-.15.93.93,0,0,0-1,.87q0,.56.81.84c.42.16.69.33.69.71s-.2.6-.75.6a1.79,1.79,0,0,1-.74-.19Z"/><path class="cls-4" d="M27.72,89.82v4.62h-.6V89.82Z"/><path class="cls-4" d="M27.82,94.54H27V89.72h.8Zm-.6-.2h.4V89.92h-.4Z"/><path class="cls-4" d="M28.81,92c0-.34,0-.62,0-.9h.54l0,.55h0a1.22,1.22,0,0,1,1.1-.62c.46,0,1.17.27,1.17,1.41v2H31V92.53c0-.54-.2-1-.77-1a.86.86,0,0,0-.81.61,1.19,1.19,0,0,0,0,.29v2h-.6Z"/><path class="cls-4" d="M31.74,94.54h-.81v-2c0-.4-.12-.88-.67-.88a.75.75,0,0,0-.71.54,1,1,0,0,0,0,.26v2.09h-.8V92c0-.36,0-.64,0-.89V91h.74l0,.37a1.37,1.37,0,0,1,1-.45c.59,0,1.28.4,1.28,1.52Zm-.61-.2h.4V92.46c0-1.25-.89-1.31-1.07-1.31a1.12,1.12,0,0,0-1,.57l0,0h-.16l0-.09,0-.46h-.33c0,.23,0,.48,0,.8v2.32h.4V92.45a1,1,0,0,1,.05-.32.94.94,0,0,1,.9-.68c.56,0,.87.39.87,1.08Z"/><path class="cls-4" d="M33.31,90.17v1h.87v.46h-.87v1.79c0,.41.12.65.45.65a1.33,1.33,0,0,0,.35,0l0,.45a1.4,1.4,0,0,1-.53.08.84.84,0,0,1-.65-.25,1.21,1.21,0,0,1-.24-.87V91.58h-.51v-.46h.51v-.79Z"/><path class="cls-4" d="M33.61,94.61a.93.93,0,0,1-.73-.29,1.28,1.28,0,0,1-.26-.93V91.68h-.51V91h.51v-.77l.79-.21v1h.87v.66h-.87v1.69c0,.45.14.54.35.54a1.94,1.94,0,0,0,.33,0l.12,0,0,.65-.07,0A1.51,1.51,0,0,1,33.61,94.61Zm-1.3-3.13h.51v1.91a1.15,1.15,0,0,0,.21.8.77.77,0,0,0,.58.22,1.81,1.81,0,0,0,.43,0l0-.26-.26,0c-.55,0-.55-.56-.55-.75V91.48h.86v-.26h-.86V90.3l-.39.1v.82h-.51Z"/><path class="cls-4" d="M35.15,92.89A1.06,1.06,0,0,0,36.29,94a2.15,2.15,0,0,0,.92-.17l.1.43a2.62,2.62,0,0,1-1.11.21,1.54,1.54,0,0,1-1.63-1.67,1.61,1.61,0,0,1,1.56-1.79,1.4,1.4,0,0,1,1.37,1.56,1.8,1.8,0,0,1,0,.28Zm1.77-.43a.87.87,0,0,0-.84-1,1,1,0,0,0-.92,1Z"/><path class="cls-4" d="M36.2,94.61a1.64,1.64,0,0,1-1.73-1.77,1.71,1.71,0,0,1,1.66-1.9,1.49,1.49,0,0,1,1.47,1.67,1.87,1.87,0,0,1,0,.27V93H35.26a1,1,0,0,0,1,1,2.18,2.18,0,0,0,.88-.16l.11,0,.15.63-.08,0A2.77,2.77,0,0,1,36.2,94.61Zm-.07-3.46a1.52,1.52,0,0,0-1.46,1.69,1.44,1.44,0,0,0,1.53,1.57,2.52,2.52,0,0,0,1-.17L37.13,94a2.33,2.33,0,0,1-.84.14,1.17,1.17,0,0,1-1.24-1.26v-.1h2.35c0-.05,0-.11,0-.18S37.36,91.15,36.13,91.15ZM37,92.56H35v-.11a1.1,1.1,0,0,1,1-1.07.85.85,0,0,1,.65.25,1.19,1.19,0,0,1,.29.83Zm-1.75-.2h1.54a.91.91,0,0,0-.23-.59.65.65,0,0,0-.5-.19A.89.89,0,0,0,35.27,92.36Z"/><path class="cls-4" d="M41.11,91.12c0,.24,0,.51,0,.91V94a1.93,1.93,0,0,1-.47,1.52,1.79,1.79,0,0,1-1.21.4,2.15,2.15,0,0,1-1.11-.28l.15-.46a1.87,1.87,0,0,0,1,.26c.62,0,1.07-.32,1.07-1.16v-.37h0a1.17,1.17,0,0,1-1,.56A1.48,1.48,0,0,1,38,92.81a1.58,1.58,0,0,1,1.49-1.76,1.12,1.12,0,0,1,1,.57h0l0-.5Zm-.63,1.31a1.12,1.12,0,0,0,0-.27.88.88,0,0,0-.85-.64c-.57,0-1,.49-1,1.25S39,94,39.6,94a.88.88,0,0,0,.83-.62.89.89,0,0,0,0-.32Z"/><path class="cls-4" d="M39.4,96a2.21,2.21,0,0,1-1.16-.29l-.07,0,.22-.65.11.06a1.69,1.69,0,0,0,.92.25c.64,0,1-.36,1-1.06v-.09a1.35,1.35,0,0,1-1,.38,1.59,1.59,0,0,1-1.52-1.72,1.71,1.71,0,0,1,1.6-1.87,1.24,1.24,0,0,1,1,.4l0-.32h.73v.11c0,.25,0,.51,0,.9V94a2,2,0,0,1-.51,1.59A1.86,1.86,0,0,1,39.4,96Zm-1-.42a2.19,2.19,0,0,0,1,.21,1.66,1.66,0,0,0,1.14-.37A1.82,1.82,0,0,0,41,94V92c0-.34,0-.59,0-.81h-.33l0,.5h-.16l0,0a1,1,0,0,0-1-.52,1.49,1.49,0,0,0-1.39,1.66,1.38,1.38,0,0,0,1.31,1.52,1.11,1.11,0,0,0,1-.51l0,0h.16v.47c0,.82-.42,1.26-1.17,1.26a2,2,0,0,1-.92-.21Zm1.18-1.49c-.65,0-1.09-.52-1.09-1.3s.44-1.35,1.09-1.35a1,1,0,0,1,.94.71.8.8,0,0,1,0,.3V93a1.29,1.29,0,0,1,0,.35A1,1,0,0,1,39.6,94.07Zm0-2.45c-.53,0-.88.47-.88,1.15,0,.51.23,1.1.88,1.1a.8.8,0,0,0,.74-.55,1.27,1.27,0,0,0,0-.29v-.6a.74.74,0,0,0,0-.24A.78.78,0,0,0,39.6,91.62Z"/><path class="cls-4" d="M42,92.16c0-.39,0-.73,0-1h.53l0,.65h0a1,1,0,0,1,.92-.72.52.52,0,0,1,.18,0v.57a.71.71,0,0,0-.21,0,.84.84,0,0,0-.81.77,2.19,2.19,0,0,0,0,.28v1.77H42Z"/><path class="cls-4" d="M42.73,94.54h-.8V92.16c0-.43,0-.75,0-1V91h.74v.4A1,1,0,0,1,43.7,91l.08,0v.77l-.13,0a.5.5,0,0,0-.18,0,.74.74,0,0,0-.71.69,2.06,2.06,0,0,0,0,.26Zm-.59-.2h.39V92.67a1.39,1.39,0,0,1,0-.3.94.94,0,0,1,.91-.86h.1v-.37H43.5a.9.9,0,0,0-.82.66l0,.07h-.2l0-.66h-.32c0,.27,0,.56,0,.94Z"/><path class="cls-4" d="M46.08,94.44,46,94h0a1.23,1.23,0,0,1-1,.5,1,1,0,0,1-1-1c0-.8.72-1.24,2-1.23v-.07a.69.69,0,0,0-.76-.77,1.66,1.66,0,0,0-.86.25l-.14-.4a2.05,2.05,0,0,1,1.09-.29c1,0,1.26.69,1.26,1.35v1.25a4.79,4.79,0,0,0,.06.79ZM46,92.75c-.66,0-1.4.1-1.4.75a.53.53,0,0,0,.56.57.83.83,0,0,0,.81-.55.69.69,0,0,0,0-.2Z"/><path class="cls-4" d="M45,94.62a1.05,1.05,0,0,1-1.12-1.06,1.11,1.11,0,0,1,.33-.82,2.36,2.36,0,0,1,1.67-.51.58.58,0,0,0-.66-.64,1.62,1.62,0,0,0-.81.23l-.1.08-.21-.6.07,0a2.12,2.12,0,0,1,1.14-.32,1.28,1.28,0,0,1,1.37,1.46v1.25a4.05,4.05,0,0,0,0,.77l0,.12H46l0-.29A1.42,1.42,0,0,1,45,94.62Zm1-2.19a2.26,2.26,0,0,0-1.6.46.89.89,0,0,0-.27.67.86.86,0,0,0,.92.86,1.12,1.12,0,0,0,.93-.46l0,0h.14l0,.09,0,.33h.34a6.43,6.43,0,0,1,0-.69V92.4c0-.83-.39-1.25-1.16-1.25a2,2,0,0,0-1,.24l.07.2a1.69,1.69,0,0,1,.8-.2.78.78,0,0,1,.86.87v.17H46Zm-.8,1.74a.63.63,0,0,1-.67-.67.72.72,0,0,1,.21-.53,1.85,1.85,0,0,1,1.3-.32h.1v.67a.73.73,0,0,1,0,.23A.91.91,0,0,1,45.15,94.17Zm.74-1.32a1.55,1.55,0,0,0-1.06.27.54.54,0,0,0-.14.38.43.43,0,0,0,.46.47.73.73,0,0,0,.71-.49.45.45,0,0,0,0-.16Z"/><path class="cls-4" d="M47.55,89.57h.6v4.87h-.6Z"/><path class="cls-4" d="M48.25,94.54h-.81V89.47h.81Zm-.6-.2h.4V89.67h-.4Z"/><path class="cls-4" d="M49.5,92.89A1.06,1.06,0,0,0,50.64,94a2.15,2.15,0,0,0,.92-.17l.1.43a2.61,2.61,0,0,1-1.1.21,1.54,1.54,0,0,1-1.64-1.67,1.61,1.61,0,0,1,1.56-1.79,1.4,1.4,0,0,1,1.37,1.56,1.8,1.8,0,0,1,0,.28Zm1.77-.43a.86.86,0,0,0-.84-1,1,1,0,0,0-.92,1Z"/><path class="cls-4" d="M50.56,94.61a1.64,1.64,0,0,1-1.74-1.77,1.71,1.71,0,0,1,1.66-1.9A1.49,1.49,0,0,1,52,92.61c0,.11,0,.2,0,.27l0,.11H49.61a1,1,0,0,0,1,1,2.18,2.18,0,0,0,.88-.16l.11,0,.15.63-.08,0A2.72,2.72,0,0,1,50.56,94.61Zm-.08-3.46A1.51,1.51,0,0,0,49,92.84a1.43,1.43,0,0,0,1.53,1.57,2.46,2.46,0,0,0,1-.17l0-.23a2.44,2.44,0,0,1-.85.14,1.17,1.17,0,0,1-1.24-1.26v-.1h2.34a1,1,0,0,0,0-.18C51.75,92.46,51.71,91.15,50.48,91.15Zm.89,1.41h-2v-.11a1.1,1.1,0,0,1,1-1.07.85.85,0,0,1,.65.25,1.19,1.19,0,0,1,.29.83Zm-1.74-.2h1.53a.91.91,0,0,0-.23-.59.65.65,0,0,0-.5-.19A.87.87,0,0,0,49.63,92.36Z"/><path class="cls-4" d="M52.51,93.82a1.58,1.58,0,0,0,.8.24c.44,0,.65-.22.65-.49s-.18-.45-.62-.61c-.6-.21-.88-.54-.88-.94a1,1,0,0,1,1.15-1,1.63,1.63,0,0,1,.81.2l-.15.44a1.31,1.31,0,0,0-.68-.19c-.35,0-.55.2-.55.45s.2.4.63.56.87.51.87,1-.45,1-1.24,1a1.89,1.89,0,0,1-.94-.23Z"/><path class="cls-4" d="M53.3,94.61a2,2,0,0,1-1-.24l-.07,0,.22-.66.11.07a1.5,1.5,0,0,0,.74.22c.34,0,.54-.14.54-.39s-.08-.34-.55-.51c-.78-.28-.94-.72-.94-1a1.14,1.14,0,0,1,1.25-1.08,1.83,1.83,0,0,1,.86.22l.07,0-.21.64-.11-.07a1.18,1.18,0,0,0-.63-.18c-.27,0-.45.14-.45.35s.12.3.56.47c.65.25.94.58.94,1.1S54.11,94.61,53.3,94.61Zm-.81-.38a1.73,1.73,0,0,0,.81.18c.7,0,1.14-.34,1.14-.89s-.24-.69-.81-.91c-.39-.15-.7-.29-.7-.66a.59.59,0,0,1,.66-.55,1.38,1.38,0,0,1,.62.14l.09-.24a1.58,1.58,0,0,0-.69-.15.93.93,0,0,0-1,.87q0,.56.81.84c.43.16.69.33.69.71s-.2.6-.75.6a1.79,1.79,0,0,1-.74-.19Z"/><path class="cls-4" d="M56.78,89.87a6.77,6.77,0,0,1,1.15-.09,1.9,1.9,0,0,1,1.3.39,1.25,1.25,0,0,1,.4,1,1.33,1.33,0,0,1-.36,1,1.89,1.89,0,0,1-1.41.51,2.33,2.33,0,0,1-.48,0v1.85h-.6Zm.6,2.23a1.79,1.79,0,0,0,.5.05c.72,0,1.15-.35,1.15-1s-.43-.9-1.09-.9a2.29,2.29,0,0,0-.56,0Z"/><path class="cls-4" d="M57.48,94.54h-.8V89.79l.09,0a7.09,7.09,0,0,1,1.16-.09,2,2,0,0,1,1.36.41,1.34,1.34,0,0,1,.44,1,1.47,1.47,0,0,1-.38,1,2,2,0,0,1-1.49.54,2.48,2.48,0,0,1-.38,0Zm-.59-.2h.39V92.46l.13,0a2.15,2.15,0,0,0,.45,0,1.79,1.79,0,0,0,1.34-.48,1.24,1.24,0,0,0,.33-.91,1.13,1.13,0,0,0-.37-.89,1.81,1.81,0,0,0-1.23-.36,6.8,6.8,0,0,0-1,.07Zm1-2.09a1.86,1.86,0,0,1-.52,0l-.08,0v-2l.08,0a2.17,2.17,0,0,1,.58,0c.76,0,1.2.36,1.2,1S58.66,92.25,57.88,92.25Zm-.4-.23a2.25,2.25,0,0,0,.4,0c.68,0,1-.32,1-.89s-.62-.8-1-.8a2.61,2.61,0,0,0-.46,0Z"/><path class="cls-4" d="M62.07,94.44,62,94h0a1.23,1.23,0,0,1-1,.5,1,1,0,0,1-1-1c0-.8.71-1.24,2-1.23v-.07a.69.69,0,0,0-.76-.77,1.64,1.64,0,0,0-.86.25l-.14-.4a2.05,2.05,0,0,1,1.09-.29c1,0,1.26.69,1.26,1.35v1.25a4.79,4.79,0,0,0,.06.79ZM62,92.75c-.66,0-1.41.1-1.41.75a.53.53,0,0,0,.57.57.83.83,0,0,0,.81-.55.69.69,0,0,0,0-.2Z"/><path class="cls-4" d="M61,94.62a1.05,1.05,0,0,1-1.12-1.06,1.11,1.11,0,0,1,.33-.82,2.35,2.35,0,0,1,1.66-.51.57.57,0,0,0-.65-.64,1.62,1.62,0,0,0-.81.23l-.11.08-.2-.6.07,0a2.12,2.12,0,0,1,1.14-.32,1.28,1.28,0,0,1,1.37,1.46v1.25a4.05,4.05,0,0,0,0,.77l0,.12H62l0-.29A1.37,1.37,0,0,1,61,94.62Zm.95-2.19a2.26,2.26,0,0,0-1.6.46.89.89,0,0,0-.27.67.86.86,0,0,0,.92.86,1.12,1.12,0,0,0,.93-.46l0,0h.14l0,.09,0,.33h.34a4.58,4.58,0,0,1,0-.69V92.4c0-.83-.39-1.25-1.16-1.25a2,2,0,0,0-1,.24l.07.2a1.76,1.76,0,0,1,.81-.2.78.78,0,0,1,.86.87v.17h-.13Zm-.8,1.74a.63.63,0,0,1-.67-.67.72.72,0,0,1,.21-.53,1.84,1.84,0,0,1,1.3-.32h.1v.67a.73.73,0,0,1,0,.23A.92.92,0,0,1,61.14,94.17Zm.74-1.32a1.55,1.55,0,0,0-1.06.27.5.5,0,0,0-.14.38.43.43,0,0,0,.46.47.73.73,0,0,0,.71-.49.45.45,0,0,0,0-.16Z"/><path class="cls-4" d="M63.54,92c0-.34,0-.62,0-.9H64l0,.55h0a1.22,1.22,0,0,1,1.1-.62c.46,0,1.17.27,1.17,1.41v2h-.6V92.53c0-.54-.2-1-.77-1a.87.87,0,0,0-.85.9v2h-.6Z"/><path class="cls-4" d="M66.46,94.54h-.8v-2c0-.4-.12-.88-.67-.88a.74.74,0,0,0-.71.54.68.68,0,0,0,0,.26v2.09h-.81V92c0-.36,0-.64,0-.89V91h.74l0,.37a1.37,1.37,0,0,1,1-.45c.59,0,1.27.4,1.27,1.52Zm-.6-.2h.4V92.46c0-1.25-.89-1.31-1.07-1.31a1.12,1.12,0,0,0-1,.57l0,0H64l0-.09,0-.46h-.33c0,.23,0,.48,0,.8v2.32H64V92.45a1,1,0,0,1,0-.32,1,1,0,0,1,.91-.68c.55,0,.87.39.87,1.08Z"/><path class="cls-4" d="M69.18,94.44,69.13,94h0a1.25,1.25,0,0,1-1,.5,1,1,0,0,1-1-1c0-.8.71-1.24,2-1.23v-.07a.68.68,0,0,0-.75-.77,1.64,1.64,0,0,0-.86.25l-.14-.4a2,2,0,0,1,1.09-.29c1,0,1.26.69,1.26,1.35v1.25a3.9,3.9,0,0,0,.06.79Zm-.09-1.69c-.66,0-1.41.1-1.41.75a.53.53,0,0,0,.57.57.82.82,0,0,0,.8-.55.71.71,0,0,0,0-.2Z"/><path class="cls-4" d="M68.09,94.62A1,1,0,0,1,67,93.56a1.14,1.14,0,0,1,.32-.82A2.39,2.39,0,0,1,69,92.23a.57.57,0,0,0-.65-.64,1.59,1.59,0,0,0-.81.23l-.11.08-.2-.6.06,0a2.15,2.15,0,0,1,1.15-.32,1.27,1.27,0,0,1,1.36,1.46v1.25a3.93,3.93,0,0,0,.06.77l0,.12h-.76l0-.29A1.4,1.4,0,0,1,68.09,94.62Zm1-2.19a2.26,2.26,0,0,0-1.6.46.89.89,0,0,0-.27.67.85.85,0,0,0,.91.86A1.12,1.12,0,0,0,69,94l0,0h.14l0,.09,0,.33h.34a4.58,4.58,0,0,1,0-.69V92.4c0-.83-.39-1.25-1.16-1.25a2,2,0,0,0-1,.24l.07.2a1.73,1.73,0,0,1,.81-.2.78.78,0,0,1,.86.87v.17h-.13Zm-.8,1.74a.62.62,0,0,1-.67-.67.72.72,0,0,1,.21-.53,1.85,1.85,0,0,1,1.3-.32h.1v.67a.73.73,0,0,1,0,.23A.92.92,0,0,1,68.25,94.17ZM69,92.85a1.55,1.55,0,0,0-1.06.27.5.5,0,0,0-.15.38.44.44,0,0,0,.47.47.73.73,0,0,0,.71-.49.45.45,0,0,0,0-.16Z"/><path class="cls-4" d="M70.64,92c0-.34,0-.62,0-.9h.52l0,.54h0a1.15,1.15,0,0,1,1-.61,1,1,0,0,1,.94.66h0a1.31,1.31,0,0,1,.37-.43,1.14,1.14,0,0,1,.73-.23c.44,0,1.09.28,1.09,1.44v2h-.59V92.56c0-.64-.23-1-.72-1a.77.77,0,0,0-.71.55.9.9,0,0,0,0,.3v2h-.59v-2c0-.53-.23-.91-.69-.91a.83.83,0,0,0-.75.6,1,1,0,0,0,0,.3v2h-.59Z"/><path class="cls-4" d="M75.48,94.54h-.79v-2c0-.61-.21-.92-.62-.92a.69.69,0,0,0-.62.48,1.17,1.17,0,0,0,0,.27v2.15h-.79V92.45c0-.19,0-.81-.59-.81a.73.73,0,0,0-.65.53.76.76,0,0,0,0,.27v2.1h-.79V92c0-.36,0-.64,0-.89V91h.73l0,.36a1.22,1.22,0,0,1,1-.44,1.07,1.07,0,0,1,1,.57,1.3,1.3,0,0,1,.31-.31,1.19,1.19,0,0,1,.79-.26c.2,0,1.19.08,1.19,1.55Zm-.59-.2h.39V92.49c0-1-.51-1.34-1-1.34a1,1,0,0,0-.67.21,1.21,1.21,0,0,0-.34.4l0,0h-.13l0-.06a.88.88,0,0,0-.85-.6,1,1,0,0,0-1,.56l0,.05h-.16l0-.1,0-.44h-.33c0,.23,0,.48,0,.8v2.32h.39v-1.9a1,1,0,0,1,.05-.33.93.93,0,0,1,.85-.67c.49,0,.79.39.79,1v1.89h.39v-2a1.2,1.2,0,0,1,.05-.33.89.89,0,0,1,.81-.62c.31,0,.82.14.82,1.12Z"/><path class="cls-4" d="M78.2,94.44l0-.42h0a1.25,1.25,0,0,1-1,.5,1,1,0,0,1-1-1c0-.8.71-1.24,2-1.23v-.07a.68.68,0,0,0-.75-.77,1.64,1.64,0,0,0-.86.25l-.14-.4a2,2,0,0,1,1.09-.29c1,0,1.26.69,1.26,1.35v1.25a3.9,3.9,0,0,0,.06.79Zm-.09-1.69c-.66,0-1.41.1-1.41.75a.53.53,0,0,0,.57.57.82.82,0,0,0,.8-.55.71.71,0,0,0,0-.2Zm.3-3.06-.84,1h-.43l.6-1Z"/><path class="cls-4" d="M77.11,94.62A1,1,0,0,1,76,93.56a1.14,1.14,0,0,1,.32-.82A2.39,2.39,0,0,1,78,92.23a.57.57,0,0,0-.65-.64,1.59,1.59,0,0,0-.81.23l-.11.08-.2-.6.06,0a2.15,2.15,0,0,1,1.15-.32,1.27,1.27,0,0,1,1.36,1.46v1.25a3.93,3.93,0,0,0,.06.77l0,.12h-.76l0-.29A1.4,1.4,0,0,1,77.11,94.62Zm1-2.19a2.26,2.26,0,0,0-1.6.46.89.89,0,0,0-.27.67.85.85,0,0,0,.91.86,1.14,1.14,0,0,0,.94-.46l0,0h.14l0,.09,0,.33h.34a4.58,4.58,0,0,1,0-.69V92.4c0-.83-.39-1.25-1.16-1.25a2,2,0,0,0-1,.24l.07.2a1.73,1.73,0,0,1,.81-.2.78.78,0,0,1,.86.87v.17h-.13Zm-.8,1.74a.62.62,0,0,1-.67-.67.72.72,0,0,1,.21-.53,1.82,1.82,0,0,1,1.3-.32h.1v.67a.73.73,0,0,1,0,.23A.92.92,0,0,1,77.27,94.17ZM78,92.85a1.54,1.54,0,0,0-1.06.27.5.5,0,0,0-.15.38.44.44,0,0,0,.47.47.73.73,0,0,0,.71-.49.9.9,0,0,0,0-.16Zm-.39-2.08H77l.73-1.18h.94Zm-.3-.2h.21l.66-.78H77.8Z"/></g></g></svg>