<?xml version="1.0" encoding="utf-8"?>
<!-- Generator: Adobe Illustrator 22.0.0, SVG Export Plug-In . SVG Version: 6.00 Build 0)  -->
<svg version="1.1" id="Capa_1" xmlns="http://www.w3.org/2000/svg" xmlns:xlink="http://www.w3.org/1999/xlink" x="0px" y="0px"
	 viewBox="0 0 169.7 45.5" style="enable-background:new 0 0 169.7 45.5;" xml:space="preserve">
<style type="text/css">
	.st0{fill:#FFFFFF;}
</style>
<title>SIPA Logo - hz1-mc_main-</title>
<polygon class="st0" points="19.3,37.4 0,26.3 0,32.2 19.3,43.4 36.9,33.1 37,27.1 "/>
<polygon class="st0" points="19.3,29.4 0,18.3 0,24.2 19.3,35.4 36.9,25.1 37,19.1 "/>
<polygon class="st0" points="17.7,0 0,10.3 0,16.2 19.3,27.4 36.9,17.1 37,11.1 "/>
<path class="st0" d="M115.5,1.1h5.4c2.1-0.1,4.2,0.1,6.3,0.4c1.5,0.4,2.8,1.2,3.8,2.4c1,1.3,1.5,2.9,1.5,4.5
	c0.1,1.6-0.4,3.2-1.4,4.5c-1,1.2-2.4,2.1-4,2.4c-2.3,0.4-4.6,0.5-6.9,0.4h-2v13.8h-2.7L115.5,1.1z M118.2,3.8v9.3l4.6,0.1
	c1.4,0.1,2.8-0.1,4.1-0.5c0.9-0.3,1.6-0.9,2.1-1.6c0.5-0.8,0.8-1.6,0.8-2.6c0-0.9-0.2-1.8-0.8-2.5c-0.5-0.7-1.2-1.3-2-1.6
	c-1.3-0.4-2.6-0.6-4-0.5H118.2z"/>
<path class="st0" d="M119.3,30.6h-5V0h6.6c2.2-0.1,4.4,0.1,6.6,0.4c1.7,0.4,3.3,1.4,4.4,2.8c1.2,1.5,1.8,3.3,1.7,5.2
	c0.1,1.9-0.5,3.7-1.7,5.2c-1.2,1.4-2.8,2.4-4.6,2.8c-2.4,0.4-4.8,0.6-7.2,0.5h-0.8L119.3,30.6z M116.6,28.4h0.4V14.6h3.1
	c2.2,0.1,4.5-0.1,6.7-0.4c1.3-0.3,2.5-1,3.4-2c0.8-1.1,1.3-2.4,1.2-3.8c0.1-1.4-0.4-2.7-1.2-3.8c-0.8-1-2-1.7-3.2-2
	c-2-0.3-4-0.5-6-0.4h-4.3L116.6,28.4z M122.8,14.3l-5.8-0.1V2.7h6c1.5-0.1,3,0.1,4.4,0.6c1,0.4,1.9,1.1,2.5,2.1
	c1.2,1.9,1.2,4.4,0,6.3c-0.6,1-1.5,1.7-2.6,2.1C125.9,14.1,124.3,14.3,122.8,14.3z M119.3,12h3.5c1.2,0.1,2.5-0.1,3.7-0.4
	c0.6-0.2,1.1-0.7,1.5-1.2c0.4-0.6,0.6-1.2,0.6-1.9c0-0.7-0.2-1.3-0.6-1.9c-0.3-0.5-0.8-1-1.4-1.2C125.4,5,124.2,4.9,123,5h-3.7
	L119.3,12z"/>
<path class="st0" d="M93,1.2h2.7v28.3H93V1.2z"/>
<path class="st0" d="M96.8,30.6h-5V0h5V30.6z M94.1,28.3h0.4V2.4h-0.4V28.3z"/>
<path class="st0" d="M154.5,1.1l13.3,28.4h-2.9l-4.8-10h-11.8l-4.8,10.1h-3.1l13.4-28.4H154.5z M154.2,6.9l-4.7,9.9h9.3L154.2,6.9z"
	/>
<path class="st0" d="M169.6,30.6h-5.4l-4.8-10H149l-4.8,10h-5.6L153.1,0h2.1L169.6,30.6z M165.6,28.4h0.4L154.2,3.1l-12,25.3h0.5
	l4.8-10h13.2L165.6,28.4z M160.6,18h-12.9l6.5-13.7L160.6,18z M151.3,15.7h5.7l-2.8-6.1L151.3,15.7z"/>
<path class="st0" d="M55.9,23.9l2.9-1.4c2,3,4.4,4.5,7.1,4.5c1.1,0,2.2-0.2,3.2-0.6c0.9-0.3,1.7-0.9,2.3-1.7
	c0.5-0.7,0.8-1.5,0.8-2.3c0-1-0.5-2-1.2-2.7c-1.7-1.7-3.7-3.2-5.8-4.4c-1.9-1-3.7-2.3-5.3-3.7C58.7,10.5,58,9,58,7.4
	c0-1.2,0.4-2.3,1.1-3.3c0.8-1,1.8-1.8,3-2.3C63.4,1.3,64.9,1,66.3,1c1.6,0,3.1,0.3,4.5,1c1.7,0.9,3.2,2.1,4.4,3.5l-2.8,1.6
	c-0.9-1.1-2-2-3.3-2.7c-0.9-0.4-2-0.7-3-0.7c-1.2-0.1-2.4,0.3-3.4,1c-0.8,0.6-1.3,1.5-1.3,2.5c0,0.6,0.2,1.2,0.5,1.7
	c0.4,0.7,1,1.3,1.7,1.8c0.5,0.4,1.9,1.3,4.4,2.7c2.3,1.2,4.3,2.8,6.1,4.7c1,1.1,1.6,2.6,1.7,4.1c-0.1,2.1-1.1,4-2.8,5.2
	c-2,1.5-4.4,2.3-6.8,2.2c-2,0-3.9-0.4-5.6-1.3C58.6,27.2,57,25.7,55.9,23.9z"/>
<path class="st0" d="M66.2,30.6c-2.1,0-4.2-0.5-6.1-1.4c-2-1.2-3.7-2.8-5-4.8l-0.7-0.9l4.7-2.3l0.5,0.7c1.9,2.7,3.9,4.1,6.3,4.1
	c1,0,1.9-0.2,2.8-0.6c0.7-0.3,1.4-0.8,1.9-1.4c0.4-0.5,0.6-1.1,0.6-1.7c0-0.8-0.4-1.5-0.9-2c-1.7-1.6-3.6-3.1-5.6-4.2
	c-2-1.1-3.8-2.4-5.5-3.9c-1.3-1.3-2-3-2.1-4.8c0-1.4,0.4-2.7,1.3-3.8c0.9-1.2,2.1-2.1,3.4-2.6c3-1.3,6.5-1.2,9.5,0.1
	c1.8,0.9,3.4,2.2,4.8,3.8l0.8,0.9l-4.5,2.7l-0.6-0.6c-0.9-1-1.9-1.8-3-2.5C68,5,67.1,4.8,66.2,4.8c-1-0.1-2,0.2-2.8,0.8
	c-0.6,0.4-0.9,1-0.9,1.7c0,0.4,0.1,0.9,0.3,1.3c0.4,0.6,0.9,1.1,1.5,1.5c0.3,0.2,1.3,0.9,4.3,2.7c2.4,1.3,4.6,2.9,6.4,4.9
	c1.2,1.3,1.8,3,1.9,4.7c0,2.4-1.2,4.6-3.2,5.9C71.5,29.9,68.9,30.7,66.2,30.6z M57.4,24.2c1,1.3,2.2,2.4,3.6,3.2
	c1.6,0.8,3.4,1.2,5.2,1.2c2.3,0.1,4.5-0.6,6.3-2c1.5-1,2.4-2.6,2.4-4.4c-0.1-1.3-0.6-2.5-1.4-3.5c-1.7-1.8-3.6-3.3-5.8-4.4
	c-3.4-2-4.2-2.6-4.5-2.8c-0.8-0.6-1.4-1.3-2-2.1c-0.4-0.7-0.6-1.4-0.6-2.2c0-1.3,0.6-2.5,1.7-3.2c1.2-0.8,2.6-1.3,4-1.2
	c1.2,0,2.3,0.2,3.4,0.7c1.1,0.6,2.1,1.4,3,2.3l1.1-0.7c-1-1-2.1-1.8-3.3-2.4c-2.5-1.1-5.4-1.1-7.9-0.1c-1,0.4-1.9,1.1-2.6,2
	C59.3,5.5,59,6.4,59,7.4c0,1.3,0.6,2.6,1.5,3.5c1.6,1.4,3.3,2.6,5.1,3.6c2.2,1.2,4.3,2.8,6.1,4.5c0.9,0.9,1.4,2.1,1.4,3.3
	c0,1-0.4,2-1,2.9c-0.7,0.9-1.6,1.6-2.7,2c-1.1,0.5-2.4,0.7-3.6,0.7c-2.8,0-5.3-1.4-7.4-4.3L57.4,24.2z"/>
<path class="st0" d="M54.8,42.1c0.5,0.3,1,0.4,1.6,0.4c0.9,0,1.4-0.5,1.4-1.2s-0.4-1-1.3-1.3c-1.1-0.4-1.8-1-1.8-1.9
	c0.1-1.1,1-1.9,2-1.8c0,0,0.1,0,0.1,0c0.5,0,1,0.1,1.5,0.3l-0.3,0.7c-0.4-0.2-0.8-0.3-1.3-0.3c-0.9,0-1.3,0.5-1.3,1
	c0,0.6,0.4,0.9,1.3,1.3c1.1,0.4,1.7,1,1.7,2s-0.8,1.9-2.4,1.9c-0.6,0-1.2-0.1-1.7-0.4L54.8,42.1z"/>
<path class="st0" d="M56.3,43.5c-0.6,0-1.3-0.1-1.8-0.5l-0.1-0.1l0.3-1l0.2,0.1c0.5,0.3,1,0.4,1.5,0.4c0.8,0,1.3-0.4,1.3-1
	s-0.3-0.9-1.2-1.2c-1.3-0.5-1.9-1.1-1.9-2c0-1.1,1-2,2.1-2c0.1,0,0.1,0,0.2,0c0.5,0,1.1,0.1,1.6,0.3l0.1,0.1l-0.3,1l-0.2-0.1
	c-0.4-0.2-0.8-0.3-1.2-0.3c-0.8,0-1.1,0.4-1.1,0.9s0.3,0.8,1.3,1.2c1.3,0.5,1.8,1.1,1.8,2.1S58.2,43.5,56.3,43.5z M54.8,42.8
	c0.5,0.2,1,0.4,1.5,0.3c1.3,0,2.2-0.7,2.2-1.8c0-0.9-0.5-1.4-1.6-1.8c-0.9-0.4-1.4-0.7-1.4-1.4c0-0.6,0.4-1.2,1.4-1.2
	c0.4,0,0.8,0.1,1.2,0.3l0.1-0.4c-0.4-0.2-0.9-0.3-1.3-0.3c-1-0.1-1.9,0.6-2,1.6c0,0,0,0.1,0,0.1c0,0.8,0.5,1.4,1.7,1.8
	c0.8,0.3,1.4,0.7,1.4,1.5s-0.6,1.3-1.6,1.3c-0.5,0-1-0.1-1.5-0.4L54.8,42.8z"/>
<path class="st0" d="M60.4,40.9c-0.1,0.9,0.6,1.6,1.4,1.7c0.1,0,0.2,0,0.3,0c0.5,0,0.9-0.1,1.3-0.3l0.2,0.6
	c-0.5,0.2-1.1,0.3-1.6,0.3c-1.2,0.1-2.3-0.9-2.4-2.1c0-0.1,0-0.2,0-0.3c-0.1-1.3,0.8-2.5,2.1-2.6c0.1,0,0.1,0,0.2,0c1.1,0,2,1,2,2.1
	c0,0.1,0,0.1,0,0.2c0,0.1,0,0.3,0,0.4H60.4z M63,40.3c0.1-0.7-0.4-1.3-1.1-1.4c-0.1,0-0.1,0-0.2,0c-0.8,0.1-1.3,0.7-1.4,1.4H63z"/>
<path class="st0" d="M62,43.5c-1.3,0.1-2.5-0.9-2.5-2.3c0-0.1,0-0.2,0-0.3c-0.1-1.4,0.8-2.6,2.2-2.8c0.1,0,0.1,0,0.2,0
	c1.2,0,2.2,1,2.1,2.2c0,0.1,0,0.1,0,0.2c0,0.1,0,0.3,0,0.4v0.2h-3.4c0,0.8,0.6,1.4,1.4,1.4c0,0,0.1,0,0.1,0c0.4,0,0.9-0.1,1.3-0.2
	l0.2-0.1l0.2,0.9h-0.1C63.1,43.3,62.6,43.4,62,43.5z M61.9,38.4c-1.2,0-2.2,1.1-2.1,2.3c0,0.1,0,0.1,0,0.2c-0.1,1.2,0.7,2.2,1.9,2.3
	c0.1,0,0.2,0,0.3,0c0.5,0,1-0.1,1.4-0.2l-0.1-0.3c-0.4,0.1-0.8,0.2-1.2,0.2c-0.9,0.1-1.8-0.7-1.8-1.6c0-0.1,0-0.2,0-0.2v-0.2h3.4
	c0-0.1,0-0.2,0-0.3C63.7,40.3,63.6,38.4,61.9,38.4L61.9,38.4z M63.2,40.5h-2.9v-0.2c0-0.8,0.7-1.5,1.5-1.6c0.4,0,0.7,0.1,1,0.4
	c0.3,0.3,0.4,0.8,0.4,1.2L63.2,40.5z M60.6,40.2h2.3c0-0.3-0.1-0.6-0.3-0.9c-0.2-0.2-0.5-0.3-0.7-0.3C61.2,39,60.7,39.5,60.6,40.2
	L60.6,40.2z"/>
<path class="st0" d="M64.9,39.9c0-0.6,0-1.1,0-1.5h0.8v1l0,0c0.2-0.6,0.7-1,1.3-1.1c0.1,0,0.2,0,0.3,0v0.8c-0.1,0-0.2,0-0.3,0
	c-0.6,0-1.1,0.5-1.2,1.1c0,0.1,0,0.3,0,0.4v2.6h-0.9L64.9,39.9z"/>
<path class="st0" d="M66,43.3h-1.2v-3.5c0-0.6,0-1.1,0-1.5v-0.2h1.1v0.6c0.3-0.5,0.9-0.8,1.5-0.7h0.1v1.1h-0.2c-0.1,0-0.2,0-0.3,0
	c-0.5,0-1,0.5-1,1c0,0.1,0,0.3,0,0.4L66,43.3z M65.1,43h0.6v-2.4c0-0.1,0-0.3,0-0.4c0.1-0.7,0.6-1.2,1.3-1.3h0.2v-0.5h-0.1
	c-0.6,0-1.1,0.4-1.2,1v0.1h-0.3v-1h-0.5c0,0.4,0,0.8,0,1.4L65.1,43z"/>
<path class="st0" d="M68.8,38.3l1,2.7c0.2,0.4,0.3,0.8,0.4,1.2l0,0c0.1-0.4,0.3-0.8,0.4-1.2l0.9-2.7h0.9l-1.9,4.9h-0.8l-1.8-4.8
	L68.8,38.3z"/>
<path class="st0" d="M70.6,43.3h-1l-2-5.2h1.3l1,2.8c0.1,0.3,0.2,0.6,0.3,0.8c0.1-0.3,0.2-0.5,0.3-0.8l1-2.8h1.2L70.6,43.3z
	 M69.8,43h0.6l1.8-4.5h-0.6l-0.9,2.6c-0.1,0.4-0.3,0.8-0.4,1.2v0.1h-0.2v-0.1c-0.1-0.4-0.2-0.8-0.4-1.2l-0.9-2.6h-0.6L69.8,43z"/>
<path class="st0" d="M74.3,37c0,0.3-0.2,0.5-0.6,0.5c-0.3,0-0.5-0.2-0.5-0.5c0-0.3,0.2-0.5,0.5-0.5c0,0,0,0,0,0
	C74,36.4,74.2,36.7,74.3,37C74.3,37,74.3,37,74.3,37z M73.3,43.2v-4.9h0.9v4.9L73.3,43.2z"/>
<path class="st0" d="M74.3,43.3h-1.2v-5.1h1.2V43.3z M73.4,43H74v-4.5h-0.6L73.4,43z M73.7,37.7c-0.4,0-0.7-0.3-0.7-0.7c0,0,0,0,0,0
	c0-0.4,0.3-0.7,0.7-0.7c0,0,0,0,0,0c0.4,0,0.7,0.3,0.7,0.6c0,0,0,0,0,0.1c0,0.2-0.1,0.4-0.2,0.5C74.1,37.6,73.9,37.7,73.7,37.7z
	 M73.7,36.6c-0.2,0-0.4,0.2-0.4,0.4c0,0,0,0,0,0c0,0.2,0.2,0.4,0.4,0.4c0,0,0,0,0,0c0.1,0,0.2,0,0.3-0.1c0.1-0.1,0.1-0.2,0.1-0.3
	l0,0C74.1,36.8,73.9,36.6,73.7,36.6C73.7,36.6,73.7,36.6,73.7,36.6L73.7,36.6z"/>
<path class="st0" d="M79.1,43c-0.4,0.2-0.9,0.3-1.4,0.3c-1.3,0.1-2.3-0.9-2.4-2.2c0-0.1,0-0.2,0-0.3c-0.1-1.4,1-2.5,2.3-2.6
	c0.1,0,0.2,0,0.3,0c0.4,0,0.8,0.1,1.2,0.3l-0.2,0.7c-0.3-0.2-0.7-0.2-1-0.2c-0.9,0-1.7,0.7-1.7,1.6c0,0.1,0,0.1,0,0.2
	c-0.1,0.9,0.6,1.7,1.5,1.8c0.1,0,0.1,0,0.2,0c0.4,0,0.7-0.1,1.1-0.2L79.1,43z"/>
<path class="st0" d="M77.7,43.5c-1.4,0.1-2.5-1-2.6-2.3c0-0.1,0-0.2,0-0.3c-0.1-1.4,1.1-2.7,2.5-2.7c0.1,0,0.2,0,0.2,0
	c0.4,0,0.9,0.1,1.3,0.3l0.1,0l-0.3,1l-0.2-0.1c-0.3-0.1-0.6-0.2-0.9-0.2c-0.9,0.1-1.6,0.9-1.5,1.8c0.1,0.8,0.7,1.5,1.5,1.5
	c0.3,0,0.7-0.1,1-0.2l0.2-0.1l0.2,1h-0.1C78.7,43.4,78.2,43.5,77.7,43.5z M77.9,38.4c-1.3-0.1-2.4,0.9-2.5,2.2c0,0.1,0,0.2,0,0.3
	c-0.1,1.2,0.8,2.2,2,2.3c0.1,0,0.2,0,0.3,0c0.4,0,0.8-0.1,1.2-0.2l-0.1-0.4c-0.3,0.1-0.7,0.2-1,0.2c-1.1,0-2-0.9-2-2s0.9-2,2-2
	c0.3,0,0.6,0.1,0.9,0.2l0.1-0.4C78.5,38.4,78.2,38.4,77.9,38.4z"/>
<path class="st0" d="M81.1,37c0,0.3-0.3,0.5-0.6,0.5c-0.2,0-0.4-0.2-0.5-0.5c0-0.3,0.2-0.5,0.5-0.5c0,0,0,0,0,0
	C80.8,36.4,81.1,36.7,81.1,37C81.1,37,81.1,37,81.1,37z M80.1,43.2v-4.9H81v4.9L80.1,43.2z"/>
<path class="st0" d="M81.1,43.3H80v-5.1h1.2L81.1,43.3z M80.3,43h0.6v-4.5h-0.6V43z M80.5,37.7c-0.4,0-0.7-0.3-0.7-0.7c0,0,0,0,0,0
	c0-0.4,0.3-0.7,0.7-0.7c0,0,0,0,0,0c0.4,0,0.7,0.3,0.7,0.6c0,0,0,0,0,0.1c0,0.2-0.1,0.4-0.2,0.5C80.9,37.6,80.7,37.7,80.5,37.7z
	 M80.5,36.6c-0.2,0-0.4,0.2-0.4,0.4c0,0,0,0,0,0c0,0.2,0.2,0.4,0.4,0.4c0,0,0,0,0,0c0.1,0,0.2,0,0.3-0.1c0.1-0.1,0.1-0.2,0.1-0.3
	l0,0C80.9,36.8,80.8,36.6,80.5,36.6C80.5,36.6,80.5,36.6,80.5,36.6L80.5,36.6z"/>
<path class="st0" d="M86.8,40.7c0.1,1.3-0.9,2.5-2.2,2.6c-0.1,0-0.2,0-0.3,0c-1.3,0-2.3-1-2.3-2.3c0-0.1,0-0.1,0-0.2
	c-0.1-1.3,0.8-2.5,2.2-2.6c0.1,0,0.2,0,0.2,0c1.3,0,2.3,1,2.3,2.3C86.8,40.6,86.8,40.7,86.8,40.7z M83,40.7c0,1.1,0.6,1.9,1.5,1.9
	s1.5-0.8,1.5-1.9c0-0.8-0.4-1.9-1.5-1.9S83,39.9,83,40.7L83,40.7z"/>
<path class="st0" d="M84.4,43.5c-1.4,0-2.4-1.1-2.4-2.5c0-0.1,0-0.1,0-0.2c-0.1-1.4,0.9-2.6,2.3-2.7c0.1,0,0.2,0,0.2,0
	c1.4,0,2.5,1.1,2.5,2.5c0,0.1,0,0.1,0,0.2c0.1,1.4-0.9,2.6-2.3,2.7C84.6,43.5,84.5,43.5,84.4,43.5z M84.5,38.4
	c-1.2,0-2.2,0.9-2.3,2.2c0,0.1,0,0.2,0,0.3c-0.1,1.2,0.8,2.2,2,2.3c0.1,0,0.1,0,0.2,0c1.2,0,2.2-0.9,2.3-2.2c0-0.1,0-0.2,0-0.3
	c0.1-1.2-0.8-2.2-1.9-2.3C84.7,38.4,84.6,38.4,84.5,38.4z M84.5,42.8c-0.9,0-1.6-0.8-1.6-2s0.5-2,1.6-2s1.6,1,1.6,2
	C86.2,41.8,85.5,42.7,84.5,42.8C84.5,42.8,84.5,42.8,84.5,42.8L84.5,42.8z M84.5,39c-0.9,0-1.3,0.9-1.3,1.7s0.6,1.7,1.3,1.7
	s1.3-0.7,1.3-1.7C85.8,40.2,85.5,39,84.5,39L84.5,39z"/>
<path class="st0" d="M87.8,42.3c0.4,0.2,0.8,0.3,1.2,0.3c0.6,0,0.9-0.3,0.9-0.7S89.7,41.3,89,41c-0.9-0.3-1.3-0.8-1.3-1.4
	c0-0.8,0.7-1.5,1.6-1.4c0,0,0.1,0,0.1,0c0.4,0,0.8,0.1,1.2,0.3l-0.2,0.6c-0.3-0.2-0.6-0.3-1-0.3c-0.5,0-0.8,0.3-0.8,0.7
	s0.3,0.6,0.9,0.8c0.8,0.3,1.3,0.8,1.3,1.5s-0.6,1.5-1.8,1.5c-0.5,0-1-0.1-1.4-0.3L87.8,42.3z"/>
<path class="st0" d="M89,43.5c-0.5,0-1-0.1-1.4-0.3L87.5,43l0.3-1l0.2,0.1c0.3,0.2,0.7,0.3,1.1,0.4c0.5,0,0.8-0.2,0.8-0.6
	s-0.1-0.5-0.8-0.8c-1.1-0.4-1.4-1-1.4-1.5c0-0.9,0.8-1.6,1.7-1.6c0,0,0.1,0,0.1,0c0.4,0,0.9,0.1,1.3,0.3l0.1,0.1l-0.3,0.9l-0.2-0.1
	c-0.3-0.2-0.6-0.3-0.9-0.3c-0.4,0-0.7,0.2-0.7,0.5s0.2,0.4,0.8,0.7c1,0.4,1.4,0.8,1.4,1.6C90.9,42.8,90.2,43.5,89,43.5z M87.8,42.9
	c0.4,0.2,0.8,0.3,1.2,0.3c1,0,1.7-0.5,1.7-1.3c0-0.6-0.3-1-1.2-1.3c-0.6-0.2-1-0.4-1-1c0-0.5,0.4-0.8,0.9-0.8c0,0,0.1,0,0.1,0
	c0.3,0,0.6,0.1,0.9,0.2l0.1-0.4c-0.3-0.1-0.7-0.2-1-0.2c-0.7-0.1-1.4,0.4-1.5,1.2c0,0,0,0.1,0,0.1c0,0.5,0.4,1,1.2,1.2
	c0.6,0.2,1,0.5,1,1s-0.3,0.9-1.1,0.9c-0.4,0-0.7-0.1-1.1-0.3L87.8,42.9z"/>
<path class="st0" d="M94.9,36.5v6.8h-0.9v-6.8H94.9z"/>
<path class="st0" d="M95.1,43.3h-1.2v-7h1.2L95.1,43.3z M94.2,43h0.6v-6.5h-0.6V43z"/>
<path class="st0" d="M96.5,39.7c0-0.5,0-0.9,0-1.3h0.8v0.8l0,0c0.3-0.6,0.9-0.9,1.6-0.9c0.7,0,1.7,0.4,1.7,2.1v2.9h-0.9v-2.8
	c0-0.8-0.3-1.4-1.1-1.4c-0.5,0-1,0.4-1.2,0.9c0,0.1-0.1,0.3-0.1,0.4v2.9h-0.9L96.5,39.7z"/>
<path class="st0" d="M100.8,43.3h-1.2v-2.9c0-0.6-0.2-1.3-1-1.3c-0.5,0-0.9,0.3-1,0.8c0,0.1,0,0.2,0,0.4v3.1h-1.3v-3.7
	c0-0.5,0-0.9,0-1.3v-0.2h1.1v0.5c0.4-0.4,0.9-0.7,1.5-0.7c0.9,0,1.9,0.6,1.9,2.2L100.8,43.3z M99.9,43h0.6v-2.8
	c0-1.8-1.3-1.9-1.6-1.9c-0.6,0-1.2,0.3-1.5,0.8v0.1h-0.3v-0.1v-0.7h-0.5c0,0.3,0,0.7,0,1.2v3.4h0.6v-2.8c0-0.2,0-0.3,0.1-0.5
	c0.2-0.6,0.7-1,1.3-1c0.8,0,1.3,0.6,1.3,1.6L99.9,43z"/>
<path class="st0" d="M103.1,37v1.4h1.3V39h-1.3v2.6c0,0.6,0.2,0.9,0.7,0.9c0.2,0,0.3,0,0.5-0.1v0.7c-0.3,0.1-0.5,0.1-0.8,0.1
	c-0.4,0-0.7-0.1-1-0.4c-0.3-0.4-0.4-0.8-0.3-1.3V39h-0.8v-0.7h0.8v-1.1L103.1,37z"/>
<path class="st0" d="M103.5,43.5c-0.4,0-0.8-0.1-1.1-0.4c-0.3-0.4-0.4-0.9-0.4-1.4v-2.5h-0.8v-1h0.8v-1.1l1.2-0.3v1.4h1.3v1h-1.3
	v2.5c0,0.7,0.2,0.8,0.5,0.8c0.2,0,0.3,0,0.5,0l0.2,0l0.1,1h-0.1C104.1,43.5,103.8,43.5,103.5,43.5z M101.6,38.9h0.8v2.8
	c0,0.4,0.1,0.8,0.3,1.2c0.2,0.2,0.5,0.3,0.8,0.3c0.2,0,0.4,0,0.6-0.1v-0.4c-0.1,0-0.2,0-0.4,0c-0.8,0-0.8-0.8-0.8-1.1v-2.7h1.3v-0.4
	H103v-1.3l-0.6,0.2v1.2h-0.8L101.6,38.9z"/>
<path class="st0" d="M105.8,40.9c-0.1,0.9,0.6,1.6,1.4,1.7c0.1,0,0.2,0,0.3,0c0.5,0,0.9-0.1,1.3-0.3L109,43
	c-0.5,0.2-1.1,0.3-1.6,0.3c-1.2,0.1-2.3-0.9-2.4-2.1c0-0.1,0-0.2,0-0.3c-0.1-1.3,0.8-2.5,2.1-2.6c0.1,0,0.1,0,0.2,0c1.1,0,2,1,2,2.1
	c0,0.1,0,0.1,0,0.2c0,0.1,0,0.3,0,0.4H105.8z M108.4,40.3c0.1-0.7-0.4-1.3-1.1-1.4c-0.1,0-0.1,0-0.2,0c-0.8,0.1-1.3,0.7-1.3,1.4
	H108.4z"/>
<path class="st0" d="M107.3,43.5c-1.3,0.1-2.5-0.9-2.5-2.3c0-0.1,0-0.2,0-0.3c-0.1-1.4,0.8-2.6,2.2-2.8c0.1,0,0.1,0,0.2,0
	c1.2,0,2.2,1,2.2,2.2c0,0.1,0,0.2,0,0.2c0,0.1,0,0.3,0,0.4v0.2H106c0,0.8,0.6,1.4,1.4,1.4c0,0,0.1,0,0.1,0c0.4,0,0.9-0.1,1.3-0.2
	l0.2-0.1l0.2,0.9h-0.1C108.5,43.3,107.9,43.5,107.3,43.5z M107.2,38.4c-1.2,0-2.2,1.1-2.1,2.3c0,0.1,0,0.1,0,0.2
	c-0.1,1.2,0.7,2.2,1.9,2.3c0.1,0,0.2,0,0.3,0c0.5,0,1-0.1,1.4-0.2l-0.1-0.3c-0.4,0.1-0.8,0.2-1.2,0.2c-0.9,0.1-1.8-0.6-1.8-1.6
	c0-0.1,0-0.2,0-0.2v-0.2h3.4c0-0.1,0-0.2,0-0.3S109,38.4,107.2,38.4z M108.5,40.5h-2.9v-0.2c0-0.8,0.7-1.5,1.5-1.6
	c0.4,0,0.7,0.1,0.9,0.4c0.3,0.3,0.4,0.8,0.4,1.2L108.5,40.5z M106,40.2h2.2c0-0.3-0.1-0.6-0.3-0.9c-0.2-0.2-0.5-0.3-0.7-0.3
	C106.6,39.1,106.1,39.5,106,40.2z"/>
<path class="st0" d="M114.5,38.3c0,0.3,0,0.7,0,1.3v2.8c0.1,0.8-0.1,1.6-0.7,2.2c-0.5,0.4-1.1,0.6-1.8,0.6c-0.6,0-1.1-0.1-1.6-0.4
	l0.2-0.7c0.4,0.3,0.9,0.4,1.4,0.4c0.9,0,1.6-0.5,1.6-1.7v-0.5l0,0c-0.3,0.5-0.9,0.8-1.6,0.8c-1.2,0-2.1-1-2.1-2.2c0,0,0-0.1,0-0.1
	c-0.1-1.3,0.8-2.4,2.1-2.6c0,0,0.1,0,0.1,0c0.6,0,1.2,0.3,1.5,0.8l0,0v-0.7H114.5z M113.6,40.3c0-0.1,0-0.3,0-0.4
	c-0.2-0.6-0.7-0.9-1.2-0.9c-0.8,0-1.4,0.7-1.4,1.8c0,1,0.5,1.7,1.4,1.7c0.6,0,1.1-0.4,1.2-0.9c0-0.2,0.1-0.3,0.1-0.5L113.6,40.3z"/>
<path class="st0" d="M112,45.5c-0.6,0-1.2-0.1-1.7-0.4l-0.1-0.1l0.3-1l0.2,0.1c0.4,0.2,0.9,0.4,1.3,0.4c0.9,0,1.4-0.5,1.4-1.5v-0.1
	c-0.4,0.4-0.9,0.6-1.4,0.5c-1.3-0.1-2.3-1.1-2.2-2.4c0,0,0-0.1,0-0.1c-0.1-1.4,0.9-2.6,2.2-2.7c0,0,0.1,0,0.1,0c0.5,0,1,0.2,1.4,0.6
	v-0.5h1.1v0.2c0,0.4,0,0.7,0,1.3v2.9c0.1,0.8-0.2,1.7-0.7,2.3C113.4,45.3,112.7,45.5,112,45.5z M110.6,44.8c0.4,0.2,0.9,0.3,1.4,0.3
	c0.6,0,1.2-0.2,1.7-0.5c0.5-0.6,0.8-1.3,0.7-2.1v-2.8c0-0.5,0-0.9,0-1.2h-0.5v0.7h-0.2l-0.1-0.1c-0.3-0.5-0.8-0.8-1.4-0.8
	c-1.2,0.1-2.1,1.1-2,2.3c0,0,0,0.1,0,0.1c-0.1,1.1,0.7,2.1,1.8,2.2c0,0,0,0,0,0c0.6,0,1.1-0.3,1.4-0.7v-0.1h0.2v0.2v0.5
	c0,1.2-0.6,1.8-1.7,1.8c-0.5,0-0.9-0.1-1.3-0.3L110.6,44.8z M112.3,42.7c-0.9,0-1.6-0.8-1.6-1.9s0.6-2,1.6-2c0.6,0,1.2,0.4,1.4,1
	c0,0.1,0,0.3,0,0.4v0.9c0,0.2,0,0.4-0.1,0.5C113.4,42.2,112.9,42.6,112.3,42.7z M112.3,39.1c-0.8,0-1.3,0.7-1.3,1.7
	c0,0.7,0.3,1.6,1.3,1.6c0.5,0,0.9-0.3,1.1-0.8c0-0.1,0.1-0.3,0.1-0.4v-0.9c0-0.1,0-0.2,0-0.3C113.3,39.4,112.8,39.1,112.3,39.1
	L112.3,39.1z"/>
<path class="st0" d="M115.9,39.9c0-0.6,0-1.1,0-1.5h0.8v1l0,0c0.2-0.6,0.7-1,1.4-1.1c0.1,0,0.2,0,0.3,0v0.8c-0.1,0-0.2,0-0.3,0
	c-0.6,0-1.1,0.5-1.2,1.1c0,0.1,0,0.3,0,0.4v2.6h-0.9L115.9,39.9z"/>
<path class="st0" d="M116.9,43.3h-1.2v-3.5c0-0.6,0-1.1,0-1.5v-0.2h1.1v0.6c0.3-0.5,0.9-0.8,1.5-0.7h0.1v1.1h-0.2
	c-0.1,0-0.2,0-0.3,0c-0.5,0-1,0.5-1,1c0,0.1,0,0.3,0,0.4L116.9,43.3z M116,43h0.6v-2.4c0-0.1,0-0.3,0-0.4c0.1-0.7,0.7-1.3,1.4-1.3
	h0.2v-0.5H118c-0.6,0-1.1,0.4-1.2,1v0.1h-0.3v-1H116c0,0.4,0,0.8,0,1.4V43z"/>
<path class="st0" d="M121.8,43.2l-0.1-0.6l0,0c-0.4,0.5-0.9,0.7-1.5,0.7c-0.8,0.1-1.4-0.5-1.5-1.3c0,0,0-0.1,0-0.1
	c0-1.2,1-1.8,2.9-1.8V40c0.1-0.5-0.3-1-0.9-1.1c-0.1,0-0.2,0-0.2,0c-0.4,0-0.9,0.1-1.3,0.4l-0.2-0.6c0.5-0.3,1-0.4,1.6-0.4
	c1.5,0,1.8,1,1.8,2V42c0,0.4,0,0.8,0.1,1.2L121.8,43.2z M121.6,40.7c-1,0-2.1,0.2-2.1,1.1c0,0.4,0.3,0.8,0.7,0.8c0,0,0.1,0,0.1,0
	c0.5,0,1-0.3,1.2-0.8c0-0.1,0-0.2,0-0.3L121.6,40.7z"/>
<path class="st0" d="M120.2,43.5c-0.8,0-1.6-0.6-1.6-1.4c0,0,0-0.1,0-0.1c0-0.4,0.2-0.9,0.5-1.2c0.7-0.6,1.6-0.8,2.4-0.8
	c0.1-0.5-0.3-0.9-0.7-0.9c-0.1,0-0.2,0-0.3,0c-0.4,0-0.8,0.1-1.2,0.3l-0.2,0.1l-0.3-0.9l0.1-0.1c0.5-0.3,1.1-0.5,1.7-0.5
	c1-0.1,1.9,0.7,2,1.7c0,0.1,0,0.3,0,0.4V42c0,0.4,0,0.8,0.1,1.1v0.2h-1.1v-0.4C121.2,43.2,120.7,43.4,120.2,43.5z M121.6,40.3
	c-0.8-0.1-1.7,0.2-2.3,0.7c-0.3,0.3-0.4,0.6-0.4,1c0,0.7,0.5,1.2,1.2,1.2c0,0,0.1,0,0.1,0c0.5,0,1-0.2,1.4-0.7v-0.1h0.2v0.1l0.1,0.5
	h0.5c0-0.3,0-0.7,0-1v-1.8c0-1.2-0.6-1.8-1.7-1.8c-0.5,0-1,0.1-1.4,0.3l0.1,0.3c0.4-0.2,0.8-0.3,1.2-0.3c0.6-0.1,1.2,0.3,1.3,1
	c0,0.1,0,0.2,0,0.3v0.3L121.6,40.3L121.6,40.3z M120.4,42.8c-0.5,0-1-0.3-1-0.9c0,0,0-0.1,0-0.1c0-0.3,0.1-0.6,0.3-0.8
	c0.5-0.4,1.2-0.6,1.9-0.5h0.2v1c0,0.1,0,0.2-0.1,0.3C121.5,42.4,121,42.8,120.4,42.8z M121.5,40.9c-0.5-0.1-1.1,0.1-1.5,0.4
	c-0.1,0.1-0.2,0.3-0.2,0.5c0,0.3,0.2,0.7,0.6,0.7c0,0,0.1,0,0.1,0c0.4,0,0.8-0.3,1-0.7c0-0.1,0-0.2,0-0.2L121.5,40.9z"/>
<path class="st0" d="M123.9,36.1h0.9v7.1h-0.9V36.1z"/>
<path class="st0" d="M124.9,43.3h-1.2v-7.4h1.2V43.3z M124.1,43h0.6v-6.8h-0.6V43z"/>
<path class="st0" d="M126.8,40.9c-0.1,0.9,0.6,1.6,1.4,1.7c0.1,0,0.2,0,0.3,0c0.5,0,0.9-0.1,1.3-0.3l0.1,0.6
	c-0.5,0.2-1.1,0.3-1.6,0.3c-1.2,0.1-2.3-0.9-2.4-2.1c0-0.1,0-0.2,0-0.3c-0.1-1.3,0.8-2.5,2.1-2.6c0.1,0,0.1,0,0.2,0c1.1,0,2,1,2,2.1
	c0,0.1,0,0.1,0,0.2c0,0.1,0,0.3,0,0.4H126.8z M129.4,40.3c0.1-0.7-0.4-1.3-1.1-1.4c-0.1,0-0.1,0-0.2,0c-0.8,0.1-1.3,0.7-1.4,1.4
	H129.4z"/>
<path class="st0" d="M128.3,43.5c-1.3,0.1-2.5-0.9-2.5-2.3c0-0.1,0-0.2,0-0.3c-0.1-1.4,0.8-2.6,2.2-2.8c0.1,0,0.1,0,0.2,0
	c1.2,0,2.2,1,2.2,2.2c0,0.1,0,0.2,0,0.2c0,0.1,0,0.3,0,0.4v0.2H127c0,0.8,0.6,1.4,1.4,1.4c0,0,0.1,0,0.1,0c0.4,0,0.9-0.1,1.3-0.2
	l0.2-0.1l0.2,0.9H130C129.5,43.3,128.9,43.5,128.3,43.5z M128.2,38.4c-1.2,0-2.2,1.1-2.1,2.3c0,0.1,0,0.1,0,0.2
	c-0.1,1.2,0.7,2.2,1.9,2.3c0.1,0,0.2,0,0.3,0c0.5,0,1-0.1,1.4-0.2l-0.1-0.3c-0.4,0.1-0.8,0.2-1.2,0.2c-0.9,0.1-1.8-0.6-1.8-1.6
	c0-0.1,0-0.2,0-0.2v-0.2h3.4c0-0.1,0-0.2,0-0.3S130,38.4,128.2,38.4z M129.5,40.5h-2.9v-0.2c0-0.8,0.7-1.5,1.5-1.6
	c0.4,0,0.7,0.1,0.9,0.4c0.3,0.3,0.4,0.8,0.4,1.2L129.5,40.5z M127,40.2h2.3c0-0.3-0.1-0.6-0.3-0.9c-0.2-0.2-0.5-0.3-0.7-0.3
	C127.6,39.1,127.1,39.5,127,40.2z"/>
<path class="st0" d="M131.2,42.3c0.3,0.2,0.7,0.3,1.2,0.3c0.6,0,0.9-0.3,0.9-0.7s-0.3-0.7-0.9-0.9c-0.9-0.3-1.3-0.8-1.3-1.4
	c0-0.8,0.7-1.5,1.5-1.4c0,0,0.1,0,0.1,0c0.4,0,0.8,0.1,1.2,0.3l-0.2,0.6c-0.3-0.2-0.6-0.3-1-0.3c-0.5,0-0.8,0.3-0.8,0.7
	s0.3,0.6,0.9,0.8c0.8,0.3,1.3,0.8,1.3,1.5s-0.7,1.5-1.8,1.5c-0.5,0-0.9-0.1-1.3-0.3L131.2,42.3z"/>
<path class="st0" d="M132.3,43.5c-0.5,0-1-0.1-1.4-0.3l-0.1-0.1l0.3-1l0.2,0.1c0.3,0.2,0.7,0.3,1.1,0.3c0.5,0,0.8-0.2,0.8-0.6
	s-0.1-0.5-0.8-0.8c-1.1-0.4-1.4-1-1.4-1.5c0-0.9,0.8-1.6,1.7-1.6c0,0,0.1,0,0.1,0c0.4,0,0.9,0.1,1.3,0.3l0.1,0.1l-0.3,0.9l-0.2-0.1
	c-0.3-0.2-0.6-0.3-0.9-0.3c-0.4,0-0.7,0.2-0.7,0.5s0.2,0.4,0.8,0.7c0.9,0.4,1.4,0.8,1.4,1.6C134.3,42.8,133.5,43.5,132.3,43.5z
	 M131.1,42.9c0.4,0.2,0.8,0.3,1.2,0.3c1,0,1.7-0.5,1.7-1.3c0-0.6-0.3-1-1.2-1.3c-0.6-0.2-1-0.4-1-1c0-0.5,0.4-0.8,0.9-0.8
	c0,0,0.1,0,0.1,0c0.3,0,0.6,0.1,0.9,0.2l0.1-0.4c-0.3-0.1-0.7-0.2-1-0.2c-0.7-0.1-1.4,0.4-1.5,1.2c0,0,0,0.1,0,0.1
	c0,0.5,0.4,1,1.2,1.2c0.6,0.2,1,0.5,1,1s-0.3,0.9-1.1,0.9c-0.4,0-0.7-0.1-1.1-0.3L131.1,42.9z"/>
<path class="st0" d="M137.4,36.5c0.6-0.1,1.1-0.1,1.7-0.1c0.7,0,1.4,0.2,1.9,0.6c0.4,0.4,0.6,0.9,0.6,1.4c0,0.5-0.2,1-0.5,1.4
	c-0.6,0.5-1.3,0.8-2.1,0.8c-0.2,0-0.5,0-0.7-0.1v2.7h-0.9L137.4,36.5z M138.3,39.8c0.2,0.1,0.5,0.1,0.7,0.1c1.1,0,1.7-0.5,1.7-1.4
	s-0.6-1.3-1.6-1.3c-0.3,0-0.6,0-0.8,0.1L138.3,39.8z"/>
<path class="st0" d="M138.4,43.3h-1.2v-7h0.1c0.6-0.1,1.1-0.1,1.7-0.1c0.7-0.1,1.4,0.2,2,0.6c0.4,0.4,0.7,0.9,0.6,1.5
	c0,0.6-0.2,1.1-0.6,1.5c-0.6,0.5-1.4,0.8-2.2,0.8c-0.2,0-0.4,0-0.6,0L138.4,43.3z M137.6,43h0.6v-2.7h0.2c0.2,0,0.4,0.1,0.7,0.1
	c0.7,0.1,1.5-0.2,2-0.7c0.3-0.4,0.5-0.8,0.5-1.3c0-0.5-0.2-1-0.5-1.3c-0.5-0.4-1.2-0.6-1.8-0.5c-0.5,0-1,0-1.5,0.1L137.6,43z
	 M139,40c-0.3,0-0.5,0-0.8-0.1h-0.1V37h0.1c0.3-0.1,0.6-0.1,0.9-0.1c1.1,0,1.7,0.5,1.7,1.5S140.1,40,139,40z M138.4,39.7
	c0.2,0,0.4,0,0.6,0c1,0,1.6-0.5,1.6-1.3c0-1-0.9-1.2-1.4-1.2c-0.2,0-0.4,0-0.7,0L138.4,39.7z"/>
<path class="st0" d="M145.1,43.2l-0.1-0.6l0,0c-0.3,0.5-0.9,0.7-1.5,0.7c-0.8,0.1-1.4-0.5-1.5-1.3c0,0,0-0.1,0-0.1
	c0-1.2,1.1-1.8,2.9-1.8V40c0.1-0.5-0.3-1-0.9-1.1c-0.1,0-0.2,0-0.2,0c-0.4,0-0.9,0.1-1.3,0.4l-0.2-0.6c0.5-0.3,1-0.4,1.6-0.4
	c1.5,0,1.8,1,1.8,2V42c0,0.4,0,0.8,0.1,1.2L145.1,43.2z M145,40.7c-1,0-2.1,0.2-2.1,1.1c0,0.4,0.3,0.8,0.7,0.8c0,0,0.1,0,0.1,0
	c0.5,0,1-0.3,1.2-0.8c0-0.1,0-0.2,0.1-0.3V40.7z"/>
<path class="st0" d="M143.6,43.5c-0.8,0-1.6-0.6-1.6-1.4c0,0,0-0.1,0-0.1c0-0.4,0.2-0.9,0.5-1.2c0.7-0.6,1.6-0.8,2.4-0.8
	c0.1-0.5-0.3-0.9-0.7-0.9c-0.1,0-0.2,0-0.3,0c-0.4,0-0.8,0.1-1.2,0.3l-0.2,0.1l-0.3-0.9l0.1-0.1c0.5-0.3,1.1-0.5,1.7-0.5
	c1-0.1,1.9,0.7,2,1.7c0,0.1,0,0.3,0,0.4V42c0,0.4,0,0.8,0.1,1.1v0.2h-1l-0.1-0.4C144.6,43.2,144.1,43.5,143.6,43.5z M144.9,40.3
	c-0.8-0.1-1.7,0.2-2.3,0.7c-0.3,0.3-0.4,0.6-0.4,1c0,0.7,0.5,1.2,1.2,1.2c0,0,0.1,0,0.1,0c0.5,0,1-0.2,1.4-0.7v-0.1h0.2l0.1,0.1v0.5
	h0.5c0-0.3-0.1-0.7-0.1-1v-1.8c0-1.2-0.6-1.8-1.7-1.8c-0.5,0-1,0.1-1.4,0.3l0.1,0.3c0.4-0.2,0.8-0.3,1.2-0.3
	c0.6-0.1,1.2,0.3,1.3,0.9c0,0.1,0,0.2,0,0.4v0.3L144.9,40.3L144.9,40.3z M143.8,42.8c-0.5,0-1-0.3-1-0.8c0-0.1,0-0.1,0-0.2
	c0-0.3,0.1-0.6,0.3-0.8c0.6-0.4,1.2-0.6,1.9-0.5h0.1v1c0,0.1,0,0.2-0.1,0.3C144.9,42.4,144.4,42.8,143.8,42.8z M144.9,40.9
	c-0.5-0.1-1.1,0.1-1.5,0.4c-0.1,0.1-0.2,0.3-0.2,0.5c0,0.4,0.2,0.7,0.6,0.7c0,0,0.1,0,0.1,0c0.5,0,0.9-0.3,1-0.7c0-0.1,0-0.2,0-0.2
	L144.9,40.9z"/>
<path class="st0" d="M147.3,39.7c0-0.5,0-0.9,0-1.3h0.7l0.1,0.8l0,0c0.3-0.6,0.9-0.9,1.6-0.9c0.7,0,1.7,0.4,1.7,2.1v2.9h-0.9v-2.8
	c0-0.8-0.3-1.4-1.1-1.4c-0.7,0-1.3,0.6-1.3,1.3v2.9h-0.9L147.3,39.7z"/>
<path class="st0" d="M151.6,43.3h-1.2v-2.9c0-0.6-0.2-1.3-1-1.3c-0.5,0-0.9,0.3-1,0.8c0,0.1-0.1,0.2-0.1,0.4v3.1h-1.2v-3.7
	c0-0.5,0-0.9,0-1.3v-0.2h1.1v0.5c0.4-0.4,0.9-0.7,1.5-0.7c0.9,0,1.9,0.6,1.9,2.2L151.6,43.3z M150.7,43h0.6v-2.8
	c0-1.8-1.3-1.9-1.6-1.9c-0.6,0-1.2,0.3-1.5,0.8l-0.1,0.1h-0.2v-0.1v-0.7h-0.5c0,0.3,0,0.7,0,1.2v3.4h0.5v-2.8c0-0.2,0-0.3,0.1-0.5
	c0.2-0.6,0.7-1,1.3-1c0.8,0,1.3,0.6,1.3,1.6L150.7,43z"/>
<path class="st0" d="M155.5,43.2l-0.1-0.6l0,0c-0.4,0.5-0.9,0.7-1.5,0.7c-0.8,0.1-1.4-0.5-1.5-1.3c0,0,0-0.1,0-0.1
	c0-1.2,1-1.8,2.9-1.8V40c0.1-0.5-0.3-1-0.9-1.1c-0.1,0-0.2,0-0.2,0c-0.4,0-0.9,0.1-1.3,0.4l-0.2-0.6c0.5-0.3,1-0.4,1.6-0.4
	c1.5,0,1.9,1,1.9,2V42c0,0.4,0,0.8,0.1,1.2L155.5,43.2z M155.4,40.7c-1,0-2.1,0.2-2.1,1.1c0,0.4,0.3,0.8,0.7,0.8c0,0,0.1,0,0.1,0
	c0.5,0,1-0.3,1.2-0.8c0-0.1,0-0.2,0-0.3L155.4,40.7z"/>
<path class="st0" d="M153.9,43.5c-0.8,0-1.6-0.6-1.6-1.4c0,0,0-0.1,0-0.1c0-0.4,0.2-0.9,0.5-1.2c0.7-0.6,1.6-0.8,2.4-0.8
	c0.1-0.5-0.3-0.9-0.7-0.9c-0.1,0-0.2,0-0.3,0c-0.4,0-0.8,0.1-1.2,0.3l-0.2,0.1l-0.3-0.9l0.1-0.1c0.5-0.3,1.1-0.5,1.7-0.5
	c1-0.1,1.9,0.7,2,1.7c0,0.1,0,0.3,0,0.4V42c0,0.4,0,0.8,0.1,1.1v0.2h-1.1v-0.4C154.9,43.2,154.4,43.4,153.9,43.5z M155.3,40.3
	c-0.8-0.1-1.7,0.2-2.3,0.7c-0.3,0.3-0.4,0.6-0.4,1c0,0.7,0.5,1.2,1.2,1.2c0,0,0.1,0,0.1,0c0.5,0,1-0.2,1.4-0.7v-0.1h0.2v0.1l0.1,0.5
	h0.5c0-0.3,0-0.7,0-1v-1.8c0-1.2-0.6-1.8-1.7-1.8c-0.5,0-1,0.1-1.4,0.3l0.1,0.3c0.4-0.2,0.8-0.3,1.2-0.3c0.6-0.1,1.2,0.3,1.3,1
	c0,0.1,0,0.2,0,0.3v0.3L155.3,40.3L155.3,40.3z M154.2,42.8c-0.5,0-1-0.3-1-0.9c0,0,0-0.1,0-0.1c0-0.3,0.1-0.6,0.3-0.8
	c0.6-0.4,1.2-0.6,1.9-0.5h0.1v1c0,0.1,0,0.2-0.1,0.3C155.3,42.4,154.7,42.8,154.2,42.8L154.2,42.8z M155.2,40.9
	c-0.5-0.1-1.1,0.1-1.5,0.4c-0.1,0.1-0.2,0.3-0.2,0.5c0,0.3,0.2,0.7,0.6,0.7c0,0,0.1,0,0.1,0c0.4,0,0.8-0.3,1-0.7c0-0.1,0-0.2,0-0.2
	L155.2,40.9z"/>
<path class="st0" d="M157.7,39.7c0-0.5,0-0.9,0-1.3h0.8v0.8l0,0c0.3-0.6,0.9-0.9,1.5-0.9c0.6,0,1.2,0.4,1.4,1l0,0
	c0.1-0.2,0.3-0.5,0.5-0.6c0.3-0.2,0.7-0.4,1.1-0.3c0.6,0,1.6,0.4,1.6,2.1v2.8h-0.9v-2.8c0-0.9-0.3-1.5-1.1-1.5c-0.5,0-0.9,0.4-1,0.8
	c0,0.1-0.1,0.3-0.1,0.4v3h-0.9v-2.9c0-0.8-0.3-1.3-1-1.3c-0.7,0.1-1.2,0.6-1.2,1.3v2.9h-0.9V39.7z"/>
<path class="st0" d="M164.7,43.3h-1.2v-2.9c0-0.9-0.3-1.3-0.9-1.3c-0.4,0-0.8,0.3-0.9,0.7c0,0.1-0.1,0.3-0.1,0.4v3.2h-1.2v-3.1
	c0-0.3-0.1-1.2-0.9-1.2c-0.5,0-0.9,0.3-1,0.8c0,0.1-0.1,0.3-0.1,0.4v3.1h-1.2v-3.7c0-0.5,0-0.9,0-1.3v-0.2h1.1v0.5
	c0.4-0.4,0.9-0.7,1.4-0.6c0.6,0,1.1,0.3,1.4,0.8c0.1-0.2,0.3-0.3,0.4-0.5c0.3-0.3,0.7-0.4,1.2-0.4c0.3,0,1.7,0.1,1.7,2.3L164.7,43.3
	z M163.9,43h0.6v-2.7c0-1.5-0.7-2-1.4-2c-0.4,0-0.7,0.1-1,0.3c-0.2,0.2-0.4,0.4-0.5,0.6v0.1h-0.2l-0.1-0.1c-0.2-0.5-0.7-0.9-1.2-0.9
	c-0.6,0-1.1,0.3-1.4,0.8l-0.1,0.1h-0.2v-0.1v-0.6h-0.5c0,0.3,0,0.7,0,1.2V43h0.6v-2.7c0-0.2,0-0.3,0.1-0.5c0.2-0.6,0.6-1,1.2-1
	c0.7,0,1.2,0.6,1.2,1.5V43h0.6v-2.8c0-0.2,0-0.3,0.1-0.5c0.2-0.5,0.6-0.9,1.2-0.9c0.4,0,1.2,0.2,1.2,1.6L163.9,43z"/>
<path class="st0" d="M168.7,43.2l-0.1-0.6l0,0c-0.4,0.5-0.9,0.7-1.5,0.7c-0.8,0.1-1.4-0.5-1.5-1.3c0,0,0-0.1,0-0.1
	c0-1.2,1-1.8,2.9-1.8V40c0.1-0.5-0.3-1-0.9-1.1c-0.1,0-0.2,0-0.2,0c-0.4,0-0.9,0.1-1.3,0.4l-0.2-0.6c0.5-0.3,1-0.4,1.6-0.4
	c1.5,0,1.9,1,1.9,2V42c0,0.4,0,0.8,0.1,1.2L168.7,43.2z M168.6,40.7c-1,0-2.1,0.2-2.1,1.1c0,0.4,0.3,0.8,0.7,0.8c0,0,0.1,0,0.1,0
	c0.5,0,1-0.3,1.2-0.8c0-0.1,0-0.2,0-0.3L168.6,40.7z M169,36.3l-1.2,1.4h-0.6l0.9-1.4H169z"/>
<path class="st0" d="M167.1,43.5c-0.8,0-1.6-0.6-1.6-1.4c0,0,0-0.1,0-0.1c0-0.4,0.2-0.9,0.5-1.2c0.7-0.5,1.6-0.8,2.4-0.7
	c0.1-0.5-0.3-0.9-0.7-0.9c-0.1,0-0.2,0-0.3,0c-0.4,0-0.8,0.1-1.2,0.3l-0.2,0.1l-0.3-0.9l0.1-0.1c0.5-0.3,1.1-0.5,1.7-0.5
	c1-0.1,1.9,0.7,2,1.7c0,0.1,0,0.3,0,0.4V42c0,0.4,0,0.8,0.1,1.1v0.2h-1.1l-0.1-0.4C168.1,43.2,167.6,43.4,167.1,43.5z M168.5,40.3
	c-0.8-0.1-1.7,0.2-2.3,0.7c-0.3,0.3-0.4,0.6-0.4,1c0,0.7,0.5,1.2,1.2,1.2c0,0,0.1,0,0.1,0c0.5,0,1-0.2,1.4-0.7l0.1-0.1h0.2v0.1
	l0.1,0.5h0.5c0-0.3,0-0.7,0-1v-1.8c0-1.2-0.6-1.8-1.7-1.8c-0.5,0-1,0.1-1.4,0.3l0.1,0.3c0.4-0.2,0.8-0.3,1.2-0.3
	c0.6-0.1,1.2,0.4,1.2,1c0,0.1,0,0.2,0,0.3v0.3L168.5,40.3L168.5,40.3z M167.3,42.8c-0.5,0-1-0.3-1-0.9c0,0,0-0.1,0-0.1
	c0-0.3,0.1-0.6,0.3-0.8c0.5-0.4,1.2-0.6,1.9-0.5h0.1v1c0,0.1,0,0.2-0.1,0.3C168.4,42.4,167.9,42.8,167.3,42.8z M168.4,40.9
	c-0.5-0.1-1.1,0.1-1.5,0.4c-0.1,0.1-0.2,0.3-0.2,0.5c0,0.3,0.2,0.7,0.6,0.7c0,0,0.1,0,0.1,0c0.5,0,0.9-0.3,1-0.7c0-0.1,0-0.2,0-0.2
	L168.4,40.9z M167.8,37.9h-1l1.2-1.8h1.4L167.8,37.9z M167.4,37.6h0.3l1-1.1h-0.6L167.4,37.6z"/>
</svg>
