<?xml version="1.0" encoding="utf-8"?>
<!-- Generator: Adobe Illustrator 22.0.0, SVG Export Plug-In . SVG Version: 6.00 Build 0)  -->
<svg version="1.1" id="Capa_1" xmlns="http://www.w3.org/2000/svg" xmlns:xlink="http://www.w3.org/1999/xlink" x="0px" y="0px"
	 viewBox="0 0 239.5 64.2" style="enable-background:new 0 0 239.5 64.2;" xml:space="preserve">
<style type="text/css">
	.st0{fill:#2D2D2D;}
	.st1{fill:#383838;}
	.st2{fill:#1E1E1E;}
	.st3{fill:#F9AF1F;}
	.st4{fill:#E5951E;}
</style>
<title>Recurso 11</title>
<polygon class="st0" points="27.2,52.8 52.2,38.3 52.1,46.7 27.2,61.2 "/>
<polygon class="st1" points="0,37.1 25,22.6 52.2,38.3 27.2,52.8 "/>
<polygon class="st2" points="27.2,52.8 27.2,61.2 0,45.5 0,37.1 "/>
<polygon class="st3" points="25,11.3 0,25.8 27.2,41.5 27.2,49.9 52.1,35.4 52.2,27 "/>
<polygon class="st4" points="27.2,41.5 27.2,49.9 0,34.2 0,25.8 "/>
<polygon class="st0" points="27.2,30.2 52.2,15.7 52.1,24.1 27.2,38.6 "/>
<polygon class="st1" points="0,14.5 25,0 52.2,15.7 27.2,30.2 "/>
<polygon class="st2" points="27.2,30.2 27.2,38.6 0,22.9 0,14.5 "/>
<path class="st2" d="M163,1.6h7.7c3-0.1,6,0.1,8.9,0.6c2.1,0.5,4,1.7,5.4,3.3c1.4,1.8,2.2,4.1,2.1,6.3c0.1,2.3-0.6,4.5-2,6.4
	c-1.4,1.7-3.4,2.9-5.6,3.4c-3.2,0.5-6.5,0.7-9.8,0.6h-2.8v19.4H163V1.6z M166.9,5.4v13.1l6.5,0.1c2,0.1,3.9-0.1,5.8-0.7
	c1.2-0.5,2.2-1.3,2.8-2.3c1.4-2.2,1.4-5,0-7.1c-0.7-1-1.6-1.8-2.8-2.3c-1.8-0.5-3.7-0.8-5.6-0.7L166.9,5.4z"/>
<path class="st2" d="M168.4,43.3h-7.1V0h9.3c3.1-0.1,6.2,0.1,9.3,0.6c2.4,0.6,4.6,1.9,6.2,3.9c1.7,2.1,2.6,4.7,2.5,7.4
	c0.1,2.7-0.8,5.3-2.4,7.4c-1.7,2-4,3.4-6.5,3.9c-3.4,0.6-6.8,0.8-10.2,0.7h-1.1L168.4,43.3z M164.6,40h0.6V20.6h4.4
	c3.2,0.1,6.3-0.1,9.4-0.6c1.9-0.4,3.5-1.4,4.8-2.8c1.2-1.5,1.8-3.4,1.7-5.3c0.1-1.9-0.5-3.8-1.7-5.3c-1.2-1.4-2.8-2.4-4.5-2.8
	c-1-0.2-3.2-0.5-8.5-0.5h-6.1L164.6,40z M173.3,20.1l-8.1-0.1V3.8h8.4c2.1-0.1,4.2,0.2,6.2,0.8c1.5,0.6,2.7,1.6,3.5,2.9
	c0.9,1.3,1.3,2.9,1.3,4.4c0,1.6-0.4,3.1-1.3,4.5c-0.9,1.3-2.1,2.4-3.6,2.9C177.7,20,175.5,20.2,173.3,20.1L173.3,20.1z M168.4,16.9
	l4.9,0.1c1.8,0.1,3.5-0.1,5.2-0.6c0.9-0.3,1.6-0.9,2.1-1.7c0.5-0.8,0.8-1.8,0.8-2.7c0-0.9-0.3-1.9-0.8-2.7c-0.5-0.8-1.2-1.3-2-1.7
	c-1.6-0.5-3.3-0.7-5-0.6h-5.2L168.4,16.9z"/>
<path class="st2" d="M131.2,1.7h3.9v39.9h-3.9V1.7z"/>
<path class="st2" d="M136.7,43.3h-7.1V0h7.1V43.3z M132.8,39.9h0.6V3.3h-0.6V39.9z"/>
<path class="st2" d="M218.1,1.6l18.7,40h-4.2l-6.8-14.2h-16.6l-6.8,14.2h-4.3l19-40L218.1,1.6z M217.6,9.8l-6.6,14h13.2L217.6,9.8z"
	/>
<path class="st2" d="M239.4,43.3h-7.7l-6.8-14.2h-14.6l-6.8,14.2h-7.8L216.1,0h3L239.4,43.3z M233.7,40h0.6L217.6,4.4L200.8,40h0.7
	l6.8-14.2h18.6L233.7,40z M226.7,25.3h-18.2L217.6,6L226.7,25.3z M213.5,22.1h8.1l-4-8.6L213.5,22.1z"/>
<path class="st2" d="M78.9,33.7l4.1-2c2.9,4.2,6.2,6.4,10,6.4c1.6,0,3.1-0.3,4.6-0.9c1.3-0.5,2.4-1.3,3.2-2.4
	c0.7-0.9,1.1-2.1,1.1-3.2c-0.1-1.4-0.6-2.8-1.6-3.8c-2.4-2.4-5.2-4.5-8.2-6.1c-4-2.4-6.5-4.2-7.5-5.3c-1.6-1.6-2.5-3.7-2.6-5.9
	c0-1.7,0.5-3.3,1.5-4.6c1.1-1.4,2.6-2.6,4.2-3.3c1.9-0.8,3.9-1.2,5.9-1.2c2.2,0,4.4,0.4,6.4,1.4c2.4,1.2,4.5,2.9,6.3,5l-3.9,2.4
	c-1.3-1.5-2.9-2.8-4.6-3.8c-1.3-0.6-2.7-0.9-4.2-0.9c-1.7-0.1-3.4,0.4-4.8,1.4c-1.2,0.8-1.8,2.1-1.8,3.5c0,0.9,0.2,1.7,0.7,2.4
	c0.6,1,1.4,1.9,2.4,2.6c0.7,0.5,2.7,1.8,6.2,3.8c4.2,2.5,7,4.7,8.6,6.6c1.4,1.6,2.3,3.6,2.3,5.8c0,2.8-1.3,5.2-4,7.3
	c-2.8,2.1-6.2,3.2-9.7,3.1c-2.8,0-5.5-0.6-8-1.9C82.8,38.5,80.5,36.3,78.9,33.7z"/>
<path class="st2" d="M93.4,43.2c-3,0-5.9-0.6-8.6-2c-2.9-1.6-5.3-3.9-7.1-6.7l-0.9-1.3l6.6-3.2l0.7,1c2.6,3.9,5.5,5.8,8.8,5.8
	c1.4,0,2.7-0.3,4-0.8c1.1-0.4,2-1.1,2.7-2c0.5-0.7,0.8-1.5,0.8-2.4c-0.1-1.1-0.5-2.1-1.3-2.9c-2.4-2.3-5-4.3-7.9-5.9
	c-4.2-2.5-6.7-4.3-7.8-5.5c-1.8-1.8-2.9-4.3-2.9-6.8c0-2,0.6-3.9,1.8-5.4c1.2-1.6,2.9-2.9,4.8-3.7c4.3-1.8,9.2-1.7,13.4,0.2
	c2.6,1.3,4.8,3.1,6.7,5.3l1.1,1.2l-6.3,3.8l-0.8-0.8c-1.2-1.4-2.6-2.6-4.2-3.5C96,7,94.7,6.7,93.5,6.7c-1.4-0.1-2.8,0.3-3.9,1.1
	c-0.8,0.5-1.3,1.4-1.3,2.4c0,0.6,0.2,1.2,0.5,1.7c0.5,0.8,1.2,1.6,2,2.2c0.4,0.3,1.8,1.2,6,3.7s7.3,4.8,9,6.9
	c1.6,1.8,2.6,4.2,2.6,6.7c0,3.2-1.5,6-4.5,8.4C100.9,42.1,97.2,43.3,93.4,43.2z M81,34.2c1.4,1.9,3.1,3.4,5.1,4.5
	c2.3,1.2,4.8,1.8,7.3,1.7c3.2,0.1,6.3-0.9,8.8-2.8c2.3-1.8,3.4-3.8,3.4-6.2c-0.1-1.8-0.8-3.6-2-4.9c-1.4-1.8-4.2-3.9-8.2-6.3
	c-4.8-2.8-5.9-3.6-6.4-3.9c-1.1-0.8-2-1.8-2.8-3c-0.5-0.9-0.8-2-0.8-3.1c0-1.8,0.9-3.5,2.4-4.6c1.6-1.2,3.6-1.7,5.6-1.7
	c1.6,0,3.3,0.3,4.8,1c1.6,0.9,3,2,4.3,3.3l1.5-0.9c-1.3-1.4-2.9-2.5-4.7-3.4c-3.5-1.6-7.6-1.6-11.2-0.2c-1.5,0.6-2.7,1.6-3.7,2.8
	c-0.8,1.1-1.3,2.4-1.2,3.8c0,1.9,0.8,3.6,2.2,4.9c0.6,0.7,2.4,2.1,7.2,5c4.2,2.5,7,4.6,8.6,6.4c1.2,1.3,1.9,3,2,4.7
	c0,1.4-0.5,2.8-1.4,4c-1,1.3-2.3,2.3-3.9,2.9c-1.6,0.7-3.3,1-5.1,1c-3.9,0-7.4-2-10.4-6L81,34.2z"/>
<path class="st3" d="M77.4,59.5c0.7,0.4,1.4,0.6,2.2,0.6c1.3,0,2-0.7,2-1.6s-0.5-1.4-1.8-1.9c-1.6-0.5-2.5-1.4-2.5-2.7
	c0-1.5,1.2-2.6,3.1-2.6c0.7,0,1.5,0.1,2.1,0.5l-0.3,1c-0.6-0.3-1.2-0.5-1.8-0.5c-1.3,0-1.8,0.8-1.8,1.4c0,0.9,0.6,1.3,1.9,1.8
	c1.6,0.6,2.4,1.4,2.4,2.8s-1.1,2.7-3.3,2.7c-0.8,0-1.7-0.2-2.4-0.6L77.4,59.5z"/>
<path class="st3" d="M79.5,61.3c-0.9,0-1.7-0.2-2.5-0.6l-0.1-0.1l0.4-1.4l0.2,0.1c0.6,0.4,1.4,0.6,2.1,0.6c1.1,0,1.8-0.5,1.8-1.4
	s-0.4-1.2-1.7-1.7c-1.8-0.7-2.7-1.6-2.7-2.9c0-1.7,1.4-2.8,3.3-2.8c0.8,0,1.5,0.1,2.2,0.5l0.2,0.1l-0.5,1.4L82,52.9
	c-0.5-0.3-1.1-0.4-1.7-0.4c-1.1,0-1.6,0.6-1.6,1.2s0.4,1.1,1.8,1.6c1.8,0.7,2.6,1.6,2.6,3S82.1,61.3,79.5,61.3z M77.3,60.4
	c0.7,0.3,1.4,0.5,2.2,0.5c1.9,0,3.1-1,3.1-2.5c0-1.2-0.7-2-2.3-2.6c-1.3-0.5-2-1-2-2c0-0.8,0.6-1.6,2-1.6c0.6,0,1.2,0.1,1.7,0.4
	l0.2-0.6c-0.6-0.3-1.2-0.4-1.8-0.4c-1.7,0-2.9,1-2.9,2.4c0,1.1,0.8,1.9,2.4,2.5c1.2,0.5,1.9,1,1.9,2.1s-0.9,1.8-2.2,1.8
	c-0.7,0-1.4-0.2-2.1-0.5L77.3,60.4z"/>
<path class="st3" d="M85.3,57.8c-0.1,1.2,0.8,2.3,2,2.4c0.1,0,0.2,0,0.3,0c0.7,0,1.3-0.1,1.9-0.3l0.2,0.9c-0.7,0.3-1.5,0.4-2.3,0.4
	c-1.8,0.1-3.3-1.2-3.4-3c0-0.2,0-0.3,0-0.5c0-2.1,1.2-3.7,3.2-3.7c2.2,0,2.8,2,2.8,3.2c0,0.2,0,0.4-0.1,0.6L85.3,57.8z M88.9,56.9
	c0.1-1-0.5-1.9-1.5-2c-0.1,0-0.1,0-0.2,0c-1.1,0.1-1.9,0.9-1.9,2H88.9z"/>
<path class="st3" d="M87.4,61.3c-1.9,0.1-3.5-1.3-3.6-3.2c0-0.2,0-0.3,0-0.5c0-2.3,1.4-3.9,3.4-3.9c2.2,0,3,1.8,3,3.4
	c0,0.2,0,0.4,0,0.5V58h-4.8c0,1.1,0.9,2,2,2c0,0,0.1,0,0.1,0c0.6,0,1.2-0.1,1.8-0.3l0.2-0.1l0.3,1.3l-0.2,0.1
	C89.1,61.2,88.3,61.4,87.4,61.3z M87.3,54.2c-1.8,0-3,1.4-3,3.5c-0.1,1.7,1.1,3.1,2.7,3.2c0.1,0,0.3,0,0.4,0c0.7,0,1.4-0.1,2-0.3
	l-0.1-0.5c-0.6,0.2-1.2,0.3-1.8,0.3c-1.3,0.1-2.5-0.9-2.6-2.3c0-0.1,0-0.2,0-0.3v-0.2h4.8c0-0.1,0-0.2,0-0.4
	C89.9,56.9,89.8,54.2,87.3,54.2z M89.1,57.1H85v-0.2c0-1.2,0.9-2.1,2.1-2.2c0.5,0,1,0.2,1.3,0.5c0.4,0.5,0.6,1.1,0.6,1.7L89.1,57.1z
	 M85.5,56.7h3.2c0-0.4-0.2-0.9-0.5-1.2c-0.3-0.3-0.6-0.4-1-0.4C86.3,55.1,85.6,55.8,85.5,56.7z"/>
<path class="st3" d="M91.7,56.3c0-0.8,0-1.5-0.1-2.1h1.1v1.3l0,0c0.2-0.9,1-1.5,1.9-1.5c0.1,0,0.3,0,0.4,0v1.2c-0.1,0-0.3,0-0.4,0
	c-0.9,0-1.6,0.7-1.7,1.6c0,0.2-0.1,0.4-0.1,0.6V61h-1.2V56.3z"/>
<path class="st3" d="M93.1,61.2h-1.6v-4.9c0-0.9,0-1.5,0-2.1v-0.2H93v0.8c0.5-0.7,1.3-1.1,2.2-0.9h0.2v1.6l-0.3,0
	c-0.8-0.2-1.6,0.3-1.8,1.1c0,0.1,0,0.2,0,0.3c0,0.2-0.1,0.4-0.1,0.5L93.1,61.2z M91.9,60.8h0.8v-3.4c0-0.2,0-0.4,0.1-0.6
	c0.1-1,0.9-1.7,1.9-1.8h0.2v-0.8h-0.1c-0.8,0-1.5,0.6-1.7,1.4v0.2h-0.4v-1.3h-0.7c0,0.5,0,1.2,0,1.9L91.9,60.8z"/>
<path class="st3" d="M97.1,54.1l1.3,3.9c0.2,0.6,0.4,1.1,0.6,1.7l0,0c0.2-0.6,0.3-1.1,0.6-1.8l1.4-3.8h1.3L99.6,61h-1.2l-2.6-6.8
	L97.1,54.1z"/>
<path class="st3" d="M99.7,61.2h-1.5l-2.8-7.3h1.8l1.4,4c0.2,0.4,0.3,0.8,0.4,1.1c0.1-0.4,0.3-0.8,0.4-1.1l1.4-4h1.8L99.7,61.2z
	 M98.5,60.8h0.9l2.6-6.4h-0.8L99.9,58c-0.2,0.6-0.4,1.2-0.6,1.7v0.2H99l-0.1-0.2c-0.2-0.6-0.3-1.2-0.6-1.7L97,54.3h-0.9L98.5,60.8z"
	/>
<path class="st3" d="M104.8,52.2c0,0.4-0.3,0.8-0.7,0.8c0,0-0.1,0-0.1,0c-0.4,0-0.7-0.3-0.8-0.7c0,0,0,0,0,0c0-0.4,0.3-0.8,0.7-0.8
	c0,0,0,0,0,0C104.4,51.4,104.8,51.7,104.8,52.2C104.8,52.2,104.8,52.2,104.8,52.2z M103.4,61v-6.9h1.2V61H103.4z"/>
<path class="st3" d="M104.9,61.2h-1.7v-7.3h1.7V61.2z M103.6,60.8h0.8v-6.4h-0.8V60.8z M104,53.2c-0.5,0-1-0.4-1-0.9
	c0,0,0-0.1,0-0.1c0-0.6,0.4-1,1-1s1,0.4,1,1c0,0.3-0.1,0.5-0.3,0.7C104.6,53.1,104.3,53.2,104,53.2L104,53.2z M104,51.6
	c-0.3,0-0.6,0.2-0.6,0.5c0,0,0,0,0,0c0,0.3,0.2,0.5,0.5,0.5c0,0,0,0,0,0c0.2,0,0.3-0.1,0.4-0.2c0.1-0.1,0.2-0.2,0.1-0.4l0,0
	C104.6,51.9,104.4,51.7,104,51.6C104.1,51.6,104.1,51.6,104,51.6L104,51.6z"/>
<path class="st3" d="M111.6,60.7c-0.6,0.3-1.3,0.4-2,0.4c-1.8,0.1-3.3-1.3-3.4-3.1c0-0.1,0-0.3,0-0.4c-0.1-1.9,1.4-3.5,3.3-3.6
	c0.1,0,0.3,0,0.4,0c0.6,0,1.2,0.1,1.7,0.3l-0.3,1c-0.4-0.2-0.9-0.3-1.4-0.3c-1.4,0.1-2.5,1.3-2.4,2.7c0.1,1.3,1.1,2.3,2.4,2.4
	c0.5,0,1-0.1,1.5-0.3L111.6,60.7z"/>
<path class="st3" d="M109.7,61.3c-1.9,0.1-3.5-1.4-3.6-3.3c0-0.1,0-0.3,0-0.4c-0.1-2,1.5-3.8,3.5-3.9c0.1,0,0.2,0,0.3,0
	c0.6,0,1.2,0.1,1.8,0.4l0.2,0.1l-0.4,1.4l-0.2-0.1c-0.4-0.2-0.9-0.3-1.3-0.3c-1.3,0.1-2.3,1.2-2.2,2.5c0.1,1.2,1,2.1,2.2,2.2
	c0.5,0,1-0.1,1.4-0.3l0.2-0.1l0.3,1.3l-0.2,0.1C111.1,61.2,110.4,61.3,109.7,61.3z M109.9,54.2c-1.8-0.1-3.3,1.2-3.5,3
	c0,0.1,0,0.3,0,0.4c-0.2,1.6,1,3.1,2.7,3.3c0.2,0,0.3,0,0.5,0c0.6,0,1.2-0.1,1.7-0.3l-0.1-0.5c-0.4,0.2-0.9,0.3-1.4,0.3
	c-1.5-0.1-2.7-1.4-2.6-3c0.1-1.4,1.2-2.5,2.6-2.6c0.4,0,0.9,0.1,1.3,0.2l0.2-0.5C110.9,54.3,110.4,54.2,109.9,54.2z"/>
<path class="st3" d="M114.4,52.2c0,0.4-0.3,0.7-0.7,0.8c0,0-0.1,0-0.1,0c-0.4,0-0.7-0.3-0.8-0.7c0,0,0,0,0,0c0-0.4,0.3-0.8,0.7-0.8
	c0,0,0,0,0,0C114.1,51.4,114.4,51.7,114.4,52.2C114.5,52.2,114.5,52.2,114.4,52.2z M113.1,61v-6.9h1.2V61H113.1z"/>
<path class="st3" d="M114.5,61.2h-1.7v-7.3h1.7V61.2z M113.3,60.8h0.8v-6.4h-0.8V60.8z M113.7,53.2c-0.5,0-1-0.4-1-0.9
	c0,0,0-0.1,0-0.1c0-0.6,0.4-1,1-1s1,0.4,1,1c0,0.3-0.1,0.5-0.3,0.7C114.2,53.1,113.9,53.2,113.7,53.2z M113.7,51.6
	c-0.3,0-0.6,0.2-0.6,0.5c0,0,0,0,0,0c0,0.3,0.2,0.5,0.5,0.5c0,0,0,0,0,0c0.2,0,0.3-0.1,0.4-0.2c0.1-0.1,0.1-0.2,0.1-0.4l0,0
	C114.2,51.9,114,51.7,113.7,51.6C113.7,51.6,113.7,51.6,113.7,51.6L113.7,51.6z"/>
<path class="st3" d="M122.6,57.5c0.2,1.8-1.2,3.5-3,3.6c-0.1,0-0.2,0-0.4,0c-1.8,0-3.3-1.4-3.3-3.2c0-0.1,0-0.2,0-0.3
	c-0.2-1.8,1.2-3.5,3-3.6c0.1,0,0.2,0,0.4,0c1.8,0,3.3,1.4,3.3,3.2C122.6,57.3,122.6,57.4,122.6,57.5z M117.1,57.6
	c0,1.5,0.9,2.6,2.1,2.6s2.1-1.1,2.1-2.7c0-1.2-0.6-2.6-2-2.6S117.1,56.3,117.1,57.6z"/>
<path class="st3" d="M119.2,61.3c-1.9,0-3.5-1.5-3.5-3.4c0-0.1,0-0.2,0-0.3c-0.1-2,1.3-3.7,3.3-3.8c0.1,0,0.2,0,0.3,0
	c1.9,0,3.5,1.5,3.5,3.4c0,0.1,0,0.2,0,0.3c0.1,2-1.3,3.7-3.3,3.8C119.4,61.3,119.3,61.4,119.2,61.3z M119.3,54.2
	c-1.7,0-3.2,1.3-3.2,3.1c0,0.1,0,0.2,0,0.4c-0.1,1.7,1.1,3.2,2.8,3.3c0.1,0,0.2,0,0.3,0c1.7,0,3.2-1.3,3.2-3c0-0.1,0-0.3,0-0.4
	c0.2-1.6-1-3.1-2.7-3.3C119.6,54.2,119.4,54.2,119.3,54.2z M119.2,60.4c-1.3,0-2.3-1.2-2.3-2.8c0-1.4,0.7-2.9,2.3-2.9
	s2.3,1.5,2.3,2.8C121.5,59.2,120.5,60.4,119.2,60.4z M119.2,55.1c-1.3,0-1.9,1.2-1.9,2.5c0,1.4,0.8,2.4,1.9,2.4s1.9-1,1.9-2.5
	C121.1,56.7,120.7,55.1,119.2,55.1L119.2,55.1z"/>
<path class="st3" d="M124,59.7c0.5,0.3,1.1,0.5,1.6,0.5c0.9,0,1.3-0.5,1.3-1s-0.4-0.9-1.3-1.3c-1.2-0.4-1.8-1.1-1.8-1.9
	c0.1-1.2,1-2.1,2.2-2c0.1,0,0.1,0,0.2,0c0.6,0,1.2,0.1,1.7,0.4l-0.3,0.9c-0.4-0.3-0.9-0.4-1.4-0.4c-0.7,0-1.2,0.4-1.2,0.9
	s0.4,0.8,1.3,1.2c1.2,0.5,1.8,1,1.8,2.1c0,1.2-0.9,2-2.6,2c-0.7,0-1.3-0.1-1.9-0.5L124,59.7z"/>
<path class="st3" d="M125.6,61.3c-0.7,0-1.4-0.2-2-0.5l-0.2-0.1l0.4-1.4l0.2,0.2c0.5,0.3,1,0.4,1.5,0.5c0.7,0,1.1-0.3,1.1-0.8
	s-0.2-0.7-1.1-1.1c-1.6-0.6-2-1.5-2-2.1c0.1-1.3,1.2-2.3,2.4-2.2c0,0,0.1,0,0.1,0c0.6,0,1.2,0.2,1.8,0.5l0.1,0.1l-0.4,1.3l-0.2-0.2
	c-0.4-0.2-0.8-0.4-1.3-0.4c-0.6,0-0.9,0.3-0.9,0.7s0.3,0.6,1.2,1c1.3,0.5,1.9,1.2,1.9,2.3C128.4,60.4,127.3,61.3,125.6,61.3z
	 M123.9,60.6c0.5,0.2,1.1,0.4,1.7,0.4c1.4,0,2.3-0.7,2.3-1.8c0-0.9-0.5-1.4-1.7-1.9c-0.8-0.3-1.4-0.6-1.4-1.4c0-0.7,0.6-1.2,1.3-1.1
	c0,0,0.1,0,0.1,0c0.4,0,0.9,0.1,1.3,0.3l0.2-0.5c-0.4-0.2-0.9-0.3-1.4-0.3c-1.1-0.1-2,0.6-2.1,1.7c0,0,0,0.1,0,0.1
	c0,0.8,0.6,1.3,1.7,1.7c0.9,0.3,1.4,0.7,1.4,1.5c0,0.6-0.4,1.2-1.5,1.2c-0.5,0-1.1-0.1-1.5-0.4L123.9,60.6z"/>
<path class="st3" d="M134,51.4V61h-1.2v-9.6H134z"/>
<path class="st3" d="M134.2,61.2h-1.6v-10h1.6V61.2z M133,60.8h0.8v-9.1H133V60.8z"/>
<path class="st3" d="M136.3,56c0-0.7,0-1.3-0.1-1.8h1.1l0.1,1.1l0,0c0.5-0.8,1.3-1.3,2.3-1.3c1,0,2.4,0.6,2.4,2.9V61h-1.3v-4
	c0-1.1-0.4-2-1.6-2c-0.8,0-1.5,0.5-1.7,1.3c-0.1,0.2-0.1,0.4-0.1,0.6V61h-1.3V56z"/>
<path class="st3" d="M142.3,61.2h-1.7V57c0-0.8-0.2-1.8-1.4-1.8c-0.7,0-1.3,0.5-1.5,1.1c-0.1,0.2-0.1,0.3-0.1,0.5v4.3H136V56
	c0-0.8,0-1.3-0.1-1.8v-0.2h1.5v0.8c0.5-0.6,1.3-0.9,2.1-0.9c1.2,0,2.6,0.8,2.6,3.1L142.3,61.2z M141,60.8h0.8v-3.9
	c0-2.6-1.8-2.7-2.2-2.7c-0.9,0-1.7,0.4-2.1,1.2l-0.1,0.1h-0.3v-0.2l-0.1-0.9h-0.7c0,0.5,0,1,0,1.7v4.8h0.8v-3.9c0-0.2,0-0.4,0.1-0.7
	c0.3-0.8,1-1.4,1.9-1.4c1.1,0,1.8,0.8,1.8,2.2V60.8z"/>
<path class="st3" d="M145.5,52.2v2h1.8v1h-1.8v3.7c0,0.8,0.2,1.3,0.9,1.3c0.2,0,0.5,0,0.7-0.1l0.1,0.9c-0.4,0.1-0.7,0.2-1.1,0.2
	c-0.5,0-1-0.2-1.4-0.5c-0.4-0.5-0.5-1.2-0.5-1.8v-3.8h-1.1v-1h1.1v-1.6L145.5,52.2z"/>
<path class="st3" d="M146.1,61.3c-0.6,0-1.1-0.2-1.5-0.6c-0.4-0.5-0.6-1.2-0.5-1.9v-3.5h-1.1v-1.4h1.1v-1.6l1.6-0.4v2h1.8v1.4h-1.8
	v3.5c0,0.9,0.3,1.1,0.7,1.1c0.2,0,0.5,0,0.7-0.1l0.3-0.1l0.1,1.3l-0.1,0.1C147,61.3,146.6,61.3,146.1,61.3z M143.5,54.9h1.1v4
	c-0.1,0.6,0.1,1.2,0.4,1.6c0.3,0.3,0.8,0.5,1.2,0.5c0.3,0,0.6,0,0.9-0.1v-0.5c-0.2,0-0.4,0-0.5,0c-1.1,0-1.1-1.2-1.1-1.5v-3.9h1.8
	v-0.5h-1.8v-1.9l-0.8,0.2v1.7h-1.1L143.5,54.9z"/>
<path class="st3" d="M149.3,57.8c-0.1,1.2,0.8,2.3,2,2.4c0.1,0,0.2,0,0.4,0c0.6,0,1.3-0.1,1.9-0.3l0.2,0.9c-0.7,0.3-1.5,0.4-2.3,0.4
	c-1.8,0.1-3.3-1.2-3.4-3c0-0.2,0-0.3,0-0.5c0-2.1,1.2-3.7,3.2-3.7c2.2,0,2.8,2,2.8,3.2c0,0.2,0,0.4,0,0.6L149.3,57.8z M153,56.9
	c0.1-1-0.6-1.9-1.5-2c-0.1,0-0.1,0-0.2,0c-1.1,0.1-1.9,0.9-1.9,2H153z"/>
<path class="st3" d="M151.5,61.3c-1.9,0.1-3.5-1.3-3.6-3.2c0-0.2,0-0.3,0-0.5c0-2.3,1.4-3.9,3.4-3.9c2.2,0,3,1.8,3,3.4
	c0,0.2,0,0.4,0,0.5V58h-4.8c0,1.1,0.9,2,2,2c0,0,0.1,0,0.1,0c0.6,0,1.2-0.1,1.8-0.3l0.2-0.1l0.3,1.3l-0.2,0.1
	C153.1,61.2,152.3,61.4,151.5,61.3z M151.3,54.2c-1.8,0-3,1.4-3,3.5c-0.1,1.7,1.1,3.1,2.7,3.2c0.1,0,0.3,0,0.4,0
	c0.7,0,1.4-0.1,2-0.3l-0.1-0.5c-0.6,0.2-1.1,0.3-1.7,0.3c-1.3,0.1-2.5-0.9-2.6-2.2c0-0.1,0-0.2,0-0.3v-0.2h4.9c0-0.1,0-0.2,0-0.4
	C154,56.9,153.9,54.2,151.3,54.2L151.3,54.2z M153.2,57.1h-4.1v-0.2c0-1.2,0.9-2.1,2.1-2.2c0.5,0,1,0.2,1.3,0.5
	c0.4,0.5,0.6,1.1,0.6,1.7L153.2,57.1z M149.6,56.7h3.2c0-0.4-0.2-0.9-0.5-1.2c-0.3-0.3-0.6-0.4-1-0.4
	C150.4,55.1,149.7,55.8,149.6,56.7z"/>
<path class="st3" d="M161.6,54.1c0,0.5-0.1,1-0.1,1.9v4c0,1.6-0.3,2.5-1,3.1c-0.7,0.6-1.6,0.9-2.5,0.8c-0.8,0-1.6-0.2-2.3-0.6l0.3-1
	c0.6,0.4,1.3,0.5,2,0.5c1.3,0,2.2-0.7,2.2-2.4v-0.8l0,0c-0.5,0.8-1.3,1.2-2.2,1.2c-1.7-0.1-3-1.5-2.9-3.2c0-0.1,0-0.1,0-0.2
	c0-2.3,1.5-3.6,3.1-3.6c0.9-0.1,1.7,0.4,2.1,1.2l0,0l0.1-1L161.6,54.1z M160.3,56.8c0-0.2,0-0.4-0.1-0.6c-0.2-0.8-0.9-1.3-1.7-1.3
	c-1.2,0-2,1-2,2.6c0,1.3,0.7,2.5,2,2.5c0.8,0,1.5-0.5,1.7-1.3c0.1-0.2,0.1-0.4,0.1-0.7L160.3,56.8z"/>
<path class="st3" d="M158.1,64.2c-0.8,0-1.7-0.2-2.4-0.6l-0.1-0.1l0.4-1.4l0.2,0.1c0.6,0.3,1.2,0.5,1.9,0.5c1.3,0,2-0.7,2-2.2v-0.2
	c-0.5,0.5-1.3,0.8-2,0.8c-1.8-0.1-3.2-1.6-3.1-3.4c0,0,0-0.1,0-0.1c0-2.5,1.7-3.8,3.3-3.8c0.8,0,1.5,0.3,2,0.8v-0.7h1.5v0.2
	c0,0.5,0,1.1,0,1.9v4c0,1.6-0.3,2.6-1.1,3.3C160,63.9,159.1,64.2,158.1,64.2z M156.1,63.3c0.6,0.3,1.3,0.5,2,0.5
	c0.9,0,1.7-0.2,2.4-0.8c0.6-0.6,0.9-1.5,0.9-3v-4c0-0.7,0-1.2,0-1.7h-0.7l-0.1,1h-0.3l-0.1-0.1c-0.4-0.7-1.1-1.1-1.9-1.1
	c-1.4,0-2.9,1.2-2.9,3.4c-0.2,1.6,1,3,2.5,3.1c0.1,0,0.1,0,0.2,0c0.8,0,1.6-0.3,2-1l0.1-0.1h0.3v0.2v0.8c0,1.7-0.9,2.6-2.4,2.6
	c-0.7,0-1.3-0.1-1.9-0.4L156.1,63.3z M158.5,60.2c-1.3,0-2.2-1.1-2.2-2.7s0.9-2.8,2.3-2.8c0.9,0,1.7,0.6,1.9,1.5
	c0.1,0.2,0.1,0.4,0.1,0.6v1.2c0,0.2,0,0.5-0.1,0.7C160.2,59.7,159.4,60.2,158.5,60.2L158.5,60.2z M158.5,55.2c-1.1,0-1.8,1-1.8,2.4
	c0,1,0.5,2.3,1.8,2.3c0.7,0,1.3-0.5,1.5-1.1c0.1-0.2,0.1-0.4,0.1-0.6v-1.2c0-0.2,0-0.3-0.1-0.5C159.8,55.7,159.2,55.2,158.5,55.2
	L158.5,55.2z"/>
<path class="st3" d="M163.5,56.3c0-0.8,0-1.5-0.1-2.1h1.1v1.3l0,0c0.2-0.9,1-1.5,1.9-1.5c0.1,0,0.2,0,0.4,0v1.2c-0.1,0-0.3,0-0.4,0
	c-0.9,0-1.6,0.7-1.7,1.6c0,0.2-0.1,0.4-0.1,0.6V61h-1.2L163.5,56.3z"/>
<path class="st3" d="M165,61.2h-1.6v-4.9c0-0.9,0-1.5,0-2.1v-0.2h1.5v0.8c0.5-0.7,1.3-1.1,2.2-0.9h0.2v1.6l-0.3-0.1
	c-0.1,0-0.3,0-0.4,0c-0.8,0-1.5,0.6-1.6,1.4c0,0.2-0.1,0.4-0.1,0.5L165,61.2z M163.8,60.8h0.8v-3.4c0-0.2,0-0.4,0.1-0.6
	c0.1-1,0.9-1.7,1.9-1.8h0.2v-0.8h-0.1c-0.8,0-1.5,0.6-1.7,1.3l-0.1,0.2h-0.4v-1.3h-0.7c0,0.5,0,1.2,0,1.9V60.8z"/>
<path class="st3" d="M171.9,61l-0.1-0.9l0,0c-0.5,0.6-1.3,1-2.1,1c-1.1,0-2-0.8-2.1-1.9c0,0,0-0.1,0-0.1c0-1.7,1.5-2.6,4.1-2.5v-0.1
	c0.1-0.8-0.4-1.5-1.2-1.6c-0.1,0-0.2,0-0.4,0c-0.6,0-1.2,0.2-1.8,0.5l-0.3-0.8c0.7-0.4,1.5-0.6,2.3-0.6c2.1,0,2.6,1.4,2.6,2.8v2.6
	c0,0.6,0,1.1,0.1,1.7H171.9z M171.7,57.5c-1.4,0-2.9,0.2-2.9,1.5c0,0.6,0.4,1.1,1,1.2c0.1,0,0.1,0,0.2,0c0.7,0,1.4-0.4,1.6-1.2
	c0-0.1,0.1-0.3,0.1-0.4L171.7,57.5z"/>
<path class="st3" d="M169.6,61.3c-1.2,0.1-2.2-0.8-2.3-2c0,0,0-0.1,0-0.1c0-0.6,0.2-1.2,0.7-1.7c1-0.8,2.2-1.2,3.4-1.1
	c0.1-0.6-0.4-1.2-1-1.3c-0.1,0-0.2,0-0.3,0c-0.6,0-1.2,0.2-1.7,0.5l-0.2,0.2l-0.4-1.2l0.1-0.1c0.7-0.4,1.5-0.7,2.4-0.6
	c1.8,0,2.8,1.1,2.8,3v2.6c0,0.5,0,1.1,0.1,1.6v0.3h-1.6l-0.1-0.6C171.1,61.1,170.4,61.3,169.6,61.3z M171.6,56.8
	c-1.2-0.1-2.4,0.2-3.3,0.9c-0.4,0.4-0.6,0.9-0.6,1.4c0,1,0.8,1.7,1.7,1.8c0.1,0,0.1,0,0.2,0c0.8,0,1.5-0.3,1.9-0.9l0.1-0.1h0.3
	l0.1,0.2l0.1,0.7h0.7c-0.1-0.5-0.1-1-0.1-1.4v-2.6c0-1.7-0.8-2.6-2.4-2.6c-0.7,0-1.4,0.2-2,0.5l0.1,0.4c0.5-0.3,1.1-0.4,1.7-0.4
	c0.9-0.1,1.7,0.5,1.8,1.4c0,0.1,0,0.2,0,0.4v0.3H171.6L171.6,56.8z M170,60.4c-0.7,0.1-1.3-0.5-1.4-1.2c0-0.1,0-0.1,0-0.2
	c0-0.4,0.1-0.7,0.4-1c0.8-0.6,1.7-0.8,2.7-0.7h0.2v1.4c0,0.2,0,0.3-0.1,0.5C171.5,59.9,170.8,60.4,170,60.4z M171.5,57.7
	c-0.8-0.1-1.5,0.1-2.2,0.6c-0.2,0.2-0.3,0.5-0.3,0.7c-0.1,0.5,0.3,0.9,0.8,1c0.1,0,0.2,0,0.2,0c0.6,0,1.2-0.4,1.4-1
	c0-0.1,0.1-0.2,0.1-0.3V57.7z"/>
<path class="st3" d="M174.9,50.9h1.2V61h-1.2V50.9z"/>
<path class="st3" d="M176.4,61.2h-1.7V50.7h1.7V61.2z M175.1,60.8h0.8v-9.6h-0.8V60.8z"/>
<path class="st3" d="M178.9,57.8c-0.1,1.2,0.8,2.3,2,2.4c0.1,0,0.2,0,0.4,0c0.6,0,1.3-0.1,1.9-0.3l0.2,0.9c-0.7,0.3-1.5,0.4-2.3,0.4
	c-1.8,0.1-3.3-1.2-3.4-3c0-0.2,0-0.3,0-0.5c0-2.1,1.3-3.7,3.3-3.7c2.2,0,2.8,2,2.8,3.2c0,0.2,0,0.4,0,0.6L178.9,57.8z M182.6,56.9
	c0.1-1-0.6-1.9-1.5-2c-0.1,0-0.1,0-0.2,0c-1.1,0.1-1.9,0.9-1.9,2H182.6z"/>
<path class="st3" d="M181.1,61.3c-1.9,0.1-3.5-1.3-3.6-3.2c0-0.2,0-0.3,0-0.5c0-2.3,1.4-3.9,3.4-3.9c2.2,0,3,1.8,3,3.4
	c0,0.2,0,0.4,0,0.5V58h-4.8c0,1.1,0.9,2,2,2c0,0,0.1,0,0.1,0c0.6,0,1.2-0.1,1.8-0.3l0.2-0.1l0.3,1.3l-0.2,0.1
	C182.7,61.2,181.9,61.4,181.1,61.3z M181,54.2c-1.8,0-3,1.4-3,3.5c-0.1,1.7,1.1,3.1,2.7,3.2c0.1,0,0.3,0,0.4,0c0.7,0,1.4-0.1,2-0.3
	l-0.1-0.5c-0.6,0.2-1.1,0.3-1.7,0.3c-1.3,0.1-2.5-0.9-2.6-2.2c0-0.1,0-0.2,0-0.3v-0.2h4.8c0-0.1,0-0.2,0-0.4
	C183.6,56.9,183.5,54.2,181,54.2z M182.8,57.1h-4.1v-0.2c0-1.2,0.9-2.1,2.1-2.2c0.5,0,1,0.2,1.3,0.5c0.4,0.5,0.6,1.1,0.6,1.7
	L182.8,57.1z M179.2,56.7h3.2c0-0.4-0.2-0.9-0.5-1.2c-0.3-0.3-0.6-0.4-1-0.4C180,55.1,179.3,55.8,179.2,56.7L179.2,56.7z"/>
<path class="st3" d="M185.1,59.7c0.5,0.3,1.1,0.5,1.6,0.5c0.9,0,1.3-0.5,1.3-1s-0.4-0.9-1.3-1.3c-1.2-0.5-1.8-1.1-1.8-1.9
	c0.1-1.2,1.1-2.1,2.2-2c0,0,0.1,0,0.1,0c0.6,0,1.2,0.1,1.7,0.4l-0.3,0.9c-0.4-0.3-0.9-0.4-1.4-0.4c-0.7,0-1.1,0.4-1.1,0.9
	s0.4,0.8,1.3,1.2c1.2,0.5,1.8,1,1.8,2.1c0,1.2-0.9,2-2.6,2c-0.7,0-1.3-0.1-1.9-0.5L185.1,59.7z"/>
<path class="st3" d="M186.8,61.3c-0.7,0-1.4-0.2-2-0.5l-0.1-0.1l0.4-1.4l0.2,0.2c0.5,0.3,1,0.4,1.5,0.5c0.7,0,1.1-0.3,1.1-0.8
	s-0.2-0.7-1.1-1.1c-1.6-0.6-2-1.5-2-2.1c0.1-1.3,1.2-2.3,2.4-2.2c0,0,0.1,0,0.1,0c0.6,0,1.2,0.2,1.8,0.5l0.1,0.1l-0.4,1.3l-0.2-0.2
	c-0.4-0.2-0.8-0.4-1.3-0.4c-0.6,0-0.9,0.3-0.9,0.7s0.3,0.6,1.2,1c1.3,0.5,1.9,1.2,1.9,2.3C189.5,60.4,188.4,61.3,186.8,61.3z
	 M185.1,60.6c0.5,0.2,1.1,0.4,1.7,0.4c1.4,0,2.4-0.7,2.4-1.8c0-0.9-0.5-1.4-1.7-1.9c-0.8-0.3-1.4-0.6-1.4-1.4c0-0.7,0.6-1.2,1.3-1.1
	c0,0,0.1,0,0.1,0c0.4,0,0.9,0.1,1.3,0.3l0.2-0.5c-0.4-0.2-0.9-0.3-1.4-0.3c-1.1-0.1-2,0.6-2.1,1.7c0,0,0,0.1,0,0.1
	c0,0.8,0.6,1.3,1.7,1.7c0.9,0.3,1.4,0.7,1.4,1.5c0,0.6-0.4,1.2-1.5,1.2c-0.5,0-1-0.1-1.5-0.4L185.1,60.6z"/>
<path class="st3" d="M194,51.6c0.8-0.1,1.6-0.2,2.4-0.2c1-0.1,1.9,0.2,2.7,0.8c0.6,0.5,0.9,1.2,0.8,2c0,0.7-0.2,1.5-0.7,2
	c-0.8,0.7-1.8,1.1-2.9,1c-0.3,0-0.7,0-1-0.1V61H194V51.6z M195.2,56.2c0.3,0.1,0.7,0.1,1,0.1c1.5,0,2.4-0.7,2.4-2s-0.9-1.9-2.3-1.9
	c-0.4,0-0.8,0-1.2,0.1L195.2,56.2z"/>
<path class="st3" d="M195.4,61.2h-1.7v-9.8h0.2c0.8-0.1,1.6-0.2,2.4-0.2c1-0.1,2,0.2,2.8,0.8c0.6,0.5,0.9,1.3,0.9,2.2
	c0,0.8-0.3,1.6-0.8,2.2c-0.8,0.8-1.9,1.2-3.1,1.1c-0.3,0-0.5,0-0.8,0L195.4,61.2z M194.2,60.8h0.8v-3.9l0.3,0.1
	c0.3,0.1,0.6,0.1,0.9,0.1c1,0.1,2-0.3,2.8-1c0.5-0.5,0.7-1.2,0.7-1.9c0-0.7-0.3-1.4-0.8-1.8c-0.7-0.5-1.6-0.8-2.5-0.7
	c-0.7,0-1.4,0-2.2,0.2L194.2,60.8z M196.2,56.5c-0.4,0-0.7,0-1.1-0.1h-0.2v-4h0.2c0.4-0.1,0.8-0.1,1.2-0.1c1.6,0,2.5,0.8,2.5,2.1
	S197.8,56.5,196.2,56.5L196.2,56.5z M195.4,56c0.3,0,0.5,0,0.8,0c1.4,0,2.2-0.6,2.2-1.8c0-1.5-1.3-1.7-2-1.7c-0.3,0-0.6,0-0.9,0.1
	L195.4,56z"/>
<path class="st3" d="M204.9,61l-0.1-0.9l0,0c-0.5,0.6-1.3,1-2.1,1c-1.1,0-2-0.8-2.1-1.9c0,0,0-0.1,0-0.1c0-1.7,1.5-2.6,4.1-2.5v-0.1
	c0.1-0.8-0.4-1.5-1.2-1.6c-0.1,0-0.2,0-0.4,0c-0.6,0-1.3,0.2-1.8,0.5l-0.3-0.8c0.7-0.4,1.5-0.6,2.3-0.6c2.1,0,2.6,1.4,2.6,2.8v2.6
	c0,0.6,0,1.1,0.1,1.7H204.9z M204.7,57.5c-1.4,0-2.9,0.2-2.9,1.5c0,0.6,0.4,1.1,1,1.2c0.1,0,0.1,0,0.2,0c0.7,0,1.4-0.4,1.6-1.2
	c0-0.1,0.1-0.3,0.1-0.4L204.7,57.5z"/>
<path class="st3" d="M202.6,61.3c-1.2,0.1-2.2-0.8-2.3-2c0,0,0-0.1,0-0.1c0-0.6,0.2-1.2,0.7-1.7c1-0.8,2.2-1.2,3.4-1.1
	c0.1-0.6-0.4-1.2-1-1.3c-0.1,0-0.2,0-0.3,0c-0.6,0-1.2,0.2-1.7,0.5l-0.2,0.2l-0.4-1.2l0.1-0.1c0.7-0.4,1.5-0.7,2.4-0.6
	c1.8,0,2.8,1.1,2.8,3v2.6c0,0.5,0,1.1,0.1,1.6l0.1,0.3h-1.6l-0.1-0.6C204.1,61.1,203.4,61.4,202.6,61.3z M204.6,56.8
	c-1.2-0.1-2.3,0.2-3.3,0.9c-0.4,0.4-0.6,0.9-0.6,1.4c0,1,0.8,1.7,1.7,1.8c0.1,0,0.1,0,0.2,0c0.8,0,1.5-0.3,1.9-0.9l0.1-0.1h0.3
	l0.1,0.2l0.1,0.7h0.7c-0.1-0.5-0.1-1-0.1-1.4v-2.6c0-1.7-0.8-2.6-2.4-2.6c-0.7,0-1.4,0.2-2,0.5l0.1,0.4c0.5-0.3,1.1-0.4,1.7-0.4
	c0.9-0.1,1.7,0.5,1.8,1.4c0,0.1,0,0.2,0,0.4v0.3H204.6L204.6,56.8z M203,60.4c-0.7,0.1-1.3-0.5-1.4-1.2c0-0.1,0-0.1,0-0.2
	c0-0.4,0.1-0.8,0.4-1c0.8-0.6,1.7-0.8,2.7-0.7h0.2v1.4c0,0.2,0,0.3-0.1,0.5C204.5,59.9,203.8,60.4,203,60.4z M204.5,57.7
	c-0.8-0.1-1.5,0.1-2.2,0.6c-0.2,0.2-0.3,0.5-0.3,0.7c-0.1,0.5,0.3,0.9,0.8,1c0.1,0,0.2,0,0.2,0c0.6,0,1.2-0.4,1.4-1
	c0-0.1,0.1-0.2,0.1-0.3V57.7z"/>
<path class="st3" d="M207.9,56c0-0.7,0-1.3-0.1-1.8h1.1l0.1,1.1l0,0c0.5-0.8,1.3-1.3,2.3-1.3c1,0,2.4,0.6,2.4,2.9V61h-1.3v-4
	c0-1.1-0.4-2-1.6-2c-0.8,0-1.5,0.5-1.7,1.3c-0.1,0.2-0.1,0.4-0.1,0.6V61h-1.2L207.9,56z"/>
<path class="st3" d="M213.9,61.2h-1.7V57c0-0.8-0.2-1.8-1.4-1.8c-0.7,0-1.3,0.5-1.5,1.1c-0.1,0.2-0.1,0.3-0.1,0.5v4.3h-1.7V56
	c0-0.8,0-1.3-0.1-1.8v-0.2h1.5v0.8c0.5-0.6,1.3-0.9,2.1-0.9c1.2,0,2.6,0.8,2.6,3.1L213.9,61.2z M212.7,60.8h0.8v-3.9
	c0-2.6-1.8-2.7-2.2-2.7c-0.9,0-1.7,0.4-2.1,1.2l-0.1,0.1h-0.3v-0.2l-0.1-0.9h-0.7c0,0.5,0,1,0,1.7v4.8h0.8v-3.9c0-0.2,0-0.4,0.1-0.7
	c0.3-0.8,1-1.4,1.9-1.4c1.1,0,1.8,0.8,1.8,2.2V60.8z"/>
<path class="st3" d="M219.5,61l-0.1-0.9l0,0c-0.5,0.6-1.3,1-2.1,1c-1.1,0-2-0.8-2.1-1.9c0,0,0-0.1,0-0.1c0-1.7,1.5-2.6,4.1-2.5v-0.1
	c0.1-0.8-0.4-1.5-1.2-1.6c-0.1,0-0.2,0-0.4,0c-0.6,0-1.3,0.2-1.8,0.5l-0.3-0.8c0.7-0.4,1.5-0.6,2.3-0.6c2.1,0,2.6,1.4,2.6,2.8v2.6
	c0,0.5,0,1.1,0.1,1.6L219.5,61z M219.3,57.5c-1.4,0-2.9,0.2-2.9,1.5c0,0.6,0.4,1.1,1,1.2c0,0,0.1,0,0.1,0c0.7,0,1.4-0.4,1.7-1.2
	c0-0.1,0.1-0.3,0.1-0.4L219.3,57.5z"/>
<path class="st3" d="M217.3,61.3c-1.2,0.1-2.2-0.8-2.3-2c0,0,0-0.1,0-0.1c0-0.6,0.2-1.2,0.7-1.7c1-0.8,2.2-1.2,3.4-1.1
	c0.1-0.6-0.4-1.2-1-1.3c-0.1,0-0.2,0-0.3,0c-0.6,0-1.2,0.2-1.7,0.5l-0.2,0.2l-0.4-1.2l0.1-0.1c0.7-0.4,1.5-0.7,2.4-0.6
	c1.8,0,2.8,1.1,2.8,3v2.6c0,0.5,0,1.1,0.1,1.6l0.1,0.3h-1.6l-0.1-0.6C218.7,61.1,218,61.4,217.3,61.3z M219.3,56.8
	c-1.2-0.1-2.3,0.2-3.3,0.9c-0.4,0.4-0.6,0.9-0.6,1.4c0,1,0.8,1.7,1.7,1.8c0.1,0,0.1,0,0.2,0c0.7,0,1.4-0.3,1.9-0.9l0.1-0.1h0.3
	l0.1,0.2l0.1,0.7h0.7c-0.1-0.5-0.1-1-0.1-1.4v-2.6c0-1.7-0.8-2.6-2.4-2.6c-0.7,0-1.4,0.2-2,0.5l0.1,0.4c0.5-0.3,1.1-0.4,1.7-0.4
	c0.9-0.1,1.7,0.5,1.8,1.4c0,0.1,0,0.2,0,0.4v0.3H219.3L219.3,56.8z M217.6,60.4c-0.7,0-1.3-0.5-1.4-1.2c0-0.1,0-0.1,0-0.2
	c0-0.4,0.1-0.8,0.4-1.1c0.8-0.5,1.7-0.8,2.7-0.7h0.2v1.4c0,0.2,0,0.3-0.1,0.5C219.2,59.9,218.5,60.5,217.6,60.4L217.6,60.4z
	 M219.2,57.7c-0.8-0.1-1.5,0.1-2.2,0.6c-0.2,0.2-0.3,0.5-0.3,0.8c-0.1,0.5,0.3,0.9,0.8,1c0.1,0,0.2,0,0.2,0c0.7,0,1.2-0.4,1.5-1
	c0-0.1,0.1-0.2,0.1-0.3L219.2,57.7z"/>
<path class="st3" d="M222.5,56c0-0.7,0-1.3-0.1-1.8h1.1l0.1,1.1l0,0c0.4-0.8,1.3-1.3,2.2-1.3c0.9,0,1.7,0.5,1.9,1.4l0,0
	c0.2-0.3,0.4-0.6,0.8-0.9c0.4-0.3,1-0.5,1.5-0.5c0.9,0,2.3,0.6,2.3,3v4h-1.2v-3.9c0-1.3-0.5-2.1-1.5-2.1c-0.7,0-1.3,0.5-1.5,1.1
	c-0.1,0.2-0.1,0.4-0.1,0.6V61h-1.2v-4.1c0-1.1-0.5-1.9-1.4-1.9c-0.7,0-1.3,0.5-1.5,1.3c-0.1,0.2-0.1,0.4-0.1,0.6V61h-1.2V56z"/>
<path class="st3" d="M232.5,61.2h-1.6v-4.1c0-1.3-0.4-1.9-1.3-1.9c-0.6,0-1.1,0.4-1.3,1c-0.1,0.2-0.1,0.4-0.1,0.5v4.4h-1.6v-4.3
	c0-0.4-0.1-1.7-1.2-1.7c-0.6,0-1.2,0.5-1.3,1.1c-0.1,0.2-0.1,0.4-0.1,0.5v4.3h-1.6V56c0-0.8,0-1.3-0.1-1.8v-0.2h1.5v0.8
	c0.5-0.6,1.2-0.9,2-0.9c0.8,0,1.6,0.4,2,1.2c0.2-0.2,0.4-0.5,0.6-0.6c0.5-0.4,1-0.5,1.6-0.5c0.4,0,2.5,0.2,2.5,3.2L232.5,61.2z
	 M231.3,60.8h0.8V57c0-2-1-2.8-2-2.8c-0.5,0-1,0.1-1.4,0.4c-0.3,0.2-0.5,0.5-0.7,0.8l-0.1,0.1h-0.3l-0.1-0.1c-0.2-0.7-1-1.2-1.7-1.2
	c-0.8,0-1.6,0.4-2,1.2l-0.1,0.1h-0.3l-0.1-0.2v-0.9h-0.7c0,0.5,0,1,0,1.7v4.8h0.8v-4c0-0.2,0-0.5,0.1-0.7c0.2-0.8,0.9-1.3,1.7-1.4
	c1,0,1.6,0.8,1.6,2.1v3.9h0.8v-4c0-0.2,0-0.5,0.1-0.7c0.2-0.7,0.9-1.3,1.7-1.3c0.6,0,1.7,0.3,1.7,2.3L231.3,60.8z"/>
<path class="st3" d="M238.1,61l-0.1-0.9l0,0c-0.5,0.6-1.3,1-2.1,1c-1.1,0-2-0.8-2.1-1.9c0,0,0-0.1,0-0.1c0-1.7,1.5-2.6,4.1-2.5v-0.1
	c0.1-0.8-0.4-1.5-1.2-1.6c-0.1,0-0.2,0-0.3,0c-0.6,0-1.2,0.2-1.8,0.5l-0.3-0.8c0.7-0.4,1.5-0.6,2.3-0.6c2.1,0,2.6,1.4,2.6,2.8v2.6
	c0,0.5,0,1.1,0.1,1.6L238.1,61z M237.9,57.5c-1.4,0-2.9,0.2-2.9,1.5c0,0.6,0.4,1.1,1,1.2c0.1,0,0.1,0,0.2,0c0.7,0,1.4-0.4,1.6-1.2
	c0-0.1,0.1-0.3,0.1-0.4V57.5z M238.6,51.2l-1.7,2h-0.9l1.2-2H238.6z"/>
<path class="st3" d="M235.9,61.3c-1.2,0.1-2.2-0.8-2.3-2c0,0,0-0.1,0-0.1c0-0.6,0.2-1.3,0.7-1.7c1-0.8,2.2-1.2,3.4-1.1
	c0.1-0.6-0.4-1.2-1-1.3c-0.1,0-0.2,0-0.3,0c-0.6,0-1.2,0.2-1.7,0.5l-0.2,0.2l-0.5-1.2l0.1-0.1c0.7-0.4,1.5-0.7,2.4-0.6
	c1.8,0,2.8,1.1,2.8,3v2.6c0,0.5,0,1.1,0.1,1.6v0.3h-1.6l-0.1-0.6C237.3,61.1,236.6,61.3,235.9,61.3z M237.9,56.8
	c-1.2-0.1-2.4,0.2-3.3,0.9c-0.4,0.4-0.6,0.9-0.6,1.4c0,1,0.8,1.7,1.7,1.8c0.1,0,0.1,0,0.2,0c0.8,0,1.5-0.3,1.9-0.9l0.1-0.1h0.3
	l0.1,0.2l0.1,0.7h0.7c-0.1-0.5-0.1-1-0.1-1.4v-2.6c0-1.7-0.8-2.6-2.4-2.6c-0.7,0-1.4,0.2-2,0.5l0.1,0.4c0.5-0.3,1.1-0.4,1.7-0.4
	c0.9-0.1,1.7,0.5,1.8,1.4c0,0.1,0,0.3,0,0.4v0.3H237.9L237.9,56.8z M236.2,60.4c-0.7,0-1.3-0.5-1.4-1.2c0-0.1,0-0.1,0-0.2
	c0-0.4,0.1-0.8,0.4-1.1c0.8-0.6,1.7-0.8,2.7-0.7h0.2v1.4c0,0.2,0,0.3-0.1,0.5C237.8,59.9,237.1,60.5,236.2,60.4L236.2,60.4z
	 M237.8,57.7c-0.8-0.1-1.5,0.1-2.2,0.6c-0.2,0.2-0.3,0.5-0.3,0.8c-0.1,0.5,0.3,0.9,0.8,1c0.1,0,0.2,0,0.2,0c0.6,0,1.2-0.4,1.4-1
	c0-0.1,0.1-0.2,0.1-0.3L237.8,57.7z M237,53.4h-1.4l1.5-2.4h1.9L237,53.4z M236.4,53h0.4l1.4-1.6h-0.8L236.4,53z"/>
</svg>
