<?xml version="1.0" encoding="utf-8"?>
<!-- Generator: Adobe Illustrator 22.0.0, SVG Export Plug-In . SVG Version: 6.00 Build 0)  -->
<svg version="1.1" id="Capa_1" xmlns="http://www.w3.org/2000/svg" xmlns:xlink="http://www.w3.org/1999/xlink" x="0px" y="0px"
	 viewBox="0 0 78.9 96" style="enable-background:new 0 0 78.9 96;" xml:space="preserve">
<style type="text/css">
	.st0{fill:#2D2D2D;}
	.st1{fill:#383838;}
	.st2{fill:#1E1E1E;}
	.st3{fill:#F9AF1F;}
	.st4{fill:#E5951E;}
	.st5{fill:#1D1D1B;}
</style>
<title>SIPA Logo - rg</title>
<polygon class="st0" points="40.4,45.6 62,33.1 61.9,40.4 40.4,52.9 "/>
<polygon class="st1" points="16.9,32.1 38.4,19.5 62,33.1 40.4,45.6 "/>
<polygon class="st2" points="40.4,45.6 40.4,52.9 16.9,39.3 16.9,32.1 "/>
<polygon class="st3" points="38.4,9.8 16.9,22.3 40.4,35.9 40.4,43.2 61.9,30.6 62,23.3 "/>
<polygon class="st4" points="40.4,35.9 40.4,43.2 16.9,29.6 16.9,22.3 "/>
<polygon class="st0" points="40.4,26.1 62,13.6 61.9,20.8 40.4,33.4 "/>
<polygon class="st1" points="16.9,12.5 38.4,0 62,13.6 40.4,26.1 "/>
<polygon class="st2" points="40.4,26.1 40.4,33.4 16.9,19.8 16.9,12.5 "/>
<path class="st5" d="M41.8,65.7h3.7c1.4-0.1,2.9,0,4.3,0.3c1,0.2,1.9,0.8,2.6,1.6c1.3,1.8,1.3,4.3,0,6.2c-0.7,0.8-1.7,1.4-2.7,1.6
	c-1.6,0.3-3.2,0.4-4.8,0.3h-1.3v9.4h-1.9V65.7z M43.6,67.5v6.3h3.2c0.9,0,1.9-0.1,2.8-0.3c0.6-0.2,1.1-0.6,1.4-1.1
	c0.3-0.5,0.5-1.1,0.5-1.7c0-0.6-0.2-1.2-0.5-1.7c-0.3-0.5-0.8-0.9-1.3-1.1c-0.9-0.3-1.8-0.4-2.7-0.3L43.6,67.5z"/>
<path class="st5" d="M44.4,85.8H41v-21h4.5c1.5-0.1,3,0,4.5,0.3c1.2,0.3,2.2,0.9,3,1.9c0.8,1,1.2,2.3,1.2,3.6c0,1.3-0.4,2.6-1.2,3.6
	c-0.8,1-1.9,1.6-3.1,1.9c-1.6,0.3-3.3,0.4-4.9,0.3h-0.6V85.8z M42.5,84.3h0.3v-9.4H45c1.5,0.1,3.1,0,4.6-0.3
	c0.9-0.2,1.7-0.7,2.3-1.4c0.6-0.7,0.9-1.7,0.8-2.6c0-0.9-0.3-1.9-0.8-2.6c-0.6-0.7-1.3-1.2-2.2-1.4c-1.4-0.2-2.7-0.3-4.1-0.3h-3
	V84.3z M46.8,74.6h-3.9v-7.9h4.1c1-0.1,2,0.1,3,0.4c0.7,0.3,1.3,0.8,1.7,1.4c0.4,0.6,0.6,1.4,0.6,2.1c0,0.8-0.2,1.5-0.6,2.2
	c-0.4,0.6-1,1.1-1.8,1.4C48.9,74.6,47.8,74.7,46.8,74.6z M44.4,73.1h2.4c0.8,0,1.7-0.1,2.5-0.3c0.4-0.2,0.8-0.5,1-0.8
	c0.3-0.4,0.4-0.9,0.4-1.3c0-0.5-0.1-0.9-0.4-1.3c-0.2-0.4-0.6-0.7-1-0.8c-0.8-0.2-1.6-0.3-2.4-0.3h-2.5V73.1z"/>
<path class="st5" d="M26.4,65.7h1.9V85h-1.9V65.7z"/>
<path class="st5" d="M29,85.8h-3.4v-21H29V85.8z M27.1,84.2h0.3V66.5h-0.3V84.2z"/>
<path class="st5" d="M68.5,65.7l9.1,19.4h-2l-3.3-6.9h-8.1l-3.3,6.9h-2.1L68,65.7H68.5z M68.3,69.7l-3.2,6.8h6.4L68.3,69.7z"/>
<path class="st5" d="M78.8,85.8h-3.7L71.8,79h-7.1l-3.3,6.9h-3.8l9.9-21H69L78.8,85.8z M76.1,84.3h0.3L68.3,67l-8.2,17.3h0.4
	l3.3-6.9h9L76.1,84.3z M72.7,77.2h-8.8l4.4-9.4L72.7,77.2z M66.3,75.6h3.9l-2-4.2L66.3,75.6z"/>
<path class="st5" d="M1,81.2l2-1c1.4,2.1,3,3.1,4.8,3.1c0.8,0,1.5-0.1,2.2-0.4c0.6-0.2,1.2-0.6,1.6-1.2c0.3-0.4,0.5-1,0.5-1.6
	c0-0.7-0.3-1.4-0.8-1.8c-1.2-1.2-2.5-2.2-4-3c-1.3-0.7-2.5-1.6-3.6-2.6C3,72,2.5,71,2.5,69.9c0-0.8,0.2-1.5,0.7-2.2
	c0.5-0.7,1.2-1.2,2-1.6c0.9-0.4,1.9-0.6,2.9-0.6c1.1,0,2.1,0.2,3.1,0.7c1.1,0.6,2.2,1.4,3,2.4l-1.9,1.2c-0.6-0.7-1.4-1.4-2.2-1.8
	c-0.6-0.3-1.3-0.4-2-0.4c-0.8,0-1.6,0.2-2.3,0.7c-0.6,0.4-0.9,1-0.9,1.7c0,0.4,0.1,0.8,0.3,1.1c0.3,0.5,0.7,0.9,1.2,1.3
	c0.3,0.2,1.3,0.9,3,1.9c1.6,0.8,3,1.9,4.2,3.2c0.7,0.8,1.1,1.8,1.1,2.8c0,1.4-0.8,2.7-1.9,3.5c-1.4,1-3,1.6-4.7,1.5
	c-1.3,0-2.7-0.3-3.9-0.9C2.9,83.5,1.8,82.5,1,81.2z"/>
<path class="st5" d="M8,85.8c-1.5,0-2.9-0.3-4.2-1c-1.4-0.8-2.5-1.9-3.4-3.2L0,81l3.2-1.5l0.3,0.5c1.3,1.9,2.7,2.8,4.3,2.8
	c0.7,0,1.3-0.1,1.9-0.4c0.5-0.2,1-0.6,1.3-1c0.3-0.3,0.4-0.7,0.4-1.2c0-0.5-0.2-1-0.6-1.4c-1.1-1.1-2.4-2.1-3.8-2.9
	c-1.4-0.7-2.6-1.6-3.8-2.7c-0.9-0.9-1.4-2.1-1.4-3.3c0-0.9,0.3-1.9,0.9-2.6c0.6-0.8,1.4-1.4,2.3-1.8c2.1-0.9,4.4-0.8,6.5,0.1
	c1.2,0.6,2.3,1.5,3.3,2.6l0.6,0.6l-3.1,1.9l-0.4-0.4c-0.6-0.7-1.2-1.2-2-1.7c-0.5-0.3-1.1-0.4-1.7-0.4c-0.7,0-1.3,0.2-1.9,0.5
	c-0.4,0.3-0.6,0.7-0.6,1.2c0,0.3,0.1,0.6,0.2,0.9c0.3,0.4,0.6,0.7,1,1c0.2,0.2,0.8,0.6,2.9,1.8c1.6,0.9,3.1,2,4.3,3.3
	c0.8,0.9,1.2,2,1.3,3.2c0,1.6-0.8,3.1-2.2,4.1C11.7,85.3,9.9,85.9,8,85.8z M2,81.5c0.7,0.9,1.5,1.6,2.5,2.2c1.1,0.6,2.3,0.8,3.5,0.8
	c1.5,0,3.1-0.4,4.3-1.4c1-0.7,1.6-1.8,1.7-3c0-0.9-0.4-1.7-1-2.4c-1.2-1.2-2.5-2.2-4-3c-2.2-1.4-2.8-1.8-3-1.9
	c-0.5-0.4-1-0.9-1.3-1.4c-0.3-0.5-0.4-1-0.4-1.5c0-0.9,0.4-1.7,1.2-2.2c0.8-0.6,1.7-0.9,2.7-0.8c0.8,0,1.6,0.2,2.3,0.5
	c0.8,0.4,1.5,1,2.1,1.6l0.7-0.4c-0.7-0.7-1.4-1.2-2.3-1.7C9.3,66,7.3,66,5.6,66.7c-0.7,0.3-1.4,0.7-1.8,1.4
	c-0.4,0.5-0.6,1.2-0.6,1.8c0,0.9,0.4,1.8,1.1,2.4c1.1,0.9,2.2,1.8,3.5,2.4c1.5,0.8,2.9,1.9,4.2,3.1c0.6,0.6,1,1.4,1,2.3
	c0,0.7-0.2,1.4-0.7,1.9c-0.5,0.6-1.1,1.1-1.9,1.4C9.5,83.9,8.7,84,7.8,84c-2.1-0.1-4-1.2-5.1-2.9L2,81.5z"/>
<path class="st3" d="M0.3,93.7C0.6,93.9,1,94,1.3,94c0.6,0,1-0.3,1-0.8s-0.3-0.7-0.9-0.9S0.2,91.7,0.2,91c0-0.7,0.7-1.3,1.4-1.3
	c0,0,0.1,0,0.1,0c0.3,0,0.7,0.1,1,0.2l-0.2,0.5c-0.3-0.1-0.6-0.2-0.9-0.2c-0.6,0-0.9,0.4-0.9,0.7s0.3,0.6,0.9,0.9s1.2,0.7,1.2,1.4
	s-0.5,1.3-1.6,1.3c-0.4,0-0.8-0.1-1.2-0.3L0.3,93.7z"/>
<path class="st3" d="M1.3,94.6c-0.4,0-0.9-0.1-1.2-0.3H0l0.2-0.7l0.1,0.1c0.3,0.2,0.6,0.3,1,0.3c0.5,0,0.9-0.3,0.9-0.7
	S2,92.7,1.4,92.4c-0.9-0.4-1.3-0.8-1.3-1.4c0-0.8,0.7-1.4,1.5-1.4c0,0,0.1,0,0.1,0c0.4,0,0.7,0.1,1.1,0.2h0.1l-0.2,0.7H2.5
	c-0.3-0.1-0.5-0.2-0.8-0.2c-0.5,0-0.8,0.3-0.8,0.6s0.2,0.6,0.9,0.8C2.7,92.1,3,92.5,3,93.2S2.6,94.6,1.3,94.6z M0.2,94.2
	c0.3,0.2,0.7,0.2,1.1,0.2c0.9,0,1.5-0.5,1.5-1.2c0-0.6-0.3-1-1.1-1.3c-0.6-0.3-1-0.5-1-1c0-0.5,0.4-0.8,0.9-0.8c0,0,0.1,0,0.1,0
	c0.3,0,0.6,0.1,0.8,0.2L2.6,90c-0.3-0.1-0.6-0.2-0.9-0.2c-0.8,0-1.4,0.5-1.4,1.2s0.4,0.9,1.2,1.2c0.6,0.2,0.9,0.5,0.9,1
	S2,94.1,1.3,94.1c-0.3,0-0.7-0.1-1-0.3L0.2,94.2z"/>
<path class="st3" d="M4.1,92.9c0,0.6,0.4,1.1,1,1.1c0,0,0.1,0,0.1,0c0.3,0,0.6,0,0.9-0.2l0.1,0.4c-0.4,0.1-0.7,0.2-1.1,0.2
	c-0.8,0.1-1.6-0.6-1.6-1.4c0-0.1,0-0.2,0-0.2C3.4,91.9,4,91.1,4.9,91c0,0,0.1,0,0.1,0c0.8,0,1.4,0.6,1.4,1.4c0,0,0,0.1,0,0.1
	c0,0.1,0,0.2,0,0.3L4.1,92.9z M5.9,92.5c0.1-0.5-0.3-0.9-0.7-1c0,0-0.1,0-0.1,0c-0.5,0-0.9,0.5-0.9,1H5.9z"/>
<path class="st3" d="M5.1,94.6c-0.9,0.1-1.7-0.6-1.7-1.5c0-0.1,0-0.2,0-0.2C3.3,91.9,4,91.1,4.9,91c0.1,0,0.1,0,0.2,0
	c0.8,0,1.5,0.7,1.5,1.5c0,0.1,0,0.1,0,0.2c0,0.1,0,0.2,0,0.3V93H4.2c0,0.6,0.4,1,1,1c0.3,0,0.6,0,0.9-0.2h0.1l0.2,0.6H6.3
	C5.9,94.6,5.5,94.6,5.1,94.6z M5.1,91.2c-0.8,0-1.5,0.7-1.5,1.6c0,0,0,0.1,0,0.1c-0.1,0.8,0.5,1.5,1.3,1.6c0.1,0,0.2,0,0.2,0
	c0.3,0,0.7,0,1-0.2L6.1,94c-0.3,0.1-0.6,0.1-0.8,0.1C4.6,94.2,4,93.7,4,93c0,0,0-0.1,0-0.1v-0.1h2.3c0-0.1,0-0.1,0-0.2
	S6.3,91.2,5.1,91.2z M6,92.6H4v-0.1c0-0.6,0.4-1,1-1.1c0.2,0,0.5,0.1,0.7,0.3C5.8,91.9,6,92.2,6,92.6L6,92.6z M4.3,92.4h1.5
	c0-0.2-0.1-0.4-0.2-0.6c-0.1-0.1-0.3-0.2-0.5-0.2C4.6,91.6,4.3,91.9,4.3,92.4L4.3,92.4z"/>
<path class="st3" d="M7.2,92.2c0-0.4,0-0.7,0-1h0.5v0.7l0,0c0.1-0.4,0.5-0.7,0.9-0.7c0.1,0,0.1,0,0.2,0v0.6c-0.1,0-0.1,0-0.2,0
	c-0.4,0-0.8,0.3-0.8,0.8c0,0.1,0,0.2,0,0.3v1.8H7.2V92.2z"/>
<path class="st3" d="M7.9,94.5H7.1v-2.4c0-0.4,0-0.8,0-1V91h0.7v0.4c0.2-0.3,0.6-0.5,1-0.4h0.1v0.8H8.8c-0.1,0-0.1,0-0.2,0
	c-0.4,0-0.7,0.3-0.7,0.7c0,0.1,0,0.2,0,0.3L7.9,94.5z M7.3,94.3h0.4v-1.7c0-0.1,0-0.2,0-0.3c0-0.5,0.4-0.8,0.9-0.9h0.1v-0.4h0
	c-0.4,0-0.7,0.3-0.8,0.7v0.1H7.6v-0.7H7.3c0,0.3,0,0.6,0,0.9L7.3,94.3z"/>
<path class="st3" d="M9.8,91.1l0.6,1.9c0.1,0.3,0.2,0.6,0.3,0.8l0,0c0.1-0.3,0.2-0.6,0.3-0.8l0.6-1.9h0.6L11,94.4h-0.6l-1.2-3.3H9.8
	z"/>
<path class="st3" d="M11.1,94.5h-0.7L9,91h0.9l0.7,2c0.1,0.2,0.1,0.4,0.2,0.6c0.1-0.2,0.1-0.4,0.2-0.6l0.7-2h0.9L11.1,94.5z
	 M10.5,94.3H11l1.2-3.1h-0.4L11.1,93c-0.1,0.3-0.2,0.6-0.3,0.8v0.1h-0.2v-0.1c-0.1-0.3-0.2-0.6-0.3-0.8l-0.6-1.8H9.3L10.5,94.3z"/>
<path class="st3" d="M13.6,90.2c0,0.2-0.2,0.4-0.4,0.4c0,0,0,0,0,0c-0.2,0-0.4-0.2-0.4-0.4c0,0,0,0,0,0c0-0.2,0.2-0.4,0.4-0.4
	c0,0,0,0,0,0C13.4,89.8,13.6,90,13.6,90.2C13.6,90.2,13.6,90.2,13.6,90.2z M12.9,94.4v-3.3h0.6v3.3H12.9z"/>
<path class="st3" d="M13.6,94.5h-0.8V91h0.8V94.5z M13,94.3h0.4v-3.1H13V94.3z M13.2,90.7c-0.2,0-0.5-0.2-0.5-0.4c0,0,0,0,0,0
	c0-0.3,0.2-0.5,0.5-0.5c0,0,0,0,0,0c0.3,0,0.5,0.2,0.5,0.5c0,0.1,0,0.2-0.1,0.3C13.4,90.6,13.3,90.7,13.2,90.7z M13.2,89.9
	c-0.1,0-0.3,0.1-0.3,0.3c0,0,0,0,0,0c0,0.1,0.1,0.3,0.2,0.3c0,0,0,0,0,0c0.1,0,0.2,0,0.2-0.1c0-0.1,0.1-0.1,0.1-0.2l0,0
	C13.5,90.1,13.4,89.9,13.2,89.9C13.2,89.9,13.2,89.9,13.2,89.9L13.2,89.9z"/>
<path class="st3" d="M16.9,94.3c-0.3,0.1-0.6,0.2-0.9,0.2c-0.9,0-1.6-0.6-1.7-1.5c0-0.1,0-0.1,0-0.2c0-0.9,0.7-1.7,1.6-1.8
	c0,0,0.1,0,0.1,0c0.3,0,0.6,0.1,0.8,0.2l-0.1,0.5c-0.2-0.1-0.5-0.2-0.7-0.2c-0.6,0-1.2,0.5-1.2,1.1c0,0,0,0.1,0,0.1
	c0,0.6,0.4,1.2,1,1.2c0,0,0.1,0,0.1,0c0.3,0,0.5-0.1,0.7-0.2L16.9,94.3z"/>
<path class="st3" d="M15.9,94.6c-0.9,0-1.7-0.7-1.8-1.6c0-0.1,0-0.1,0-0.2c0-1,0.8-1.8,1.8-1.8c0,0,0.1,0,0.1,0
	c0.3,0,0.6,0.1,0.9,0.2H17l-0.2,0.7l-0.1-0.1c-0.2-0.1-0.4-0.2-0.6-0.1c-0.6,0.1-1.1,0.6-1,1.3c0.1,0.6,0.5,1,1,1
	c0.2,0,0.5-0.1,0.7-0.2h0.1l0.1,0.7h-0.1C16.6,94.6,16.2,94.6,15.9,94.6z M16,91.2c-0.9-0.1-1.6,0.6-1.7,1.5c0,0.1,0,0.1,0,0.2
	c-0.1,0.8,0.5,1.5,1.4,1.6c0.1,0,0.1,0,0.2,0c0.3,0,0.6,0,0.8-0.2l0-0.3c-0.2,0.1-0.4,0.1-0.7,0.1c-0.7,0-1.3-0.6-1.3-1.4
	c0-0.7,0.6-1.3,1.3-1.3c0.2,0,0.4,0,0.6,0.1l0.1-0.3C16.5,91.2,16.3,91.2,16,91.2z"/>
<path class="st3" d="M18.2,90.2c0,0.2-0.1,0.4-0.3,0.4c0,0,0,0-0.1,0c-0.2,0-0.4-0.2-0.4-0.3c0,0,0,0,0,0c0-0.2,0.2-0.4,0.4-0.4
	c0,0,0,0,0,0C18.1,89.8,18.2,90,18.2,90.2C18.2,90.2,18.2,90.2,18.2,90.2z M17.6,94.4v-3.3h0.6v3.3H17.6z"/>
<path class="st3" d="M18.3,94.5h-0.8V91h0.8V94.5z M17.7,94.3h0.4v-3.1h-0.4V94.3z M17.9,90.7c-0.3,0-0.5-0.2-0.5-0.4c0,0,0,0,0,0
	c0-0.3,0.2-0.5,0.5-0.5c0,0,0,0,0,0c0.3,0,0.5,0.2,0.5,0.4c0,0,0,0,0,0c0,0.1,0,0.2-0.1,0.3C18.1,90.6,18,90.7,17.9,90.7z
	 M17.9,89.9c-0.1,0-0.3,0.1-0.3,0.3c0,0,0,0,0,0c0,0.1,0.1,0.3,0.2,0.3c0,0,0,0,0,0c0.1,0,0.2,0,0.2-0.1c0-0.1,0.1-0.1,0.1-0.2l0,0
	C18.1,90,18,89.9,17.9,89.9C17.9,89.9,17.9,89.9,17.9,89.9L17.9,89.9z"/>
<path class="st3" d="M22.2,92.8c0.1,0.9-0.6,1.7-1.5,1.8c-0.1,0-0.1,0-0.2,0c-0.9,0-1.6-0.7-1.6-1.6c0,0,0-0.1,0-0.1
	c-0.1-0.9,0.6-1.7,1.5-1.8c0.1,0,0.1,0,0.2,0c0.9,0,1.6,0.7,1.6,1.5C22.2,92.6,22.2,92.7,22.2,92.8z M19.5,92.8c0,0.7,0.4,1.3,1,1.3
	s1-0.5,1-1.3c0-0.6-0.3-1.3-1-1.3S19.5,92.2,19.5,92.8L19.5,92.8z"/>
<path class="st3" d="M20.5,94.6c-0.9,0-1.7-0.7-1.7-1.7c0,0,0-0.1,0-0.1c-0.1-1,0.6-1.8,1.6-1.9c0,0,0.1,0,0.1,0
	c0.9,0,1.7,0.7,1.7,1.7c0,0,0,0.1,0,0.1c0.1,1-0.6,1.8-1.6,1.9C20.6,94.6,20.6,94.6,20.5,94.6z M20.6,91.2c-0.8,0-1.6,0.6-1.6,1.5
	c0,0.1,0,0.1,0,0.2c-0.1,0.8,0.5,1.5,1.4,1.6c0,0,0.1,0,0.1,0c0.8,0,1.5-0.6,1.6-1.5c0-0.1,0-0.1,0-0.2c0.1-0.8-0.5-1.5-1.3-1.6
	C20.7,91.2,20.6,91.1,20.6,91.2z M20.6,94.2c-0.6,0-1.1-0.6-1.1-1.4s0.4-1.4,1.1-1.4s1.1,0.7,1.1,1.4C21.8,93.4,21.3,94.1,20.6,94.2
	C20.6,94.2,20.6,94.2,20.6,94.2L20.6,94.2z M20.6,91.6c-0.6,0-0.9,0.6-0.9,1.2S20,94,20.5,94s0.9-0.5,0.9-1.2
	C21.5,92.4,21.3,91.6,20.6,91.6L20.6,91.6z"/>
<path class="st3" d="M22.9,93.8c0.2,0.2,0.5,0.2,0.8,0.2c0.4,0,0.6-0.2,0.6-0.5s-0.2-0.4-0.6-0.6c-0.6-0.2-0.9-0.5-0.9-0.9
	c0-0.6,0.4-1,1-1c0.1,0,0.1,0,0.1,0c0.3,0,0.6,0.1,0.8,0.2l-0.1,0.4c-0.2-0.1-0.4-0.2-0.7-0.2c-0.4,0-0.6,0.2-0.6,0.4
	s0.2,0.4,0.6,0.6s0.9,0.5,0.9,1s-0.5,1-1.3,1c-0.3,0-0.6-0.1-0.9-0.2L22.9,93.8z"/>
<path class="st3" d="M23.6,94.6c-0.3,0-0.7-0.1-1-0.2h-0.1l0.2-0.7l0.1,0.1c0.2,0.1,0.5,0.2,0.7,0.2c0.3,0,0.5-0.1,0.5-0.4
	s-0.1-0.3-0.5-0.5c-0.8-0.3-0.9-0.7-0.9-1c0-0.6,0.6-1.1,1.2-1.1c0,0,0,0,0.1,0c0.3,0,0.6,0.1,0.9,0.2h0.1l-0.2,0.6l-0.1-0.1
	c-0.2-0.1-0.4-0.2-0.6-0.2c-0.3,0-0.5,0.1-0.5,0.3s0.1,0.3,0.6,0.5c0.6,0.3,0.9,0.6,0.9,1.1S24.5,94.6,23.6,94.6z M22.8,94.2
	c0.2,0.1,0.5,0.2,0.8,0.2c0.7,0,1.1-0.3,1.1-0.9s-0.2-0.7-0.8-0.9c-0.4-0.2-0.7-0.3-0.7-0.7c0-0.3,0.3-0.6,0.6-0.6c0,0,0,0,0,0
	c0.2,0,0.4,0,0.6,0.1l0.1-0.2c-0.2-0.1-0.5-0.2-0.7-0.2c-0.5,0-1,0.3-1,0.9c0,0,0,0,0,0c0,0.4,0.3,0.7,0.8,0.8
	c0.4,0.2,0.7,0.3,0.7,0.7s-0.2,0.6-0.8,0.6c-0.3,0-0.5-0.1-0.7-0.2L22.8,94.2z"/>
<path class="st3" d="M27.7,89.8v4.6h-0.6v-4.6H27.7z"/>
<path class="st3" d="M27.8,94.5H27v-4.8h0.8L27.8,94.5z M27.2,94.3h0.4v-4.4h-0.4V94.3z"/>
<path class="st3" d="M28.8,92c0-0.3,0-0.6,0-0.9h0.5v0.6l0,0c0.2-0.4,0.6-0.6,1.1-0.6c0.5,0,1.2,0.3,1.2,1.4v2H31v-1.9
	c0-0.5-0.2-1-0.8-1c-0.4,0-0.7,0.3-0.8,0.6c0,0.1,0,0.2,0,0.3v2h-0.6L28.8,92z"/>
<path class="st3" d="M31.7,94.5h-0.8v-2c0-0.4-0.1-0.9-0.7-0.9c-0.3,0-0.6,0.2-0.7,0.5c0,0.1,0,0.2,0,0.3v2.1h-0.8V92
	c0-0.4,0-0.6,0-0.9V91h0.7v0.4c0.3-0.3,0.6-0.4,1-0.4c0.6,0,1.3,0.4,1.3,1.5L31.7,94.5z M31.1,94.3h0.4v-1.9c0-1.3-0.9-1.3-1.1-1.3
	c-0.4,0-0.8,0.2-1,0.6l0,0h-0.2v-0.1v-0.5H29c0,0.2,0,0.5,0,0.8v2.3h0.4v-1.8c0-0.1,0-0.2,0-0.3c0.1-0.4,0.5-0.7,0.9-0.7
	c0.6,0,0.9,0.4,0.9,1.1L31.1,94.3z"/>
<path class="st3" d="M33.3,90.2v1h0.9v0.5h-0.9v1.8c0,0.4,0.1,0.7,0.5,0.7c0.1,0,0.2,0,0.3,0v0.4c-0.2,0.1-0.3,0.1-0.5,0.1
	c-0.2,0-0.5-0.1-0.7-0.3c-0.2-0.2-0.3-0.6-0.2-0.9v-1.9h-0.5v-0.5h0.5v-0.8L33.3,90.2z"/>
<path class="st3" d="M33.6,94.6c-0.3,0-0.5-0.1-0.7-0.3c-0.2-0.3-0.3-0.6-0.3-0.9v-1.7h-0.5V91h0.5v-0.8l0.8-0.2v1h0.9v0.7h-0.9v1.7
	c0,0.4,0.1,0.5,0.3,0.5c0.1,0,0.2,0,0.3,0h0.1v0.7h-0.1C34,94.6,33.8,94.6,33.6,94.6z M32.3,91.5h0.5v1.9c0,0.3,0,0.6,0.2,0.8
	c0.2,0.2,0.4,0.2,0.6,0.2c0.1,0,0.3,0,0.4,0v-0.3h-0.3c-0.5,0-0.5-0.6-0.5-0.8v-1.9h0.9v-0.3h-0.9v-0.9l-0.4,0.1v0.8h-0.5L32.3,91.5
	z"/>
<path class="st3" d="M35.2,92.9c0,0.6,0.4,1.1,1,1.1c0,0,0.1,0,0.1,0c0.3,0,0.6,0,0.9-0.2l0.1,0.4c-0.4,0.1-0.7,0.2-1.1,0.2
	c-0.8,0.1-1.6-0.6-1.6-1.4c0-0.1,0-0.2,0-0.2c-0.1-0.9,0.5-1.7,1.4-1.8c0,0,0.1,0,0.1,0c0.8,0,1.4,0.6,1.4,1.4c0,0,0,0.1,0,0.1
	c0,0.1,0,0.2,0,0.3L35.2,92.9z M36.9,92.5c0.1-0.5-0.3-0.9-0.7-1c0,0-0.1,0-0.1,0c-0.5,0-0.9,0.5-0.9,1H36.9z"/>
<path class="st3" d="M36.2,94.6c-0.9,0.1-1.7-0.6-1.7-1.5c0-0.1,0-0.2,0-0.2C34.4,91.9,35,91.1,36,91c0.1,0,0.1,0,0.2,0
	c0.8,0,1.5,0.7,1.5,1.5c0,0.1,0,0.1,0,0.2c0,0.1,0,0.2,0,0.3V93h-2.3c0,0.6,0.4,1,1,1c0.3,0,0.6,0,0.9-0.2h0.1l0.2,0.6h-0.1
	C37,94.6,36.6,94.6,36.2,94.6z M36.1,91.2c-0.8,0-1.5,0.7-1.5,1.6c0,0,0,0.1,0,0.1c-0.1,0.8,0.5,1.5,1.3,1.6c0.1,0,0.2,0,0.2,0
	c0.3,0,0.7,0,1-0.2L37.1,94c-0.3,0.1-0.6,0.1-0.8,0.1c-0.6,0-1.2-0.4-1.2-1.1c0-0.1,0-0.1,0-0.2v-0.1h2.3c0-0.1,0-0.1,0-0.2
	S37.4,91.2,36.1,91.2z M37,92.6h-2v-0.1c0-0.6,0.4-1,1-1.1c0.2,0,0.5,0.1,0.7,0.3C36.8,91.9,37,92.2,37,92.6L37,92.6z M35.3,92.4
	h1.5c0-0.2-0.1-0.4-0.2-0.6c-0.1-0.1-0.3-0.2-0.5-0.2C35.6,91.6,35.3,91.9,35.3,92.4L35.3,92.4z"/>
<path class="st3" d="M41.1,91.1c0,0.2,0,0.5,0,0.9v2c0.1,0.6-0.1,1.1-0.5,1.5c-0.3,0.3-0.8,0.4-1.2,0.4c-0.4,0-0.8-0.1-1.1-0.3
	l0.2-0.5c0.3,0.2,0.6,0.3,1,0.3c0.6,0,1.1-0.3,1.1-1.2v-0.4l0,0c-0.2,0.3-0.6,0.6-1,0.6c-0.8,0-1.5-0.6-1.5-1.4c0-0.1,0-0.2,0-0.3
	c-0.1-0.9,0.5-1.7,1.4-1.8c0,0,0.1,0,0.1,0c0.4,0,0.8,0.2,1,0.6l0,0v-0.5L41.1,91.1z M40.5,92.4c0-0.1,0-0.2,0-0.3
	c-0.1-0.4-0.5-0.6-0.8-0.6c-0.6,0-1,0.5-1,1.3s0.4,1.2,1,1.2c0.4,0,0.7-0.3,0.8-0.6c0-0.1,0-0.2,0-0.3L40.5,92.4z"/>
<path class="st3" d="M39.4,96c-0.4,0-0.8-0.1-1.2-0.3h-0.1l0.2-0.7l0.1,0.1c0.3,0.2,0.6,0.3,0.9,0.3c0.6,0,1-0.4,1-1.1v-0.1
	c-0.3,0.3-0.6,0.4-1,0.4c-0.9,0-1.6-0.8-1.5-1.7c0,0,0,0,0-0.1c-0.1-0.9,0.6-1.8,1.5-1.9c0,0,0,0,0.1,0c0.4,0,0.7,0.1,1,0.4v-0.3
	h0.7v0.1c0,0.3,0,0.5,0,0.9V94c0.1,0.6-0.1,1.2-0.5,1.6C40.3,95.9,39.9,96,39.4,96z M38.4,95.6c0.3,0.1,0.7,0.2,1,0.2
	c0.4,0,0.8-0.1,1.1-0.4c0.3-0.4,0.5-0.9,0.5-1.4v-2c0-0.3,0-0.6,0-0.8h-0.3v0.5h-0.2l0,0c-0.2-0.4-0.6-0.6-1-0.5
	c-0.8,0-1.4,0.8-1.4,1.6c0,0,0,0.1,0,0.1c-0.1,0.8,0.5,1.4,1.2,1.5c0,0,0.1,0,0.1,0c0.4,0,0.8-0.2,1-0.5l0,0h0.2v0.5
	c0,0.8-0.4,1.3-1.2,1.3c-0.3,0-0.6-0.1-0.9-0.2L38.4,95.6z M39.6,94.1c-0.7,0-1.1-0.5-1.1-1.3s0.4-1.3,1.1-1.3
	c0.4,0,0.8,0.3,0.9,0.7c0,0.1,0,0.2,0,0.3V93c0,0.1,0,0.2,0,0.3C40.4,93.8,40,94.1,39.6,94.1L39.6,94.1z M39.6,91.6
	c-0.5,0-0.9,0.5-0.9,1.2c0,0.5,0.2,1.1,0.9,1.1c0.3,0,0.6-0.2,0.7-0.6c0-0.1,0-0.2,0-0.3v-0.6c0-0.1,0-0.2,0-0.2
	C40.2,91.9,39.9,91.6,39.6,91.6L39.6,91.6z"/>
<path class="st3" d="M42,92.2c0-0.4,0-0.7,0-1h0.5v0.7l0,0c0.1-0.4,0.5-0.7,0.9-0.7c0.1,0,0.1,0,0.2,0v0.6c-0.1,0-0.1,0-0.2,0
	c-0.4,0-0.8,0.3-0.8,0.8c0,0.1,0,0.2,0,0.3v1.8H42V92.2z"/>
<path class="st3" d="M42.7,94.5h-0.8v-2.4c0-0.4,0-0.8,0-1V91h0.7v0.4c0.2-0.3,0.6-0.5,1-0.4h0.1v0.8h-0.1c-0.1,0-0.1,0-0.2,0
	c-0.4,0-0.7,0.3-0.7,0.7c0,0.1,0,0.2,0,0.3L42.7,94.5z M42.1,94.3h0.4v-1.7c0-0.1,0-0.2,0-0.3c0-0.5,0.4-0.8,0.9-0.9h0.1v-0.4h0
	c-0.4,0-0.7,0.3-0.8,0.7v0.1h-0.2v-0.7h-0.3c0,0.3,0,0.6,0,0.9L42.1,94.3z"/>
<path class="st3" d="M46.1,94.4L46,94l0,0c-0.2,0.3-0.6,0.5-1,0.5c-0.6,0-1-0.4-1-1c0-0.8,0.7-1.2,2-1.2v-0.1c0-0.4-0.2-0.7-0.6-0.8
	c-0.1,0-0.1,0-0.2,0c-0.3,0-0.6,0.1-0.9,0.3l-0.1-0.4c0.3-0.2,0.7-0.3,1.1-0.3c1,0,1.3,0.7,1.3,1.3v1.3c0,0.3,0,0.5,0.1,0.8
	L46.1,94.4z M46,92.8c-0.7,0-1.4,0.1-1.4,0.8c0,0.3,0.2,0.5,0.5,0.6c0,0,0,0,0.1,0c0.4,0,0.7-0.2,0.8-0.6c0-0.1,0-0.1,0-0.2L46,92.8
	z"/>
<path class="st3" d="M45,94.6c-0.6,0-1.1-0.4-1.1-1c0,0,0-0.1,0-0.1c0-0.3,0.1-0.6,0.3-0.8c0.5-0.4,1.1-0.6,1.7-0.5
	c0-0.3-0.2-0.6-0.5-0.6c0,0-0.1,0-0.1,0c-0.3,0-0.6,0.1-0.8,0.2l-0.1,0.1l-0.2-0.6h0.1c0.3-0.2,0.7-0.3,1.1-0.3
	c0.7-0.1,1.3,0.5,1.4,1.2c0,0.1,0,0.2,0,0.3v1.3c0,0.3,0,0.5,0,0.8v0.1H46v-0.3C45.7,94.5,45.4,94.6,45,94.6z M46,92.4
	c-0.6-0.1-1.1,0.1-1.6,0.5c-0.2,0.2-0.3,0.4-0.3,0.7c0,0.5,0.4,0.9,0.9,0.9c0,0,0,0,0.1,0c0.4,0,0.7-0.2,0.9-0.5l0,0h0.1V94v0.3h0.3
	c0-0.2,0-0.5,0-0.7v-1.3c0-0.8-0.4-1.3-1.2-1.3c-0.3,0-0.7,0.1-1,0.2l0.1,0.2c0.2-0.1,0.5-0.2,0.8-0.2c0.4,0,0.8,0.3,0.9,0.7
	c0,0.1,0,0.1,0,0.2L46,92.4L46,92.4z M45.2,94.2c-0.3,0-0.6-0.2-0.7-0.6c0,0,0-0.1,0-0.1c0-0.2,0.1-0.4,0.2-0.5
	c0.4-0.3,0.8-0.4,1.3-0.3h0.1v0.7c0,0.1,0,0.2,0,0.2C46,94,45.6,94.2,45.2,94.2L45.2,94.2z M45.9,92.8c-0.4,0-0.8,0.1-1.1,0.3
	c-0.1,0.1-0.1,0.2-0.1,0.4c0,0.2,0.2,0.4,0.4,0.5c0,0,0,0,0.1,0c0.3,0,0.6-0.2,0.7-0.5c0-0.1,0-0.1,0-0.2L45.9,92.8z"/>
<path class="st3" d="M47.5,89.6h0.6v4.9h-0.6V89.6z"/>
<path class="st3" d="M48.3,94.5h-0.8v-5.1h0.8V94.5z M47.7,94.3h0.4v-4.7h-0.4V94.3z"/>
<path class="st3" d="M49.5,92.9c0,0.6,0.4,1.1,1,1.1c0,0,0.1,0,0.1,0c0.3,0,0.6,0,0.9-0.2l0.1,0.4c-0.3,0.1-0.7,0.2-1.1,0.2
	c-0.8,0.1-1.6-0.6-1.6-1.4c0-0.1,0-0.2,0-0.2c-0.1-0.9,0.5-1.7,1.4-1.8c0,0,0.1,0,0.1,0c0.8,0,1.4,0.6,1.4,1.4c0,0,0,0.1,0,0.1
	c0,0.1,0,0.2,0,0.3L49.5,92.9z M51.3,92.5c0.1-0.5-0.2-0.9-0.7-1c0,0-0.1,0-0.1,0c-0.5,0-0.9,0.5-0.9,1H51.3z"/>
<path class="st3" d="M50.6,94.6c-0.9,0.1-1.7-0.6-1.7-1.5c0-0.1,0-0.2,0-0.2c-0.1-0.9,0.6-1.8,1.5-1.9c0.1,0,0.1,0,0.2,0
	c0.8,0,1.5,0.6,1.5,1.4c0,0.1,0,0.1,0,0.2c0,0.1,0,0.2,0,0.3V93h-2.4c0,0.6,0.4,1,1,1c0.3,0,0.6,0,0.9-0.2h0.1l0.2,0.6h-0.1
	C51.3,94.6,50.9,94.6,50.6,94.6z M50.5,91.2c-0.8,0-1.5,0.7-1.5,1.5c0,0.1,0,0.1,0,0.2c-0.1,0.8,0.5,1.5,1.3,1.6c0.1,0,0.2,0,0.3,0
	c0.3,0,0.7,0,1-0.2V94c-0.3,0.1-0.6,0.1-0.8,0.1c-0.6,0-1.2-0.4-1.2-1.1c0-0.1,0-0.1,0-0.2v-0.1h2.3c0-0.1,0-0.1,0-0.2
	C51.8,92.5,51.7,91.2,50.5,91.2z M51.4,92.6h-2v-0.1c0-0.6,0.4-1,1-1.1c0.2,0,0.5,0.1,0.7,0.3C51.2,91.9,51.3,92.2,51.4,92.6
	L51.4,92.6z M49.6,92.4h1.5c0-0.2-0.1-0.4-0.2-0.6c-0.1-0.1-0.3-0.2-0.5-0.2C50,91.6,49.7,91.9,49.6,92.4z"/>
<path class="st3" d="M52.5,93.8c0.2,0.2,0.5,0.2,0.8,0.2c0.4,0,0.7-0.2,0.7-0.5s-0.2-0.4-0.6-0.6c-0.6-0.2-0.9-0.5-0.9-0.9
	c0-0.6,0.4-1,1-1c0.1,0,0.1,0,0.2,0c0.3,0,0.6,0.1,0.8,0.2l-0.2,0.4c-0.2-0.1-0.4-0.2-0.7-0.2c-0.3,0-0.5,0.2-0.5,0.4
	s0.2,0.4,0.6,0.6s0.9,0.5,0.9,1s-0.5,1-1.2,1c-0.3,0-0.7-0.1-0.9-0.2L52.5,93.8z"/>
<path class="st3" d="M53.3,94.6c-0.3,0-0.7-0.1-1-0.2h-0.1l0.2-0.7l0.1,0.1c0.2,0.1,0.5,0.2,0.7,0.2c0.3,0,0.5-0.1,0.5-0.4
	s-0.1-0.3-0.5-0.5c-0.8-0.3-0.9-0.7-0.9-1c0-0.6,0.6-1.1,1.2-1.1c0,0,0,0,0.1,0c0.3,0,0.6,0.1,0.9,0.2h0.1l-0.2,0.6l-0.1-0.1
	c-0.2-0.1-0.4-0.2-0.6-0.2c-0.3,0-0.5,0.1-0.5,0.3s0.1,0.3,0.6,0.5c0.7,0.3,0.9,0.6,0.9,1.1S54.1,94.6,53.3,94.6z M52.5,94.2
	c0.3,0.1,0.5,0.2,0.8,0.2c0.7,0,1.1-0.3,1.1-0.9s-0.2-0.7-0.8-0.9c-0.4-0.2-0.7-0.3-0.7-0.7c0-0.3,0.3-0.6,0.6-0.6c0,0,0,0,0,0
	c0.2,0,0.4,0,0.6,0.1l0.1-0.2c-0.2-0.1-0.5-0.2-0.7-0.2c-0.5,0-1,0.3-1,0.9c0,0,0,0,0,0c0,0.4,0.3,0.7,0.8,0.8
	c0.4,0.2,0.7,0.3,0.7,0.7s-0.2,0.6-0.8,0.6c-0.3,0-0.5-0.1-0.7-0.2L52.5,94.2z"/>
<path class="st3" d="M56.8,89.9c0.4-0.1,0.8-0.1,1.2-0.1c0.5,0,0.9,0.1,1.3,0.4c0.3,0.3,0.4,0.6,0.4,1c0,0.4-0.1,0.7-0.4,1
	c-0.4,0.4-0.9,0.5-1.4,0.5c-0.2,0-0.3,0-0.5,0v1.8h-0.6L56.8,89.9z M57.4,92.1c0.2,0,0.3,0.1,0.5,0.1c0.7,0,1.2-0.3,1.2-1
	s-0.4-0.9-1.1-0.9c-0.2,0-0.4,0-0.6,0V92.1z"/>
<path class="st3" d="M57.5,94.5h-0.8v-4.8h0.1c0.4-0.1,0.8-0.1,1.2-0.1c0.5,0,1,0.1,1.4,0.4c0.3,0.3,0.4,0.6,0.4,1
	c0,0.4-0.1,0.7-0.4,1c-0.4,0.4-0.9,0.6-1.5,0.5c-0.1,0-0.3,0-0.4,0L57.5,94.5z M56.9,94.3h0.4v-1.9h0.1c0.1,0,0.3,0,0.5,0
	c0.5,0,1-0.1,1.3-0.5c0.2-0.2,0.3-0.6,0.3-0.9c0-0.3-0.1-0.7-0.4-0.9c-0.4-0.3-0.8-0.4-1.2-0.4c-0.3,0-0.7,0-1,0.1L56.9,94.3z
	 M57.9,92.3c-0.2,0-0.3,0-0.5,0h-0.1v-2h0.1c0.2,0,0.4,0,0.6,0c0.8,0,1.2,0.4,1.2,1S58.7,92.3,57.9,92.3L57.9,92.3z M57.5,92
	c0.1,0,0.3,0,0.4,0c0.7,0,1-0.3,1-0.9s-0.6-0.8-1-0.8c-0.2,0-0.3,0-0.5,0L57.5,92z"/>
<path class="st3" d="M62.1,94.4L62,94l0,0c-0.2,0.3-0.6,0.5-1,0.5c-0.6,0-1-0.4-1-1c0-0.8,0.7-1.2,2-1.2v-0.1c0-0.4-0.2-0.7-0.6-0.8
	c-0.1,0-0.1,0-0.2,0c-0.3,0-0.6,0.1-0.9,0.3l-0.1-0.4c0.3-0.2,0.7-0.3,1.1-0.3c1,0,1.3,0.7,1.3,1.3v1.3c0,0.3,0,0.5,0.1,0.8
	L62.1,94.4z M62,92.8c-0.7,0-1.4,0.1-1.4,0.8c0,0.3,0.2,0.5,0.5,0.6c0,0,0.1,0,0.1,0c0.4,0,0.7-0.2,0.8-0.6c0-0.1,0-0.1,0-0.2
	L62,92.8z"/>
<path class="st3" d="M61,94.6c-0.6,0-1.1-0.4-1.1-1c0,0,0-0.1,0-0.1c0-0.3,0.1-0.6,0.3-0.8c0.5-0.4,1.1-0.6,1.7-0.5
	c0-0.3-0.2-0.6-0.5-0.6c-0.1,0-0.1,0-0.2,0c-0.3,0-0.6,0.1-0.8,0.2l-0.1,0.1l-0.2-0.6h0.1c0.3-0.2,0.7-0.3,1.1-0.3
	c0.7-0.1,1.3,0.5,1.4,1.2c0,0.1,0,0.2,0,0.3v1.3c0,0.3,0,0.5,0,0.8v0.1H62v-0.3C61.7,94.5,61.4,94.6,61,94.6z M62,92.4
	c-0.6-0.1-1.1,0.1-1.6,0.5c-0.2,0.2-0.3,0.4-0.3,0.7c0,0.5,0.4,0.9,0.9,0.9c0,0,0,0,0.1,0c0.4,0,0.7-0.2,0.9-0.5l0,0h0.1V94v0.3h0.3
	c0-0.2,0-0.5,0-0.7v-1.3c0-0.8-0.4-1.3-1.2-1.3c-0.3,0-0.7,0.1-1,0.2l0.1,0.2c0.3-0.1,0.5-0.2,0.8-0.2c0.4,0,0.8,0.3,0.9,0.7
	c0,0.1,0,0.1,0,0.2L62,92.4L62,92.4L62,92.4z M61.2,94.2c-0.3,0-0.6-0.2-0.7-0.6c0,0,0-0.1,0-0.1c0-0.2,0.1-0.4,0.2-0.5
	c0.4-0.3,0.8-0.4,1.3-0.3h0.1v0.7c0,0.1,0,0.2,0,0.2C62,94,61.6,94.2,61.2,94.2L61.2,94.2z M61.9,92.8c-0.4,0-0.8,0.1-1.1,0.3
	c-0.1,0.1-0.1,0.2-0.1,0.4c0,0.2,0.2,0.4,0.4,0.5c0,0,0,0,0.1,0c0.3,0,0.6-0.2,0.7-0.5c0-0.1,0-0.1,0-0.2L61.9,92.8z"/>
<path class="st3" d="M63.5,92c0-0.3,0-0.6,0-0.9H64v0.6l0,0c0.2-0.4,0.6-0.6,1.1-0.6c0.5,0,1.2,0.3,1.2,1.4v2h-0.6v-1.9
	c0-0.5-0.2-1-0.8-1c-0.5,0-0.9,0.4-0.9,0.9c0,0,0,0,0,0v2h-0.6L63.5,92z"/>
<path class="st3" d="M66.5,94.5h-0.8v-2c0-0.4-0.1-0.9-0.7-0.9c-0.3,0-0.6,0.2-0.7,0.5c0,0.1,0,0.2,0,0.3v2.1h-0.8V92
	c0-0.4,0-0.6,0-0.9V91h0.7v0.4c0.3-0.3,0.6-0.4,1-0.4c0.6,0,1.3,0.4,1.3,1.5L66.5,94.5z M65.9,94.3h0.4v-1.9c0-1.3-0.9-1.3-1.1-1.3
	c-0.4,0-0.8,0.2-1,0.6l0,0H64v-0.1v-0.5h-0.3c0,0.2,0,0.5,0,0.8v2.3H64v-1.8c0-0.1,0-0.2,0-0.3c0.1-0.4,0.5-0.7,0.9-0.7
	c0.6,0,0.9,0.4,0.9,1.1L65.9,94.3z"/>
<path class="st3" d="M69.2,94.4L69.1,94l0,0c-0.2,0.3-0.6,0.5-1,0.5c-0.6,0-1-0.4-1-1c0-0.8,0.7-1.2,2-1.2v-0.1
	c0.1-0.4-0.2-0.7-0.6-0.8c-0.1,0-0.1,0-0.2,0c-0.3,0-0.6,0.1-0.9,0.3l-0.1-0.4c0.3-0.2,0.7-0.3,1.1-0.3c1,0,1.3,0.7,1.3,1.3v1.3
	c0,0.3,0,0.5,0.1,0.8L69.2,94.4z M69.1,92.8c-0.7,0-1.4,0.1-1.4,0.8c0,0.3,0.2,0.5,0.5,0.6c0,0,0.1,0,0.1,0c0.4,0,0.7-0.2,0.8-0.6
	c0-0.1,0-0.1,0-0.2L69.1,92.8z"/>
<path class="st3" d="M68.1,94.6c-0.5,0.1-1-0.4-1.1-0.9c0-0.1,0-0.1,0-0.2c0-0.3,0.1-0.6,0.3-0.8c0.5-0.4,1.1-0.6,1.7-0.5
	c0-0.3-0.2-0.6-0.5-0.6c-0.1,0-0.1,0-0.2,0c-0.3,0-0.6,0.1-0.8,0.2l-0.1,0.1l-0.2-0.6h0.1c0.3-0.2,0.7-0.3,1.2-0.3
	c0.7-0.1,1.3,0.5,1.4,1.2c0,0.1,0,0.2,0,0.3v1.3c0,0.3,0,0.5,0.1,0.8v0.1h-0.8v-0.3C68.8,94.5,68.5,94.6,68.1,94.6z M69.1,92.4
	c-0.6-0.1-1.1,0.1-1.6,0.5c-0.2,0.2-0.3,0.4-0.3,0.7c0,0.5,0.4,0.9,0.8,0.9c0,0,0,0,0.1,0c0.3,0,0.7-0.2,0.9-0.4l0,0h0.1v0.1v0.3
	h0.3c0-0.2,0-0.5,0-0.7v-1.3c0-0.8-0.4-1.3-1.2-1.3c-0.3,0-0.7,0.1-1,0.2l0.1,0.2c0.2-0.1,0.5-0.2,0.8-0.2c0.4,0,0.8,0.3,0.9,0.7
	c0,0.1,0,0.1,0,0.2L69.1,92.4h-0.2H69.1z M68.3,94.2c-0.3,0-0.6-0.2-0.7-0.6c0,0,0-0.1,0-0.1c0-0.2,0.1-0.4,0.2-0.5
	c0.4-0.3,0.8-0.4,1.3-0.3h0.1v0.7c0,0.1,0,0.2,0,0.2C69.1,94,68.7,94.2,68.3,94.2L68.3,94.2z M69,92.8c-0.4,0-0.8,0.1-1.1,0.3
	c-0.1,0.1-0.2,0.2-0.2,0.4c0,0.2,0.2,0.5,0.4,0.5c0,0,0,0,0.1,0c0.3,0,0.6-0.2,0.7-0.5c0-0.1,0-0.1,0-0.2L69,92.8z"/>
<path class="st3" d="M70.6,92c0-0.3,0-0.6,0-0.9h0.5v0.5l0,0c0.2-0.4,0.6-0.6,1-0.6c0.4,0,0.8,0.3,0.9,0.7l0,0
	c0.1-0.2,0.2-0.3,0.4-0.4c0.2-0.2,0.5-0.2,0.7-0.2c0.4,0,1.1,0.3,1.1,1.4v2h-0.6v-1.9c0-0.6-0.2-1-0.7-1c-0.3,0-0.6,0.2-0.7,0.6
	c0,0.1,0,0.2,0,0.3v2h-0.6v-2c0-0.5-0.2-0.9-0.7-0.9c-0.4,0-0.7,0.3-0.8,0.6c0,0.1,0,0.2,0,0.3v2h-0.6L70.6,92z"/>
<path class="st3" d="M75.5,94.5h-0.8v-2c0-0.6-0.2-0.9-0.6-0.9c-0.3,0-0.5,0.2-0.6,0.5c0,0.1,0,0.2,0,0.3v2.2h-0.8v-2.1
	c0-0.2,0-0.8-0.6-0.8c-0.3,0-0.6,0.2-0.7,0.5c0,0.1,0,0.2,0,0.3v2.1h-0.8V92c0-0.4,0-0.6,0-0.9V91h0.7v0.4c0.2-0.3,0.6-0.5,1-0.4
	c0.4,0,0.8,0.2,1,0.6c0.1-0.1,0.2-0.2,0.3-0.3c0.2-0.2,0.5-0.3,0.8-0.3c0.2,0,1.2,0.1,1.2,1.6L75.5,94.5z M74.9,94.3h0.4v-1.9
	c0-1-0.5-1.3-1-1.3c-0.2,0-0.5,0.1-0.7,0.2c-0.1,0.1-0.3,0.2-0.3,0.4l0,0h-0.1v-0.1c-0.1-0.4-0.5-0.6-0.8-0.6c-0.4,0-0.8,0.2-1,0.6
	v0.1h-0.2v-0.1v-0.4h-0.3c0,0.2,0,0.5,0,0.8v2.3h0.4v-1.9c0-0.1,0-0.2,0.1-0.3c0.1-0.4,0.5-0.7,0.8-0.7c0.5,0,0.8,0.4,0.8,1v1.9h0.4
	v-2c0-0.1,0-0.2,0.1-0.3c0.1-0.4,0.4-0.6,0.8-0.6c0.3,0,0.8,0.1,0.8,1.1L74.9,94.3z"/>
<path class="st3" d="M78.2,94.4V94l0,0c-0.2,0.3-0.6,0.5-1,0.5c-0.6,0-1-0.4-1-1c0-0.8,0.7-1.2,2-1.2v-0.1c0.1-0.4-0.2-0.7-0.6-0.8
	c-0.1,0-0.1,0-0.2,0c-0.3,0-0.6,0.1-0.9,0.3l-0.1-0.4c0.3-0.2,0.7-0.3,1.1-0.3c1,0,1.3,0.7,1.3,1.3v1.3c0,0.3,0,0.5,0.1,0.8
	L78.2,94.4z M78.1,92.8c-0.7,0-1.4,0.1-1.4,0.8c0,0.3,0.2,0.5,0.5,0.6c0,0,0.1,0,0.1,0c0.4,0,0.7-0.2,0.8-0.6c0-0.1,0-0.1,0-0.2
	L78.1,92.8z M78.4,89.7l-0.8,1h-0.4l0.6-1H78.4z"/>
<path class="st3" d="M77.1,94.6c-0.5,0.1-1-0.3-1.1-0.9c0-0.1,0-0.1,0-0.2c0-0.3,0.1-0.6,0.3-0.8c0.5-0.4,1.1-0.6,1.7-0.5
	c0-0.3-0.2-0.6-0.5-0.6c-0.1,0-0.1,0-0.2,0c-0.3,0-0.6,0.1-0.8,0.2l-0.1,0.1l-0.2-0.6h0.1c0.3-0.2,0.7-0.3,1.2-0.3
	c0.7-0.1,1.3,0.5,1.4,1.2c0,0.1,0,0.2,0,0.3v1.3c0,0.3,0,0.5,0.1,0.8v0.1h-0.8v-0.3C77.8,94.5,77.5,94.6,77.1,94.6z M78.1,92.4
	c-0.6-0.1-1.1,0.1-1.6,0.5c-0.2,0.2-0.3,0.4-0.3,0.7c0,0.5,0.4,0.9,0.8,0.9c0,0,0,0,0.1,0c0.4,0,0.7-0.2,0.9-0.5l0,0h0.1V94v0.3h0.3
	c0-0.2,0-0.5,0-0.7v-1.3c0-0.8-0.4-1.3-1.2-1.3c-0.3,0-0.7,0.1-1,0.2l0.1,0.2c0.2-0.1,0.5-0.2,0.8-0.2c0.4,0,0.8,0.3,0.9,0.7
	c0,0.1,0,0.1,0,0.2L78.1,92.4L78.1,92.4L78.1,92.4z M77.3,94.2c-0.3,0-0.6-0.2-0.7-0.6c0,0,0-0.1,0-0.1c0-0.2,0.1-0.4,0.2-0.5
	c0.4-0.3,0.8-0.4,1.3-0.3h0.1v0.7c0,0.1,0,0.2,0,0.2C78.1,94,77.7,94.2,77.3,94.2L77.3,94.2z M78,92.8c-0.4,0-0.8,0.1-1.1,0.3
	c-0.1,0.1-0.2,0.2-0.2,0.4c0,0.2,0.2,0.5,0.4,0.5c0,0,0,0,0.1,0c0.3,0,0.6-0.2,0.7-0.5c0-0.1,0-0.1,0-0.2L78,92.8z M77.6,90.8H77
	l0.7-1.2h0.9L77.6,90.8z M77.3,90.6h0.2l0.7-0.8h-0.4L77.3,90.6z"/>
</svg>
