<svg xmlns="http://www.w3.org/2000/svg" viewBox="0 0 143.51 47.3"><defs><style>.cls-1{fill:#fff;}</style></defs><title>SIPA Logo - cd1-mc_main-</title><g id="Capa_2" data-name="Capa 2"><g id="Capa_1-2" data-name="Capa 1"><path class="cls-1" d="M101.41,12.91h4.23a23.69,23.69,0,0,1,4.91.32,5.39,5.39,0,0,1,3,1.84,5.29,5.29,0,0,1,1.16,3.5,5.37,5.37,0,0,1-1.13,3.5,5.47,5.47,0,0,1-3.1,1.85,26.62,26.62,0,0,1-5.4.35h-1.52V35h-2.12ZM103.53,15v7.2l3.6,0a9.53,9.53,0,0,0,3.19-.4,3.35,3.35,0,0,0,1.59-1.28,3.59,3.59,0,0,0,.57-2,3.53,3.53,0,0,0-.57-1.95,3.23,3.23,0,0,0-1.53-1.26,9.15,9.15,0,0,0-3.09-.37Z"/><path class="cls-1" d="M104.42,35.86h-3.89V12h5.11a24.62,24.62,0,0,1,5.12.35,6.3,6.3,0,0,1,3.44,2.13,6.16,6.16,0,0,1,1.36,4.07,6.23,6.23,0,0,1-1.32,4.06,6.4,6.4,0,0,1-3.58,2.15,27.69,27.69,0,0,1-5.61.38h-.63Zm-2.13-1.76h.36V23.39h2.4a26.26,26.26,0,0,0,5.19-.33,4.62,4.62,0,0,0,2.63-1.55,4.48,4.48,0,0,0,.92-2.94,4.4,4.4,0,0,0-1-2.94,4.55,4.55,0,0,0-2.5-1.55,23,23,0,0,0-4.7-.29h-3.35Zm4.84-11-4.48-.05v-9h4.64a9.89,9.89,0,0,1,3.42.44,4.14,4.14,0,0,1,1.94,1.6,4.53,4.53,0,0,1,0,4.9,4.18,4.18,0,0,1-2,1.62A10,10,0,0,1,107.13,23.12Zm-2.71-1.8,2.72,0A8.51,8.51,0,0,0,110,21a2.44,2.44,0,0,0,1.17-.95,2.76,2.76,0,0,0,0-3,2.38,2.38,0,0,0-1.11-.93,8.21,8.21,0,0,0-2.77-.31h-2.87Z"/><path class="cls-1" d="M83.92,12.94H86V35H83.92Z"/><path class="cls-1" d="M86.92,35.87H83V12h3.89ZM84.8,34h.35V13.86H84.8Z"/><path class="cls-1" d="M131.8,12.91,142.12,35h-2.29l-3.76-7.82h-9.15L123.2,35h-2.37l10.45-22.07Zm-.27,4.51-3.64,7.69h7.26Z"/><path class="cls-1" d="M143.51,35.87h-4.24l-3.76-7.82h-8l-3.72,7.82h-4.33L130.72,12h1.64Zm-3.12-1.77h.34l-9.19-19.66L122.23,34.1h.41l3.72-7.82h10.27ZM136.55,26H126.49l5-10.65Zm-7.26-1.77h4.47l-2.23-4.74Z"/><path class="cls-1" d="M55.06,30.6l2.25-1.08Q59.69,33,62.81,33a6.39,6.39,0,0,0,2.51-.5,4.17,4.17,0,0,0,1.79-1.34,3,3,0,0,0,.61-1.77,3.18,3.18,0,0,0-.9-2.1,20.32,20.32,0,0,0-4.55-3.4A22.23,22.23,0,0,1,58.14,21a4.66,4.66,0,0,1-1.41-3.25,4.21,4.21,0,0,1,.83-2.52,5.59,5.59,0,0,1,2.34-1.8,8,8,0,0,1,3.27-.66,8.32,8.32,0,0,1,3.51.75,11.17,11.17,0,0,1,3.46,2.73L68,17.58a9.79,9.79,0,0,0-2.55-2.1,5.34,5.34,0,0,0-2.3-.5,4.22,4.22,0,0,0-2.63.78,2.34,2.34,0,0,0-1,1.92A2.63,2.63,0,0,0,59.84,19a5.15,5.15,0,0,0,1.31,1.42c.35.26,1.49,1,3.43,2.12a18.18,18.18,0,0,1,4.73,3.62,5.1,5.1,0,0,1,1.28,3.19,5,5,0,0,1-2.19,4,8.49,8.49,0,0,1-5.34,1.7,9.25,9.25,0,0,1-4.38-1A10.33,10.33,0,0,1,55.06,30.6Z"/><path class="cls-1" d="M63.06,35.85a10,10,0,0,1-4.73-1.12,11.11,11.11,0,0,1-3.9-3.7l-.5-.73,3.64-1.75.37.54c1.45,2.13,3,3.17,4.87,3.17A5.58,5.58,0,0,0,65,31.83a3.4,3.4,0,0,0,1.47-1.09A2.22,2.22,0,0,0,67,29.42a2.41,2.41,0,0,0-.72-1.59,19.36,19.36,0,0,0-4.36-3.26,22,22,0,0,1-4.3-3.05A5.39,5.39,0,0,1,56,17.76a4.94,4.94,0,0,1,1-3,6.31,6.31,0,0,1,2.64-2,9.44,9.44,0,0,1,7.41.09,12.2,12.2,0,0,1,3.7,2.92l.62.68-3.48,2.12-.42-.45a8.91,8.91,0,0,0-2.33-1.93,4.47,4.47,0,0,0-2-.43,3.4,3.4,0,0,0-2.16.62,1.6,1.6,0,0,0-.72,1.32,1.94,1.94,0,0,0,.26,1,4.34,4.34,0,0,0,1.13,1.19c.21.16,1,.66,3.34,2.06a18.58,18.58,0,0,1,4.93,3.8,5.87,5.87,0,0,1,1.45,3.67A5.74,5.74,0,0,1,68.86,34,9.24,9.24,0,0,1,63.06,35.85Zm-6.85-5A8.76,8.76,0,0,0,59,33.38a8.52,8.52,0,0,0,4,.95,7.69,7.69,0,0,0,4.87-1.54,4.27,4.27,0,0,0,1.9-3.42,4.39,4.39,0,0,0-1.12-2.71,17.55,17.55,0,0,0-4.52-3.45c-2.64-1.56-3.26-2-3.5-2.17a5.91,5.91,0,0,1-1.52-1.65,3.51,3.51,0,0,1-.46-1.71A3.14,3.14,0,0,1,60,15.15a5,5,0,0,1,3.09-.93,6,6,0,0,1,2.63.58,9.2,9.2,0,0,1,2.35,1.81l.83-.5a9.33,9.33,0,0,0-2.56-1.89,7.83,7.83,0,0,0-6.17-.08,4.8,4.8,0,0,0-2,1.55,3.41,3.41,0,0,0-.69,2.07,3.9,3.9,0,0,0,1.21,2.73,20.31,20.31,0,0,0,4,2.77,20.88,20.88,0,0,1,4.73,3.56,3.93,3.93,0,0,1,1.09,2.6,3.75,3.75,0,0,1-.76,2.22,5,5,0,0,1-2.1,1.59,7.16,7.16,0,0,1-2.81.56c-2.17,0-4.1-1.11-5.75-3.31Z"/><polygon class="cls-1" points="21.04 40.8 40.32 29.59 40.3 36.1 21.02 47.3 21.04 40.8"/><polygon class="cls-1" points="21.04 40.8 21.02 47.3 0 35.16 0.02 28.66 21.04 40.8"/><polygon class="cls-1" points="21.04 32.08 40.32 20.87 40.3 27.38 21.02 38.58 21.04 32.08"/><polygon class="cls-1" points="21.04 32.08 21.02 38.58 0 26.44 0.02 19.94 21.04 32.08"/><polygon class="cls-1" points="21.04 23.34 40.32 12.14 40.3 18.64 21.02 29.85 21.04 23.34"/><polygon class="cls-1" points="0.02 11.21 19.3 0 40.32 12.14 21.04 23.34 0.02 11.21"/><polygon class="cls-1" points="21.04 23.34 21.02 29.85 0 17.71 0.02 11.21 21.04 23.34"/></g></g></svg>