<?xml version="1.0" standalone="no"?>
<!DOCTYPE svg PUBLIC "-//W3C//DTD SVG 20010904//EN"
 "http://www.w3.org/TR/2001/REC-SVG-20010904/DTD/svg10.dtd">
<svg version="1.0" xmlns="http://www.w3.org/2000/svg"
 width="613.000000pt" height="613.000000pt" viewBox="0 0 613.000000 613.000000"
 preserveAspectRatio="xMidYMid meet">
<metadata>
Created by potrace 1.14, written by Peter Selinger 2001-2017
</metadata>
<g transform="translate(0.000000,613.000000) scale(0.100000,-0.100000)"
fill="#000000" stroke="none">
<path d="M2900 6100 c-25 -15 -187 -110 -360 -210 -505 -293 -571 -331 -649
-378 -41 -24 -88 -52 -105 -61 -43 -24 -162 -92 -199 -115 -18 -10 -102 -59
-187 -109 -85 -49 -171 -99 -191 -111 -20 -11 -102 -59 -183 -106 -81 -47
-155 -89 -164 -95 -10 -5 -102 -59 -206 -119 -103 -61 -190 -115 -193 -122 -2
-6 -5 -197 -6 -424 l-2 -412 123 -71 c141 -81 141 -68 7 -143 -44 -25 -90 -53
-103 -62 l-23 -18 -1 -400 c0 -482 -2 -443 19 -451 16 -6 213 -120 221 -128 1
-1 -51 -33 -118 -71 l-120 -69 -1 -105 c-1 -124 -1 -696 0 -725 1 -14 17 -29
49 -46 26 -14 188 -108 361 -208 172 -100 332 -192 355 -205 59 -33 519 -299
881 -509 171 -99 330 -191 355 -205 25 -14 152 -87 283 -164 131 -76 240 -138
242 -138 2 0 39 -22 82 -48 43 -26 86 -51 96 -55 19 -7 25 -4 207 102 63 37
138 81 165 97 28 16 59 34 70 41 11 6 36 20 55 31 19 10 82 46 138 80 57 34
108 62 113 62 5 0 9 5 9 10 0 6 5 10 10 10 8 0 730 415 800 460 8 5 38 22 65
38 74 42 418 242 435 253 26 16 363 211 403 232 30 17 37 27 38 51 1 17 2 208
3 425 l1 393 -80 47 c-44 25 -89 51 -100 58 -11 7 -31 17 -44 23 -23 10 -18
15 95 81 65 39 121 73 124 76 6 6 7 833 0 842 -5 7 -107 71 -114 71 -3 0 -32
16 -66 37 -43 25 -57 39 -48 44 7 5 61 37 121 71 l107 62 1 41 c1 22 2 212 3
422 1 371 1 382 -19 394 -20 13 -161 95 -675 391 -1014 585 -1130 652 -1490
860 -118 69 -235 136 -260 150 -81 46 -225 130 -235 138 -25 20 -52 17 -95
-10z"/>
</g>
</svg>
